%TF.GenerationSoftware,KiCad,Pcbnew,9.0.6*%
%TF.CreationDate,2025-12-24T19:30:20-05:00*%
%TF.ProjectId,tmp36 circuit,746d7033-3620-4636-9972-637569742e6b,rev?*%
%TF.SameCoordinates,Original*%
%TF.FileFunction,Legend,Top*%
%TF.FilePolarity,Positive*%
%FSLAX46Y46*%
G04 Gerber Fmt 4.6, Leading zero omitted, Abs format (unit mm)*
G04 Created by KiCad (PCBNEW 9.0.6) date 2025-12-24 19:30:20*
%MOMM*%
%LPD*%
G01*
G04 APERTURE LIST*
%ADD10C,0.100000*%
%ADD11C,0.150000*%
%ADD12C,0.120000*%
G04 APERTURE END LIST*
D10*
X168927693Y-86659538D02*
X168832455Y-86611919D01*
X168832455Y-86611919D02*
X168689598Y-86611919D01*
X168689598Y-86611919D02*
X168546741Y-86659538D01*
X168546741Y-86659538D02*
X168451503Y-86754776D01*
X168451503Y-86754776D02*
X168403884Y-86850014D01*
X168403884Y-86850014D02*
X168356265Y-87040490D01*
X168356265Y-87040490D02*
X168356265Y-87183347D01*
X168356265Y-87183347D02*
X168403884Y-87373823D01*
X168403884Y-87373823D02*
X168451503Y-87469061D01*
X168451503Y-87469061D02*
X168546741Y-87564300D01*
X168546741Y-87564300D02*
X168689598Y-87611919D01*
X168689598Y-87611919D02*
X168784836Y-87611919D01*
X168784836Y-87611919D02*
X168927693Y-87564300D01*
X168927693Y-87564300D02*
X168975312Y-87516680D01*
X168975312Y-87516680D02*
X168975312Y-87183347D01*
X168975312Y-87183347D02*
X168784836Y-87183347D01*
X169403884Y-87611919D02*
X169403884Y-86611919D01*
X169403884Y-86611919D02*
X169975312Y-87611919D01*
X169975312Y-87611919D02*
X169975312Y-86611919D01*
X170451503Y-87611919D02*
X170451503Y-86611919D01*
X170451503Y-86611919D02*
X170689598Y-86611919D01*
X170689598Y-86611919D02*
X170832455Y-86659538D01*
X170832455Y-86659538D02*
X170927693Y-86754776D01*
X170927693Y-86754776D02*
X170975312Y-86850014D01*
X170975312Y-86850014D02*
X171022931Y-87040490D01*
X171022931Y-87040490D02*
X171022931Y-87183347D01*
X171022931Y-87183347D02*
X170975312Y-87373823D01*
X170975312Y-87373823D02*
X170927693Y-87469061D01*
X170927693Y-87469061D02*
X170832455Y-87564300D01*
X170832455Y-87564300D02*
X170689598Y-87611919D01*
X170689598Y-87611919D02*
X170451503Y-87611919D01*
X168641979Y-82518919D02*
X168641979Y-81518919D01*
X168641979Y-81518919D02*
X169022931Y-81518919D01*
X169022931Y-81518919D02*
X169118169Y-81566538D01*
X169118169Y-81566538D02*
X169165788Y-81614157D01*
X169165788Y-81614157D02*
X169213407Y-81709395D01*
X169213407Y-81709395D02*
X169213407Y-81852252D01*
X169213407Y-81852252D02*
X169165788Y-81947490D01*
X169165788Y-81947490D02*
X169118169Y-81995109D01*
X169118169Y-81995109D02*
X169022931Y-82042728D01*
X169022931Y-82042728D02*
X168641979Y-82042728D01*
X169832455Y-81518919D02*
X170022931Y-81518919D01*
X170022931Y-81518919D02*
X170118169Y-81566538D01*
X170118169Y-81566538D02*
X170213407Y-81661776D01*
X170213407Y-81661776D02*
X170261026Y-81852252D01*
X170261026Y-81852252D02*
X170261026Y-82185585D01*
X170261026Y-82185585D02*
X170213407Y-82376061D01*
X170213407Y-82376061D02*
X170118169Y-82471300D01*
X170118169Y-82471300D02*
X170022931Y-82518919D01*
X170022931Y-82518919D02*
X169832455Y-82518919D01*
X169832455Y-82518919D02*
X169737217Y-82471300D01*
X169737217Y-82471300D02*
X169641979Y-82376061D01*
X169641979Y-82376061D02*
X169594360Y-82185585D01*
X169594360Y-82185585D02*
X169594360Y-81852252D01*
X169594360Y-81852252D02*
X169641979Y-81661776D01*
X169641979Y-81661776D02*
X169737217Y-81566538D01*
X169737217Y-81566538D02*
X169832455Y-81518919D01*
X170546741Y-81518919D02*
X171118169Y-81518919D01*
X170832455Y-82518919D02*
X170832455Y-81518919D01*
X168403884Y-78972419D02*
X168975312Y-78972419D01*
X168689598Y-79972419D02*
X168689598Y-78972419D01*
X169308646Y-79972419D02*
X169308646Y-78972419D01*
X169308646Y-78972419D02*
X169641979Y-79686704D01*
X169641979Y-79686704D02*
X169975312Y-78972419D01*
X169975312Y-78972419D02*
X169975312Y-79972419D01*
X170451503Y-79972419D02*
X170451503Y-78972419D01*
X170451503Y-78972419D02*
X170832455Y-78972419D01*
X170832455Y-78972419D02*
X170927693Y-79020038D01*
X170927693Y-79020038D02*
X170975312Y-79067657D01*
X170975312Y-79067657D02*
X171022931Y-79162895D01*
X171022931Y-79162895D02*
X171022931Y-79305752D01*
X171022931Y-79305752D02*
X170975312Y-79400990D01*
X170975312Y-79400990D02*
X170927693Y-79448609D01*
X170927693Y-79448609D02*
X170832455Y-79496228D01*
X170832455Y-79496228D02*
X170451503Y-79496228D01*
X168403884Y-84684466D02*
X169165789Y-84684466D01*
X168784836Y-85065419D02*
X168784836Y-84303514D01*
X170118169Y-84065419D02*
X169641979Y-84065419D01*
X169641979Y-84065419D02*
X169594360Y-84541609D01*
X169594360Y-84541609D02*
X169641979Y-84493990D01*
X169641979Y-84493990D02*
X169737217Y-84446371D01*
X169737217Y-84446371D02*
X169975312Y-84446371D01*
X169975312Y-84446371D02*
X170070550Y-84493990D01*
X170070550Y-84493990D02*
X170118169Y-84541609D01*
X170118169Y-84541609D02*
X170165788Y-84636847D01*
X170165788Y-84636847D02*
X170165788Y-84874942D01*
X170165788Y-84874942D02*
X170118169Y-84970180D01*
X170118169Y-84970180D02*
X170070550Y-85017800D01*
X170070550Y-85017800D02*
X169975312Y-85065419D01*
X169975312Y-85065419D02*
X169737217Y-85065419D01*
X169737217Y-85065419D02*
X169641979Y-85017800D01*
X169641979Y-85017800D02*
X169594360Y-84970180D01*
X170451503Y-84065419D02*
X170784836Y-85065419D01*
X170784836Y-85065419D02*
X171118169Y-84065419D01*
D11*
X172466666Y-76264819D02*
X172466666Y-76979104D01*
X172466666Y-76979104D02*
X172419047Y-77121961D01*
X172419047Y-77121961D02*
X172323809Y-77217200D01*
X172323809Y-77217200D02*
X172180952Y-77264819D01*
X172180952Y-77264819D02*
X172085714Y-77264819D01*
X173466666Y-77264819D02*
X172895238Y-77264819D01*
X173180952Y-77264819D02*
X173180952Y-76264819D01*
X173180952Y-76264819D02*
X173085714Y-76407676D01*
X173085714Y-76407676D02*
X172990476Y-76502914D01*
X172990476Y-76502914D02*
X172895238Y-76550533D01*
X139233333Y-102834819D02*
X138900000Y-102358628D01*
X138661905Y-102834819D02*
X138661905Y-101834819D01*
X138661905Y-101834819D02*
X139042857Y-101834819D01*
X139042857Y-101834819D02*
X139138095Y-101882438D01*
X139138095Y-101882438D02*
X139185714Y-101930057D01*
X139185714Y-101930057D02*
X139233333Y-102025295D01*
X139233333Y-102025295D02*
X139233333Y-102168152D01*
X139233333Y-102168152D02*
X139185714Y-102263390D01*
X139185714Y-102263390D02*
X139138095Y-102311009D01*
X139138095Y-102311009D02*
X139042857Y-102358628D01*
X139042857Y-102358628D02*
X138661905Y-102358628D01*
X139804762Y-102263390D02*
X139709524Y-102215771D01*
X139709524Y-102215771D02*
X139661905Y-102168152D01*
X139661905Y-102168152D02*
X139614286Y-102072914D01*
X139614286Y-102072914D02*
X139614286Y-102025295D01*
X139614286Y-102025295D02*
X139661905Y-101930057D01*
X139661905Y-101930057D02*
X139709524Y-101882438D01*
X139709524Y-101882438D02*
X139804762Y-101834819D01*
X139804762Y-101834819D02*
X139995238Y-101834819D01*
X139995238Y-101834819D02*
X140090476Y-101882438D01*
X140090476Y-101882438D02*
X140138095Y-101930057D01*
X140138095Y-101930057D02*
X140185714Y-102025295D01*
X140185714Y-102025295D02*
X140185714Y-102072914D01*
X140185714Y-102072914D02*
X140138095Y-102168152D01*
X140138095Y-102168152D02*
X140090476Y-102215771D01*
X140090476Y-102215771D02*
X139995238Y-102263390D01*
X139995238Y-102263390D02*
X139804762Y-102263390D01*
X139804762Y-102263390D02*
X139709524Y-102311009D01*
X139709524Y-102311009D02*
X139661905Y-102358628D01*
X139661905Y-102358628D02*
X139614286Y-102453866D01*
X139614286Y-102453866D02*
X139614286Y-102644342D01*
X139614286Y-102644342D02*
X139661905Y-102739580D01*
X139661905Y-102739580D02*
X139709524Y-102787200D01*
X139709524Y-102787200D02*
X139804762Y-102834819D01*
X139804762Y-102834819D02*
X139995238Y-102834819D01*
X139995238Y-102834819D02*
X140090476Y-102787200D01*
X140090476Y-102787200D02*
X140138095Y-102739580D01*
X140138095Y-102739580D02*
X140185714Y-102644342D01*
X140185714Y-102644342D02*
X140185714Y-102453866D01*
X140185714Y-102453866D02*
X140138095Y-102358628D01*
X140138095Y-102358628D02*
X140090476Y-102311009D01*
X140090476Y-102311009D02*
X139995238Y-102263390D01*
X164244819Y-99614523D02*
X163244819Y-99614523D01*
X163244819Y-99614523D02*
X163959104Y-99281190D01*
X163959104Y-99281190D02*
X163244819Y-98947857D01*
X163244819Y-98947857D02*
X164244819Y-98947857D01*
X164244819Y-97947857D02*
X164244819Y-98519285D01*
X164244819Y-98233571D02*
X163244819Y-98233571D01*
X163244819Y-98233571D02*
X163387676Y-98328809D01*
X163387676Y-98328809D02*
X163482914Y-98424047D01*
X163482914Y-98424047D02*
X163530533Y-98519285D01*
X158497200Y-71058332D02*
X158544819Y-70915475D01*
X158544819Y-70915475D02*
X158544819Y-70677380D01*
X158544819Y-70677380D02*
X158497200Y-70582142D01*
X158497200Y-70582142D02*
X158449580Y-70534523D01*
X158449580Y-70534523D02*
X158354342Y-70486904D01*
X158354342Y-70486904D02*
X158259104Y-70486904D01*
X158259104Y-70486904D02*
X158163866Y-70534523D01*
X158163866Y-70534523D02*
X158116247Y-70582142D01*
X158116247Y-70582142D02*
X158068628Y-70677380D01*
X158068628Y-70677380D02*
X158021009Y-70867856D01*
X158021009Y-70867856D02*
X157973390Y-70963094D01*
X157973390Y-70963094D02*
X157925771Y-71010713D01*
X157925771Y-71010713D02*
X157830533Y-71058332D01*
X157830533Y-71058332D02*
X157735295Y-71058332D01*
X157735295Y-71058332D02*
X157640057Y-71010713D01*
X157640057Y-71010713D02*
X157592438Y-70963094D01*
X157592438Y-70963094D02*
X157544819Y-70867856D01*
X157544819Y-70867856D02*
X157544819Y-70629761D01*
X157544819Y-70629761D02*
X157592438Y-70486904D01*
X157544819Y-70153570D02*
X158544819Y-69915475D01*
X158544819Y-69915475D02*
X157830533Y-69724999D01*
X157830533Y-69724999D02*
X158544819Y-69534523D01*
X158544819Y-69534523D02*
X157544819Y-69296428D01*
X158544819Y-68391666D02*
X158544819Y-68963094D01*
X158544819Y-68677380D02*
X157544819Y-68677380D01*
X157544819Y-68677380D02*
X157687676Y-68772618D01*
X157687676Y-68772618D02*
X157782914Y-68867856D01*
X157782914Y-68867856D02*
X157830533Y-68963094D01*
X161951905Y-80384819D02*
X161951905Y-79384819D01*
X161951905Y-79384819D02*
X162190000Y-79384819D01*
X162190000Y-79384819D02*
X162332857Y-79432438D01*
X162332857Y-79432438D02*
X162428095Y-79527676D01*
X162428095Y-79527676D02*
X162475714Y-79622914D01*
X162475714Y-79622914D02*
X162523333Y-79813390D01*
X162523333Y-79813390D02*
X162523333Y-79956247D01*
X162523333Y-79956247D02*
X162475714Y-80146723D01*
X162475714Y-80146723D02*
X162428095Y-80241961D01*
X162428095Y-80241961D02*
X162332857Y-80337200D01*
X162332857Y-80337200D02*
X162190000Y-80384819D01*
X162190000Y-80384819D02*
X161951905Y-80384819D01*
X163475714Y-80384819D02*
X162904286Y-80384819D01*
X163190000Y-80384819D02*
X163190000Y-79384819D01*
X163190000Y-79384819D02*
X163094762Y-79527676D01*
X163094762Y-79527676D02*
X162999524Y-79622914D01*
X162999524Y-79622914D02*
X162904286Y-79670533D01*
X158618095Y-80954819D02*
X158618095Y-79954819D01*
X159189523Y-80954819D02*
X158760952Y-80383390D01*
X159189523Y-79954819D02*
X158618095Y-80526247D01*
X139233333Y-98763390D02*
X138900000Y-98287199D01*
X138661905Y-98763390D02*
X138661905Y-97763390D01*
X138661905Y-97763390D02*
X139042857Y-97763390D01*
X139042857Y-97763390D02*
X139138095Y-97811009D01*
X139138095Y-97811009D02*
X139185714Y-97858628D01*
X139185714Y-97858628D02*
X139233333Y-97953866D01*
X139233333Y-97953866D02*
X139233333Y-98096723D01*
X139233333Y-98096723D02*
X139185714Y-98191961D01*
X139185714Y-98191961D02*
X139138095Y-98239580D01*
X139138095Y-98239580D02*
X139042857Y-98287199D01*
X139042857Y-98287199D02*
X138661905Y-98287199D01*
X139566667Y-97763390D02*
X140233333Y-97763390D01*
X140233333Y-97763390D02*
X139804762Y-98763390D01*
X139233333Y-74334819D02*
X138900000Y-73858628D01*
X138661905Y-74334819D02*
X138661905Y-73334819D01*
X138661905Y-73334819D02*
X139042857Y-73334819D01*
X139042857Y-73334819D02*
X139138095Y-73382438D01*
X139138095Y-73382438D02*
X139185714Y-73430057D01*
X139185714Y-73430057D02*
X139233333Y-73525295D01*
X139233333Y-73525295D02*
X139233333Y-73668152D01*
X139233333Y-73668152D02*
X139185714Y-73763390D01*
X139185714Y-73763390D02*
X139138095Y-73811009D01*
X139138095Y-73811009D02*
X139042857Y-73858628D01*
X139042857Y-73858628D02*
X138661905Y-73858628D01*
X140185714Y-74334819D02*
X139614286Y-74334819D01*
X139900000Y-74334819D02*
X139900000Y-73334819D01*
X139900000Y-73334819D02*
X139804762Y-73477676D01*
X139804762Y-73477676D02*
X139709524Y-73572914D01*
X139709524Y-73572914D02*
X139614286Y-73620533D01*
X139233333Y-86569105D02*
X138900000Y-86092914D01*
X138661905Y-86569105D02*
X138661905Y-85569105D01*
X138661905Y-85569105D02*
X139042857Y-85569105D01*
X139042857Y-85569105D02*
X139138095Y-85616724D01*
X139138095Y-85616724D02*
X139185714Y-85664343D01*
X139185714Y-85664343D02*
X139233333Y-85759581D01*
X139233333Y-85759581D02*
X139233333Y-85902438D01*
X139233333Y-85902438D02*
X139185714Y-85997676D01*
X139185714Y-85997676D02*
X139138095Y-86045295D01*
X139138095Y-86045295D02*
X139042857Y-86092914D01*
X139042857Y-86092914D02*
X138661905Y-86092914D01*
X140090476Y-85902438D02*
X140090476Y-86569105D01*
X139852381Y-85521486D02*
X139614286Y-86235771D01*
X139614286Y-86235771D02*
X140233333Y-86235771D01*
X126996905Y-93794819D02*
X126996905Y-92794819D01*
X126996905Y-92794819D02*
X127235000Y-92794819D01*
X127235000Y-92794819D02*
X127377857Y-92842438D01*
X127377857Y-92842438D02*
X127473095Y-92937676D01*
X127473095Y-92937676D02*
X127520714Y-93032914D01*
X127520714Y-93032914D02*
X127568333Y-93223390D01*
X127568333Y-93223390D02*
X127568333Y-93366247D01*
X127568333Y-93366247D02*
X127520714Y-93556723D01*
X127520714Y-93556723D02*
X127473095Y-93651961D01*
X127473095Y-93651961D02*
X127377857Y-93747200D01*
X127377857Y-93747200D02*
X127235000Y-93794819D01*
X127235000Y-93794819D02*
X126996905Y-93794819D01*
X127949286Y-92890057D02*
X127996905Y-92842438D01*
X127996905Y-92842438D02*
X128092143Y-92794819D01*
X128092143Y-92794819D02*
X128330238Y-92794819D01*
X128330238Y-92794819D02*
X128425476Y-92842438D01*
X128425476Y-92842438D02*
X128473095Y-92890057D01*
X128473095Y-92890057D02*
X128520714Y-92985295D01*
X128520714Y-92985295D02*
X128520714Y-93080533D01*
X128520714Y-93080533D02*
X128473095Y-93223390D01*
X128473095Y-93223390D02*
X127901667Y-93794819D01*
X127901667Y-93794819D02*
X128520714Y-93794819D01*
X139233333Y-82477676D02*
X138900000Y-82001485D01*
X138661905Y-82477676D02*
X138661905Y-81477676D01*
X138661905Y-81477676D02*
X139042857Y-81477676D01*
X139042857Y-81477676D02*
X139138095Y-81525295D01*
X139138095Y-81525295D02*
X139185714Y-81572914D01*
X139185714Y-81572914D02*
X139233333Y-81668152D01*
X139233333Y-81668152D02*
X139233333Y-81811009D01*
X139233333Y-81811009D02*
X139185714Y-81906247D01*
X139185714Y-81906247D02*
X139138095Y-81953866D01*
X139138095Y-81953866D02*
X139042857Y-82001485D01*
X139042857Y-82001485D02*
X138661905Y-82001485D01*
X139566667Y-81477676D02*
X140185714Y-81477676D01*
X140185714Y-81477676D02*
X139852381Y-81858628D01*
X139852381Y-81858628D02*
X139995238Y-81858628D01*
X139995238Y-81858628D02*
X140090476Y-81906247D01*
X140090476Y-81906247D02*
X140138095Y-81953866D01*
X140138095Y-81953866D02*
X140185714Y-82049104D01*
X140185714Y-82049104D02*
X140185714Y-82287199D01*
X140185714Y-82287199D02*
X140138095Y-82382437D01*
X140138095Y-82382437D02*
X140090476Y-82430057D01*
X140090476Y-82430057D02*
X139995238Y-82477676D01*
X139995238Y-82477676D02*
X139709524Y-82477676D01*
X139709524Y-82477676D02*
X139614286Y-82430057D01*
X139614286Y-82430057D02*
X139566667Y-82382437D01*
X139233333Y-94691962D02*
X138900000Y-94215771D01*
X138661905Y-94691962D02*
X138661905Y-93691962D01*
X138661905Y-93691962D02*
X139042857Y-93691962D01*
X139042857Y-93691962D02*
X139138095Y-93739581D01*
X139138095Y-93739581D02*
X139185714Y-93787200D01*
X139185714Y-93787200D02*
X139233333Y-93882438D01*
X139233333Y-93882438D02*
X139233333Y-94025295D01*
X139233333Y-94025295D02*
X139185714Y-94120533D01*
X139185714Y-94120533D02*
X139138095Y-94168152D01*
X139138095Y-94168152D02*
X139042857Y-94215771D01*
X139042857Y-94215771D02*
X138661905Y-94215771D01*
X140090476Y-93691962D02*
X139900000Y-93691962D01*
X139900000Y-93691962D02*
X139804762Y-93739581D01*
X139804762Y-93739581D02*
X139757143Y-93787200D01*
X139757143Y-93787200D02*
X139661905Y-93930057D01*
X139661905Y-93930057D02*
X139614286Y-94120533D01*
X139614286Y-94120533D02*
X139614286Y-94501485D01*
X139614286Y-94501485D02*
X139661905Y-94596723D01*
X139661905Y-94596723D02*
X139709524Y-94644343D01*
X139709524Y-94644343D02*
X139804762Y-94691962D01*
X139804762Y-94691962D02*
X139995238Y-94691962D01*
X139995238Y-94691962D02*
X140090476Y-94644343D01*
X140090476Y-94644343D02*
X140138095Y-94596723D01*
X140138095Y-94596723D02*
X140185714Y-94501485D01*
X140185714Y-94501485D02*
X140185714Y-94263390D01*
X140185714Y-94263390D02*
X140138095Y-94168152D01*
X140138095Y-94168152D02*
X140090476Y-94120533D01*
X140090476Y-94120533D02*
X139995238Y-94072914D01*
X139995238Y-94072914D02*
X139804762Y-94072914D01*
X139804762Y-94072914D02*
X139709524Y-94120533D01*
X139709524Y-94120533D02*
X139661905Y-94168152D01*
X139661905Y-94168152D02*
X139614286Y-94263390D01*
X157639761Y-86650057D02*
X157544523Y-86602438D01*
X157544523Y-86602438D02*
X157449285Y-86507200D01*
X157449285Y-86507200D02*
X157306428Y-86364342D01*
X157306428Y-86364342D02*
X157211190Y-86316723D01*
X157211190Y-86316723D02*
X157115952Y-86316723D01*
X157163571Y-86554819D02*
X157068333Y-86507200D01*
X157068333Y-86507200D02*
X156973095Y-86411961D01*
X156973095Y-86411961D02*
X156925476Y-86221485D01*
X156925476Y-86221485D02*
X156925476Y-85888152D01*
X156925476Y-85888152D02*
X156973095Y-85697676D01*
X156973095Y-85697676D02*
X157068333Y-85602438D01*
X157068333Y-85602438D02*
X157163571Y-85554819D01*
X157163571Y-85554819D02*
X157354047Y-85554819D01*
X157354047Y-85554819D02*
X157449285Y-85602438D01*
X157449285Y-85602438D02*
X157544523Y-85697676D01*
X157544523Y-85697676D02*
X157592142Y-85888152D01*
X157592142Y-85888152D02*
X157592142Y-86221485D01*
X157592142Y-86221485D02*
X157544523Y-86411961D01*
X157544523Y-86411961D02*
X157449285Y-86507200D01*
X157449285Y-86507200D02*
X157354047Y-86554819D01*
X157354047Y-86554819D02*
X157163571Y-86554819D01*
X158544523Y-86554819D02*
X157973095Y-86554819D01*
X158258809Y-86554819D02*
X158258809Y-85554819D01*
X158258809Y-85554819D02*
X158163571Y-85697676D01*
X158163571Y-85697676D02*
X158068333Y-85792914D01*
X158068333Y-85792914D02*
X157973095Y-85840533D01*
X139233333Y-90620533D02*
X138900000Y-90144342D01*
X138661905Y-90620533D02*
X138661905Y-89620533D01*
X138661905Y-89620533D02*
X139042857Y-89620533D01*
X139042857Y-89620533D02*
X139138095Y-89668152D01*
X139138095Y-89668152D02*
X139185714Y-89715771D01*
X139185714Y-89715771D02*
X139233333Y-89811009D01*
X139233333Y-89811009D02*
X139233333Y-89953866D01*
X139233333Y-89953866D02*
X139185714Y-90049104D01*
X139185714Y-90049104D02*
X139138095Y-90096723D01*
X139138095Y-90096723D02*
X139042857Y-90144342D01*
X139042857Y-90144342D02*
X138661905Y-90144342D01*
X140138095Y-89620533D02*
X139661905Y-89620533D01*
X139661905Y-89620533D02*
X139614286Y-90096723D01*
X139614286Y-90096723D02*
X139661905Y-90049104D01*
X139661905Y-90049104D02*
X139757143Y-90001485D01*
X139757143Y-90001485D02*
X139995238Y-90001485D01*
X139995238Y-90001485D02*
X140090476Y-90049104D01*
X140090476Y-90049104D02*
X140138095Y-90096723D01*
X140138095Y-90096723D02*
X140185714Y-90191961D01*
X140185714Y-90191961D02*
X140185714Y-90430056D01*
X140185714Y-90430056D02*
X140138095Y-90525294D01*
X140138095Y-90525294D02*
X140090476Y-90572914D01*
X140090476Y-90572914D02*
X139995238Y-90620533D01*
X139995238Y-90620533D02*
X139757143Y-90620533D01*
X139757143Y-90620533D02*
X139661905Y-90572914D01*
X139661905Y-90572914D02*
X139614286Y-90525294D01*
X150164761Y-102210057D02*
X150069523Y-102162438D01*
X150069523Y-102162438D02*
X149974285Y-102067200D01*
X149974285Y-102067200D02*
X149831428Y-101924342D01*
X149831428Y-101924342D02*
X149736190Y-101876723D01*
X149736190Y-101876723D02*
X149640952Y-101876723D01*
X149688571Y-102114819D02*
X149593333Y-102067200D01*
X149593333Y-102067200D02*
X149498095Y-101971961D01*
X149498095Y-101971961D02*
X149450476Y-101781485D01*
X149450476Y-101781485D02*
X149450476Y-101448152D01*
X149450476Y-101448152D02*
X149498095Y-101257676D01*
X149498095Y-101257676D02*
X149593333Y-101162438D01*
X149593333Y-101162438D02*
X149688571Y-101114819D01*
X149688571Y-101114819D02*
X149879047Y-101114819D01*
X149879047Y-101114819D02*
X149974285Y-101162438D01*
X149974285Y-101162438D02*
X150069523Y-101257676D01*
X150069523Y-101257676D02*
X150117142Y-101448152D01*
X150117142Y-101448152D02*
X150117142Y-101781485D01*
X150117142Y-101781485D02*
X150069523Y-101971961D01*
X150069523Y-101971961D02*
X149974285Y-102067200D01*
X149974285Y-102067200D02*
X149879047Y-102114819D01*
X149879047Y-102114819D02*
X149688571Y-102114819D01*
X150498095Y-101210057D02*
X150545714Y-101162438D01*
X150545714Y-101162438D02*
X150640952Y-101114819D01*
X150640952Y-101114819D02*
X150879047Y-101114819D01*
X150879047Y-101114819D02*
X150974285Y-101162438D01*
X150974285Y-101162438D02*
X151021904Y-101210057D01*
X151021904Y-101210057D02*
X151069523Y-101305295D01*
X151069523Y-101305295D02*
X151069523Y-101400533D01*
X151069523Y-101400533D02*
X151021904Y-101543390D01*
X151021904Y-101543390D02*
X150450476Y-102114819D01*
X150450476Y-102114819D02*
X151069523Y-102114819D01*
X147122261Y-122513057D02*
X147027023Y-122465438D01*
X147027023Y-122465438D02*
X146931785Y-122370200D01*
X146931785Y-122370200D02*
X146788928Y-122227342D01*
X146788928Y-122227342D02*
X146693690Y-122179723D01*
X146693690Y-122179723D02*
X146598452Y-122179723D01*
X146646071Y-122417819D02*
X146550833Y-122370200D01*
X146550833Y-122370200D02*
X146455595Y-122274961D01*
X146455595Y-122274961D02*
X146407976Y-122084485D01*
X146407976Y-122084485D02*
X146407976Y-121751152D01*
X146407976Y-121751152D02*
X146455595Y-121560676D01*
X146455595Y-121560676D02*
X146550833Y-121465438D01*
X146550833Y-121465438D02*
X146646071Y-121417819D01*
X146646071Y-121417819D02*
X146836547Y-121417819D01*
X146836547Y-121417819D02*
X146931785Y-121465438D01*
X146931785Y-121465438D02*
X147027023Y-121560676D01*
X147027023Y-121560676D02*
X147074642Y-121751152D01*
X147074642Y-121751152D02*
X147074642Y-122084485D01*
X147074642Y-122084485D02*
X147027023Y-122274961D01*
X147027023Y-122274961D02*
X146931785Y-122370200D01*
X146931785Y-122370200D02*
X146836547Y-122417819D01*
X146836547Y-122417819D02*
X146646071Y-122417819D01*
X147407976Y-121417819D02*
X148027023Y-121417819D01*
X148027023Y-121417819D02*
X147693690Y-121798771D01*
X147693690Y-121798771D02*
X147836547Y-121798771D01*
X147836547Y-121798771D02*
X147931785Y-121846390D01*
X147931785Y-121846390D02*
X147979404Y-121894009D01*
X147979404Y-121894009D02*
X148027023Y-121989247D01*
X148027023Y-121989247D02*
X148027023Y-122227342D01*
X148027023Y-122227342D02*
X147979404Y-122322580D01*
X147979404Y-122322580D02*
X147931785Y-122370200D01*
X147931785Y-122370200D02*
X147836547Y-122417819D01*
X147836547Y-122417819D02*
X147550833Y-122417819D01*
X147550833Y-122417819D02*
X147455595Y-122370200D01*
X147455595Y-122370200D02*
X147407976Y-122322580D01*
X139233333Y-78526248D02*
X138900000Y-78050057D01*
X138661905Y-78526248D02*
X138661905Y-77526248D01*
X138661905Y-77526248D02*
X139042857Y-77526248D01*
X139042857Y-77526248D02*
X139138095Y-77573867D01*
X139138095Y-77573867D02*
X139185714Y-77621486D01*
X139185714Y-77621486D02*
X139233333Y-77716724D01*
X139233333Y-77716724D02*
X139233333Y-77859581D01*
X139233333Y-77859581D02*
X139185714Y-77954819D01*
X139185714Y-77954819D02*
X139138095Y-78002438D01*
X139138095Y-78002438D02*
X139042857Y-78050057D01*
X139042857Y-78050057D02*
X138661905Y-78050057D01*
X139614286Y-77621486D02*
X139661905Y-77573867D01*
X139661905Y-77573867D02*
X139757143Y-77526248D01*
X139757143Y-77526248D02*
X139995238Y-77526248D01*
X139995238Y-77526248D02*
X140090476Y-77573867D01*
X140090476Y-77573867D02*
X140138095Y-77621486D01*
X140138095Y-77621486D02*
X140185714Y-77716724D01*
X140185714Y-77716724D02*
X140185714Y-77811962D01*
X140185714Y-77811962D02*
X140138095Y-77954819D01*
X140138095Y-77954819D02*
X139566667Y-78526248D01*
X139566667Y-78526248D02*
X140185714Y-78526248D01*
X146319048Y-69348866D02*
X147080953Y-69348866D01*
X146700000Y-69729819D02*
X146700000Y-68967914D01*
X128529761Y-77479819D02*
X128196428Y-77003628D01*
X127958333Y-77479819D02*
X127958333Y-76479819D01*
X127958333Y-76479819D02*
X128339285Y-76479819D01*
X128339285Y-76479819D02*
X128434523Y-76527438D01*
X128434523Y-76527438D02*
X128482142Y-76575057D01*
X128482142Y-76575057D02*
X128529761Y-76670295D01*
X128529761Y-76670295D02*
X128529761Y-76813152D01*
X128529761Y-76813152D02*
X128482142Y-76908390D01*
X128482142Y-76908390D02*
X128434523Y-76956009D01*
X128434523Y-76956009D02*
X128339285Y-77003628D01*
X128339285Y-77003628D02*
X127958333Y-77003628D01*
X128815476Y-76479819D02*
X129148809Y-77479819D01*
X129148809Y-77479819D02*
X129482142Y-76479819D01*
X130339285Y-77479819D02*
X129767857Y-77479819D01*
X130053571Y-77479819D02*
X130053571Y-76479819D01*
X130053571Y-76479819D02*
X129958333Y-76622676D01*
X129958333Y-76622676D02*
X129863095Y-76717914D01*
X129863095Y-76717914D02*
X129767857Y-76765533D01*
X149488095Y-85054819D02*
X149488095Y-85864342D01*
X149488095Y-85864342D02*
X149535714Y-85959580D01*
X149535714Y-85959580D02*
X149583333Y-86007200D01*
X149583333Y-86007200D02*
X149678571Y-86054819D01*
X149678571Y-86054819D02*
X149869047Y-86054819D01*
X149869047Y-86054819D02*
X149964285Y-86007200D01*
X149964285Y-86007200D02*
X150011904Y-85959580D01*
X150011904Y-85959580D02*
X150059523Y-85864342D01*
X150059523Y-85864342D02*
X150059523Y-85054819D01*
X150488095Y-85150057D02*
X150535714Y-85102438D01*
X150535714Y-85102438D02*
X150630952Y-85054819D01*
X150630952Y-85054819D02*
X150869047Y-85054819D01*
X150869047Y-85054819D02*
X150964285Y-85102438D01*
X150964285Y-85102438D02*
X151011904Y-85150057D01*
X151011904Y-85150057D02*
X151059523Y-85245295D01*
X151059523Y-85245295D02*
X151059523Y-85340533D01*
X151059523Y-85340533D02*
X151011904Y-85483390D01*
X151011904Y-85483390D02*
X150440476Y-86054819D01*
X150440476Y-86054819D02*
X151059523Y-86054819D01*
D12*
%TO.C,J1*%
X174130000Y-80850000D02*
X174130000Y-88530000D01*
X174130000Y-78250000D02*
X174130000Y-79580000D01*
X172800000Y-78250000D02*
X174130000Y-78250000D01*
X171470000Y-88530000D02*
X174130000Y-88530000D01*
X171470000Y-80850000D02*
X174130000Y-80850000D01*
X171470000Y-80850000D02*
X171470000Y-88530000D01*
%TO.C,R8*%
X136530000Y-104300000D02*
X137480000Y-104300000D01*
X142270000Y-104300000D02*
X141320000Y-104300000D01*
X137480000Y-103380000D02*
X141320000Y-103380000D01*
X141320000Y-105220000D01*
X137480000Y-105220000D01*
X137480000Y-103380000D01*
%TO.C,M1*%
X164790000Y-93605000D02*
X174830000Y-93605000D01*
X164790000Y-104005000D02*
X164790000Y-93605000D01*
X167810000Y-104005000D02*
X167810000Y-93605000D01*
X172710000Y-104005000D02*
X172710000Y-93605000D01*
X174210000Y-104005000D02*
X174210000Y-93605000D01*
X174830000Y-93605000D02*
X174830000Y-101045000D01*
X174830000Y-101645000D02*
X174830000Y-104005000D01*
X174830000Y-104005000D02*
X164790000Y-104005000D01*
X175440000Y-101785000D02*
X174830000Y-101345000D01*
X175440000Y-100905000D01*
X175440000Y-101785000D01*
G36*
X175440000Y-101785000D02*
G01*
X174830000Y-101345000D01*
X175440000Y-100905000D01*
X175440000Y-101785000D01*
G37*
%TO.C,SW1*%
X158850000Y-73375000D02*
X158850000Y-71992000D01*
X158850000Y-73375000D02*
X160233000Y-73375000D01*
X159090000Y-66315000D02*
X160400000Y-66315000D01*
X159090000Y-73135000D02*
X159090000Y-66315000D01*
X159090000Y-73135000D02*
X160400000Y-73135000D01*
X160565000Y-70328333D02*
X161835000Y-70328333D01*
X162000000Y-66315000D02*
X163310000Y-66315000D01*
X162000000Y-73135000D02*
X163310000Y-73135000D01*
X163310000Y-73135000D02*
X163310000Y-66315000D01*
X160565000Y-71535000D02*
X161835000Y-71535000D01*
X161835000Y-67915000D01*
X160565000Y-67915000D01*
X160565000Y-71535000D01*
X160565000Y-71535000D02*
X161835000Y-71535000D01*
X161835000Y-70328333D01*
X160565000Y-70328333D01*
X160565000Y-71535000D01*
G36*
X160565000Y-71535000D02*
G01*
X161835000Y-71535000D01*
X161835000Y-70328333D01*
X160565000Y-70328333D01*
X160565000Y-71535000D01*
G37*
%TO.C,D1*%
X159970000Y-80930000D02*
X165410000Y-80930000D01*
X159970000Y-81260000D02*
X159970000Y-80930000D01*
X159970000Y-83540000D02*
X159970000Y-83870000D01*
X159970000Y-83870000D02*
X165410000Y-83870000D01*
X160750000Y-80930000D02*
X160750000Y-83870000D01*
X160870000Y-80930000D02*
X160870000Y-83870000D01*
X160990000Y-80930000D02*
X160990000Y-83870000D01*
X165410000Y-80930000D02*
X165410000Y-81260000D01*
X165410000Y-83870000D02*
X165410000Y-83540000D01*
%TO.C,R7*%
X136530000Y-100228571D02*
X137480000Y-100228571D01*
X142270000Y-100228571D02*
X141320000Y-100228571D01*
X137480000Y-99308571D02*
X141320000Y-99308571D01*
X141320000Y-101148571D01*
X137480000Y-101148571D01*
X137480000Y-99308571D01*
%TO.C,R1*%
X136530000Y-75800000D02*
X137480000Y-75800000D01*
X142270000Y-75800000D02*
X141320000Y-75800000D01*
X137480000Y-74880000D02*
X141320000Y-74880000D01*
X141320000Y-76720000D01*
X137480000Y-76720000D01*
X137480000Y-74880000D01*
%TO.C,R4*%
X136530000Y-88014286D02*
X137480000Y-88014286D01*
X142270000Y-88014286D02*
X141320000Y-88014286D01*
X141320000Y-88934286D02*
X137480000Y-88934286D01*
X137480000Y-87094286D01*
X141320000Y-87094286D01*
X141320000Y-88934286D01*
%TO.C,D2*%
X125675000Y-95401000D02*
X125675000Y-95720000D01*
X125675000Y-97880000D02*
X125675000Y-98199000D01*
X125675000Y-95401251D02*
G75*
G02*
X129978591Y-95720000I2060000J-1398749D01*
G01*
X126051670Y-95720000D02*
G75*
G02*
X129418330Y-95720000I1683330J-1080000D01*
G01*
X129418330Y-97880000D02*
G75*
G02*
X126051670Y-97880000I-1683330J1080000D01*
G01*
X129978591Y-97880000D02*
G75*
G02*
X125675000Y-98198749I-2243591J1080000D01*
G01*
%TO.C,R3*%
X136530000Y-83942857D02*
X137480000Y-83942857D01*
X142270000Y-83942857D02*
X141320000Y-83942857D01*
X137480000Y-83022857D02*
X141320000Y-83022857D01*
X141320000Y-84862857D01*
X137480000Y-84862857D01*
X137480000Y-83022857D01*
%TO.C,R6*%
X136530000Y-96157143D02*
X137480000Y-96157143D01*
X142270000Y-96157143D02*
X141320000Y-96157143D01*
X137480000Y-95237143D02*
X141320000Y-95237143D01*
X141320000Y-97077143D01*
X137480000Y-97077143D01*
X137480000Y-95237143D01*
%TO.C,Q1*%
X155625000Y-86940000D02*
X155625000Y-88530000D01*
X156110000Y-89010000D02*
X159330000Y-89010000D01*
X159330000Y-89010000D02*
X159835000Y-88503950D01*
X159835000Y-88500000D02*
X159835000Y-86940000D01*
%TO.C,R5*%
X136530000Y-92085714D02*
X137480000Y-92085714D01*
X142270000Y-92085714D02*
X141320000Y-92085714D01*
X137480000Y-91165714D02*
X141320000Y-91165714D01*
X141320000Y-93005714D01*
X137480000Y-93005714D01*
X137480000Y-91165714D01*
%TO.C,Q2*%
X152060000Y-96250000D02*
X148460000Y-96250000D01*
X147935816Y-96977205D02*
G75*
G02*
X148460000Y-96250000I2324184J-1122795D01*
G01*
X150260000Y-100700000D02*
G75*
G02*
X147903600Y-99198807I0J2600000D01*
G01*
X152060000Y-96250000D02*
G75*
G02*
X152584184Y-96977205I-1800000J-1850000D01*
G01*
X152616400Y-99198807D02*
G75*
G02*
X150260000Y-100700000I-2356400J1098807D01*
G01*
%TO.C,Q3*%
X144677500Y-111549000D02*
X144677500Y-112311000D01*
X144677500Y-112311000D02*
X145058500Y-111930000D01*
X144817500Y-115740000D02*
X149617500Y-115740000D01*
X144817500Y-120930000D02*
X144817500Y-115740000D01*
X145058500Y-111930000D02*
X144677500Y-111549000D01*
X145312500Y-115740000D02*
X145312500Y-120947000D01*
X145947500Y-112950000D02*
X145947500Y-115740000D01*
X147217500Y-112950000D02*
X147217500Y-115740000D01*
X148487500Y-112950000D02*
X148487500Y-115740000D01*
X149122500Y-115740000D02*
X149122500Y-120947000D01*
X149617500Y-115740000D02*
X149617500Y-120930000D01*
X149617500Y-120930000D02*
X144817500Y-120930000D01*
%TO.C,R2*%
X136530000Y-79871429D02*
X137480000Y-79871429D01*
X142270000Y-79871429D02*
X141320000Y-79871429D01*
X141320000Y-80791429D02*
X137480000Y-80791429D01*
X137480000Y-78951429D01*
X141320000Y-78951429D01*
X141320000Y-80791429D01*
%TO.C,BZ1*%
X156600000Y-71275000D02*
G75*
G02*
X144400000Y-71275000I-6100000J0D01*
G01*
X144400000Y-71275000D02*
G75*
G02*
X156600000Y-71275000I6100000J0D01*
G01*
%TO.C,RV1*%
X133055000Y-82085000D02*
G75*
G02*
X125195000Y-82085000I-3930000J0D01*
G01*
X125195000Y-82085000D02*
G75*
G02*
X133055000Y-82085000I3930000J0D01*
G01*
%TO.C,U2*%
X148190000Y-86440000D02*
X152310000Y-86440000D01*
X148190000Y-86535000D02*
X148190000Y-86440000D01*
X148190000Y-91560000D02*
X148190000Y-91465000D01*
X152310000Y-86440000D02*
X152310000Y-86535000D01*
X152310000Y-91465000D02*
X152310000Y-91560000D01*
X152310000Y-91560000D02*
X148190000Y-91560000D01*
X147650000Y-86530000D02*
X147410000Y-86200000D01*
X147890000Y-86200000D01*
X147650000Y-86530000D01*
G36*
X147650000Y-86530000D02*
G01*
X147410000Y-86200000D01*
X147890000Y-86200000D01*
X147650000Y-86530000D01*
G37*
%TD*%
M02*
