%TF.GenerationSoftware,KiCad,Pcbnew,9.0.6*%
%TF.CreationDate,2025-12-24T19:30:20-05:00*%
%TF.ProjectId,tmp36 circuit,746d7033-3620-4636-9972-637569742e6b,rev?*%
%TF.SameCoordinates,Original*%
%TF.FileFunction,Copper,L1,Top*%
%TF.FilePolarity,Positive*%
%FSLAX46Y46*%
G04 Gerber Fmt 4.6, Leading zero omitted, Abs format (unit mm)*
G04 Created by KiCad (PCBNEW 9.0.6) date 2025-12-24 19:30:20*
%MOMM*%
%LPD*%
G01*
G04 APERTURE LIST*
G04 Aperture macros list*
%AMRoundRect*
0 Rectangle with rounded corners*
0 $1 Rounding radius*
0 $2 $3 $4 $5 $6 $7 $8 $9 X,Y pos of 4 corners*
0 Add a 4 corners polygon primitive as box body*
4,1,4,$2,$3,$4,$5,$6,$7,$8,$9,$2,$3,0*
0 Add four circle primitives for the rounded corners*
1,1,$1+$1,$2,$3*
1,1,$1+$1,$4,$5*
1,1,$1+$1,$6,$7*
1,1,$1+$1,$8,$9*
0 Add four rect primitives between the rounded corners*
20,1,$1+$1,$2,$3,$4,$5,0*
20,1,$1+$1,$4,$5,$6,$7,0*
20,1,$1+$1,$6,$7,$8,$9,0*
20,1,$1+$1,$8,$9,$2,$3,0*%
G04 Aperture macros list end*
%TA.AperFunction,ComponentPad*%
%ADD10C,1.700000*%
%TD*%
%TA.AperFunction,ComponentPad*%
%ADD11R,1.700000X1.700000*%
%TD*%
%TA.AperFunction,ComponentPad*%
%ADD12C,1.400000*%
%TD*%
%TA.AperFunction,ComponentPad*%
%ADD13RoundRect,0.250000X1.050000X-1.050000X1.050000X1.050000X-1.050000X1.050000X-1.050000X-1.050000X0*%
%TD*%
%TA.AperFunction,ComponentPad*%
%ADD14C,2.600000*%
%TD*%
%TA.AperFunction,SMDPad,CuDef*%
%ADD15RoundRect,0.250000X0.310000X-0.830000X0.310000X0.830000X-0.310000X0.830000X-0.310000X-0.830000X0*%
%TD*%
%TA.AperFunction,ComponentPad*%
%ADD16RoundRect,0.250000X-0.650000X-0.650000X0.650000X-0.650000X0.650000X0.650000X-0.650000X0.650000X0*%
%TD*%
%TA.AperFunction,ComponentPad*%
%ADD17C,1.800000*%
%TD*%
%TA.AperFunction,ComponentPad*%
%ADD18R,1.800000X1.800000*%
%TD*%
%TA.AperFunction,ComponentPad*%
%ADD19RoundRect,0.250000X0.275000X0.600000X-0.275000X0.600000X-0.275000X-0.600000X0.275000X-0.600000X0*%
%TD*%
%TA.AperFunction,ComponentPad*%
%ADD20O,1.050000X1.700000*%
%TD*%
%TA.AperFunction,ComponentPad*%
%ADD21R,1.500000X1.500000*%
%TD*%
%TA.AperFunction,ComponentPad*%
%ADD22C,1.500000*%
%TD*%
%TA.AperFunction,ComponentPad*%
%ADD23R,1.050000X1.500000*%
%TD*%
%TA.AperFunction,ComponentPad*%
%ADD24O,1.050000X1.500000*%
%TD*%
%TA.AperFunction,ComponentPad*%
%ADD25R,2.000000X2.000000*%
%TD*%
%TA.AperFunction,ComponentPad*%
%ADD26C,2.000000*%
%TD*%
%TA.AperFunction,ComponentPad*%
%ADD27C,1.750000*%
%TD*%
%TA.AperFunction,SMDPad,CuDef*%
%ADD28RoundRect,0.150000X-0.825000X-0.150000X0.825000X-0.150000X0.825000X0.150000X-0.825000X0.150000X0*%
%TD*%
%TA.AperFunction,ViaPad*%
%ADD29C,0.600000*%
%TD*%
%TA.AperFunction,Conductor*%
%ADD30C,0.200000*%
%TD*%
G04 APERTURE END LIST*
D10*
%TO.P,J1,4,Pin_4*%
%TO.N,GND*%
X172800000Y-87200000D03*
%TO.P,J1,3,Pin_3*%
%TO.N,+5V*%
X172800000Y-84660000D03*
%TO.P,J1,2,Pin_2*%
%TO.N,pot_out*%
X172800000Y-82120000D03*
D11*
%TO.P,J1,1,Pin_1*%
%TO.N,tmp36_out*%
X172800000Y-79580000D03*
%TD*%
D12*
%TO.P,R8,1*%
%TO.N,Net-(R8-Pad1)*%
X135590000Y-104300000D03*
%TO.P,R8,2*%
%TO.N,pot_out*%
X143210000Y-104300000D03*
%TD*%
D13*
%TO.P,M1,1,+*%
%TO.N,+5V*%
X170110000Y-101345000D03*
D14*
%TO.P,M1,2,-*%
%TO.N,Net-(D2-K)*%
X170110000Y-96265000D03*
%TD*%
D15*
%TO.P,SW1,1,A*%
%TO.N,unconnected-(SW1-A-Pad1)*%
X161200000Y-73090000D03*
%TO.P,SW1,2,B*%
%TO.N,+5V*%
X161200000Y-66360000D03*
%TD*%
D16*
%TO.P,D1,1,K*%
%TO.N,pot_out*%
X158880000Y-82400000D03*
D17*
%TO.P,D1,2,A*%
%TO.N,GND*%
X166500000Y-82400000D03*
%TD*%
D12*
%TO.P,R7,1*%
%TO.N,2out*%
X135590000Y-100228571D03*
%TO.P,R7,2*%
%TO.N,Net-(Q1-G)*%
X143210000Y-100228571D03*
%TD*%
%TO.P,R1,1*%
%TO.N,+5V*%
X135590000Y-75800000D03*
%TO.P,R1,2*%
%TO.N,vdr*%
X143210000Y-75800000D03*
%TD*%
%TO.P,R4,1*%
%TO.N,1out*%
X143210000Y-88014286D03*
%TO.P,R4,2*%
%TO.N,Net-(Q2-B)*%
X135590000Y-88014286D03*
%TD*%
D18*
%TO.P,D2,1,K*%
%TO.N,Net-(D2-K)*%
X126465000Y-96800000D03*
D17*
%TO.P,D2,2,A*%
%TO.N,Net-(D2-A)*%
X129005000Y-96800000D03*
%TD*%
D12*
%TO.P,R3,1*%
%TO.N,Net-(D2-A)*%
X135590000Y-83942857D03*
%TO.P,R3,2*%
%TO.N,+5V*%
X143210000Y-83942857D03*
%TD*%
%TO.P,R6,1*%
%TO.N,+5V*%
X135590000Y-96157143D03*
%TO.P,R6,2*%
%TO.N,2out*%
X143210000Y-96157143D03*
%TD*%
D19*
%TO.P,Q1,1,D*%
%TO.N,Net-(D2-K)*%
X156460000Y-87900000D03*
D20*
%TO.P,Q1,2,G*%
%TO.N,Net-(Q1-G)*%
X157730000Y-87900000D03*
%TO.P,Q1,3,S*%
%TO.N,GND*%
X159000000Y-87900000D03*
%TD*%
D12*
%TO.P,R5,1*%
%TO.N,+5V*%
X135590000Y-92085714D03*
%TO.P,R5,2*%
%TO.N,1out*%
X143210000Y-92085714D03*
%TD*%
D21*
%TO.P,Q2,1,C*%
%TO.N,Net-(BZ1--)*%
X152800000Y-98100000D03*
D22*
%TO.P,Q2,2,B*%
%TO.N,Net-(Q2-B)*%
X150260000Y-98100000D03*
%TO.P,Q2,3,E*%
%TO.N,GND*%
X147720000Y-98100000D03*
%TD*%
D23*
%TO.P,Q3,1,C*%
%TO.N,+5V*%
X145947500Y-111930000D03*
D24*
%TO.P,Q3,2,B*%
%TO.N,tmp36_out*%
X147217500Y-111930000D03*
%TO.P,Q3,3,E*%
%TO.N,GND*%
X148487500Y-111930000D03*
%TD*%
D12*
%TO.P,R2,1*%
%TO.N,vdr*%
X143210000Y-79871429D03*
%TO.P,R2,2*%
%TO.N,GND*%
X135590000Y-79871429D03*
%TD*%
D25*
%TO.P,BZ1,1,+*%
%TO.N,+5V*%
X146700000Y-71275000D03*
D26*
%TO.P,BZ1,2,-*%
%TO.N,Net-(BZ1--)*%
X154300000Y-71275000D03*
%TD*%
D27*
%TO.P,RV1,1,1*%
%TO.N,+5V*%
X129125000Y-84625000D03*
%TO.P,RV1,2,2*%
%TO.N,Net-(R8-Pad1)*%
X126585000Y-82085000D03*
%TO.P,RV1,3,3*%
%TO.N,GND*%
X129125000Y-79545000D03*
%TD*%
D28*
%TO.P,U2,1*%
%TO.N,1out*%
X147775000Y-87095000D03*
%TO.P,U2,2,-*%
%TO.N,vdr*%
X147775000Y-88365000D03*
%TO.P,U2,3,+*%
%TO.N,tmp36_out*%
X147775000Y-89635000D03*
%TO.P,U2,4,V-*%
%TO.N,GND*%
X147775000Y-90905000D03*
%TO.P,U2,5,+*%
%TO.N,tmp36_out*%
X152725000Y-90905000D03*
%TO.P,U2,6,-*%
%TO.N,pot_out*%
X152725000Y-89635000D03*
%TO.P,U2,7*%
%TO.N,2out*%
X152725000Y-88365000D03*
%TO.P,U2,8,V+*%
%TO.N,+5V*%
X152725000Y-87095000D03*
%TD*%
D29*
%TO.N,+5V*%
X147800000Y-81100000D03*
X145495021Y-82904979D03*
X149900000Y-75900000D03*
X134900000Y-90400000D03*
%TO.N,tmp36_out*%
X150800000Y-90300000D03*
X149800000Y-91100000D03*
X154700000Y-92400000D03*
X152100000Y-106400000D03*
%TD*%
D30*
%TO.N,1out*%
X143210000Y-88014286D02*
X144161714Y-88966000D01*
X149051000Y-88705968D02*
X149051000Y-87396001D01*
X143210000Y-88014286D02*
X143210000Y-92085714D01*
X148790968Y-88966000D02*
X149051000Y-88705968D01*
X144161714Y-88966000D02*
X148790968Y-88966000D01*
X148749999Y-87095000D02*
X147775000Y-87095000D01*
X149051000Y-87396001D02*
X148749999Y-87095000D01*
%TO.N,Net-(Q2-B)*%
X145246714Y-93086714D02*
X150260000Y-98100000D01*
X140662428Y-93086714D02*
X145246714Y-93086714D01*
X135590000Y-88014286D02*
X140662428Y-93086714D01*
%TO.N,+5V*%
X144457143Y-83942857D02*
X145495021Y-82904979D01*
X151615000Y-66360000D02*
X161200000Y-66360000D01*
X135590000Y-91090000D02*
X134900000Y-90400000D01*
X147800000Y-81100000D02*
X149900000Y-79000000D01*
X149900000Y-79000000D02*
X149900000Y-75900000D01*
X147800000Y-81100000D02*
X147800000Y-82170000D01*
X143210000Y-83942857D02*
X144457143Y-83942857D01*
X135590000Y-92085714D02*
X135590000Y-91090000D01*
X147800000Y-82170000D02*
X152725000Y-87095000D01*
X146700000Y-71275000D02*
X151615000Y-66360000D01*
%TO.N,GND*%
X151311000Y-98535339D02*
X150695339Y-99151000D01*
X148771000Y-99151000D02*
X147720000Y-98100000D01*
X147775000Y-90905000D02*
X151311000Y-94441000D01*
X150695339Y-99151000D02*
X148771000Y-99151000D01*
X151311000Y-94441000D02*
X151311000Y-98535339D01*
%TO.N,tmp36_out*%
X155949840Y-86749000D02*
X155500000Y-87198840D01*
X153699999Y-90905000D02*
X152725000Y-90905000D01*
X150000000Y-91100000D02*
X150800000Y-90300000D01*
X149800000Y-91100000D02*
X148335000Y-89635000D01*
X147217500Y-111930000D02*
X147217500Y-111282500D01*
X154700000Y-92400000D02*
X154220000Y-92400000D01*
X155500000Y-87198840D02*
X155500000Y-89104999D01*
X165120000Y-79580000D02*
X157951000Y-86749000D01*
X149800000Y-91100000D02*
X150000000Y-91100000D01*
X154220000Y-92400000D02*
X152725000Y-90905000D01*
X148335000Y-89635000D02*
X147775000Y-89635000D01*
X157951000Y-86749000D02*
X155949840Y-86749000D01*
X155500000Y-89104999D02*
X153699999Y-90905000D01*
X147217500Y-111282500D02*
X152100000Y-106400000D01*
X172800000Y-79580000D02*
X165120000Y-79580000D01*
%TO.N,Net-(Q1-G)*%
X172323240Y-83271000D02*
X171649000Y-82596760D01*
X174352000Y-78262900D02*
X174352000Y-81135100D01*
X135175372Y-101229571D02*
X132400000Y-98454199D01*
X173951000Y-82596760D02*
X173276760Y-83271000D01*
X142629272Y-74398000D02*
X159054900Y-74398000D01*
X173897430Y-81589670D02*
X173951000Y-81643240D01*
X159054900Y-74398000D02*
X162684900Y-78028000D01*
X139987714Y-86612286D02*
X139999000Y-86601000D01*
X139999000Y-86601000D02*
X139999000Y-77028272D01*
X132400000Y-89221558D02*
X135009272Y-86612286D01*
X171649000Y-80551000D02*
X164200000Y-88000000D01*
X157730000Y-88630000D02*
X157730000Y-87900000D01*
X164200000Y-89600000D02*
X158700000Y-89600000D01*
X132400000Y-98454199D02*
X132400000Y-89221558D01*
X158700000Y-89600000D02*
X157730000Y-88630000D01*
X171649000Y-82596760D02*
X171649000Y-80551000D01*
X142209000Y-101229571D02*
X135175372Y-101229571D01*
X173276760Y-83271000D02*
X172323240Y-83271000D01*
X174352000Y-81135100D02*
X173897430Y-81589670D01*
X135009272Y-86612286D02*
X139987714Y-86612286D01*
X164200000Y-88000000D02*
X164200000Y-89600000D01*
X162684900Y-78028000D02*
X174117100Y-78028000D01*
X173951000Y-81643240D02*
X173951000Y-82596760D01*
X174117100Y-78028000D02*
X174352000Y-78262900D01*
X139999000Y-77028272D02*
X142629272Y-74398000D01*
X143210000Y-100228571D02*
X142209000Y-101229571D01*
%TO.N,2out*%
X134589000Y-88428914D02*
X142317229Y-96157143D01*
X140400000Y-87013286D02*
X135175372Y-87013286D01*
X143624628Y-74799000D02*
X142795372Y-74799000D01*
X144211000Y-80205329D02*
X144211000Y-75385372D01*
X139138572Y-100228571D02*
X143210000Y-96157143D01*
X135175372Y-87013286D02*
X134589000Y-87599658D01*
X134589000Y-87599658D02*
X134589000Y-88428914D01*
X135590000Y-100228571D02*
X139138572Y-100228571D01*
X144211000Y-75385372D02*
X143624628Y-74799000D01*
X140400000Y-77194372D02*
X140400000Y-87013286D01*
X152370671Y-88365000D02*
X144211000Y-80205329D01*
X142317229Y-96157143D02*
X143210000Y-96157143D01*
X152725000Y-88365000D02*
X152370671Y-88365000D01*
X142795372Y-74799000D02*
X140400000Y-77194372D01*
%TO.N,pot_out*%
X154100000Y-104300000D02*
X155800000Y-102600000D01*
X151449000Y-90564032D02*
X152378032Y-89635000D01*
X155800000Y-95596968D02*
X151449000Y-91245968D01*
X153699999Y-89635000D02*
X152725000Y-89635000D01*
X173951000Y-78429000D02*
X162851000Y-78429000D01*
X155099000Y-88235999D02*
X153699999Y-89635000D01*
X155099000Y-86181000D02*
X155099000Y-88235999D01*
X152378032Y-89635000D02*
X152725000Y-89635000D01*
X173951000Y-80969000D02*
X173951000Y-78429000D01*
X143210000Y-104300000D02*
X154100000Y-104300000D01*
X172800000Y-82120000D02*
X173951000Y-80969000D01*
X158880000Y-82400000D02*
X155099000Y-86181000D01*
X162851000Y-78429000D02*
X158880000Y-82400000D01*
X151449000Y-91245968D02*
X151449000Y-90564032D01*
X155800000Y-102600000D02*
X155800000Y-95596968D01*
%TO.N,Net-(D2-K)*%
X156460000Y-88750000D02*
X156460000Y-87900000D01*
X126465000Y-96800000D02*
X134966000Y-105301000D01*
X134966000Y-105301000D02*
X161074000Y-105301000D01*
X161074000Y-105301000D02*
X170110000Y-96265000D01*
X170110000Y-96265000D02*
X163975000Y-96265000D01*
X163975000Y-96265000D02*
X156460000Y-88750000D01*
%TO.N,Net-(D2-A)*%
X135590000Y-83942857D02*
X133057143Y-83942857D01*
X129005000Y-87995000D02*
X129005000Y-96800000D01*
X133057143Y-83942857D02*
X129005000Y-87995000D01*
%TO.N,vdr*%
X143310000Y-79871429D02*
X146499000Y-83060429D01*
X146499000Y-87435968D02*
X147428032Y-88365000D01*
X147428032Y-88365000D02*
X147775000Y-88365000D01*
X143310000Y-75800000D02*
X143310000Y-79871429D01*
X146499000Y-83060429D02*
X146499000Y-87435968D01*
%TO.N,Net-(R8-Pad1)*%
X135590000Y-104300000D02*
X134600051Y-104300000D01*
X127666000Y-97365949D02*
X127666000Y-83166000D01*
X127666000Y-83166000D02*
X126585000Y-82085000D01*
X134600051Y-104300000D02*
X127666000Y-97365949D01*
%TO.N,Net-(BZ1--)*%
X151578000Y-73997000D02*
X142463172Y-73997000D01*
X149269429Y-101630571D02*
X152800000Y-98100000D01*
X154300000Y-71275000D02*
X151578000Y-73997000D01*
X131200000Y-97821299D02*
X135009272Y-101630571D01*
X136188714Y-86211286D02*
X134843172Y-86211286D01*
X135009272Y-101630571D02*
X149269429Y-101630571D01*
X139598000Y-76862172D02*
X139598000Y-82802000D01*
X142463172Y-73997000D02*
X139598000Y-76862172D01*
X131200000Y-89854458D02*
X131200000Y-97821299D01*
X139598000Y-82802000D02*
X136188714Y-86211286D01*
X134843172Y-86211286D02*
X131200000Y-89854458D01*
%TD*%
%TA.AperFunction,Conductor*%
%TO.N,+5V*%
G36*
X160435992Y-64720185D02*
G01*
X160481747Y-64772989D01*
X160491691Y-64842147D01*
X160462666Y-64905703D01*
X160434049Y-64930039D01*
X160421656Y-64937682D01*
X160297684Y-65061654D01*
X160205643Y-65210875D01*
X160205641Y-65210880D01*
X160150494Y-65377302D01*
X160150493Y-65377309D01*
X160140000Y-65480013D01*
X160140000Y-66110000D01*
X162259999Y-66110000D01*
X162259999Y-65480028D01*
X162259998Y-65480013D01*
X162249505Y-65377302D01*
X162194358Y-65210880D01*
X162194356Y-65210875D01*
X162102315Y-65061654D01*
X161978343Y-64937682D01*
X161965951Y-64930039D01*
X161919226Y-64878092D01*
X161908003Y-64809129D01*
X161935846Y-64745047D01*
X161993915Y-64706190D01*
X162031047Y-64700500D01*
X170734108Y-64700500D01*
X170797294Y-64700500D01*
X170802702Y-64700617D01*
X171186771Y-64717386D01*
X171197506Y-64718326D01*
X171575971Y-64768152D01*
X171586597Y-64770025D01*
X171959284Y-64852648D01*
X171969710Y-64855442D01*
X172333765Y-64970227D01*
X172343911Y-64973920D01*
X172696578Y-65120000D01*
X172706369Y-65124566D01*
X172872177Y-65210880D01*
X173044942Y-65300816D01*
X173054310Y-65306224D01*
X173376244Y-65511318D01*
X173385105Y-65517523D01*
X173687930Y-65749889D01*
X173696217Y-65756843D01*
X173977635Y-66014715D01*
X173985284Y-66022364D01*
X174243156Y-66303782D01*
X174250110Y-66312069D01*
X174482476Y-66614894D01*
X174488681Y-66623755D01*
X174693775Y-66945689D01*
X174699183Y-66955057D01*
X174875430Y-67293623D01*
X174880002Y-67303427D01*
X175026075Y-67656078D01*
X175029775Y-67666244D01*
X175144554Y-68030278D01*
X175147354Y-68040727D01*
X175229971Y-68413389D01*
X175231849Y-68424042D01*
X175281671Y-68802473D01*
X175282614Y-68813249D01*
X175299382Y-69197297D01*
X175299500Y-69202706D01*
X175299500Y-111797293D01*
X175299382Y-111802702D01*
X175282614Y-112186750D01*
X175281671Y-112197526D01*
X175231849Y-112575957D01*
X175229971Y-112586610D01*
X175147354Y-112959272D01*
X175144554Y-112969721D01*
X175029775Y-113333755D01*
X175026075Y-113343921D01*
X174880002Y-113696572D01*
X174875430Y-113706376D01*
X174699183Y-114044942D01*
X174693775Y-114054310D01*
X174488681Y-114376244D01*
X174482476Y-114385105D01*
X174250110Y-114687930D01*
X174243156Y-114696217D01*
X173985284Y-114977635D01*
X173977635Y-114985284D01*
X173696217Y-115243156D01*
X173687930Y-115250110D01*
X173385105Y-115482476D01*
X173376244Y-115488681D01*
X173054310Y-115693775D01*
X173044942Y-115699183D01*
X172706376Y-115875430D01*
X172696572Y-115880002D01*
X172343921Y-116026075D01*
X172333755Y-116029775D01*
X171969721Y-116144554D01*
X171959272Y-116147354D01*
X171586610Y-116229971D01*
X171575957Y-116231849D01*
X171197526Y-116281671D01*
X171186750Y-116282614D01*
X170802703Y-116299382D01*
X170797294Y-116299500D01*
X129402706Y-116299500D01*
X129397297Y-116299382D01*
X129013249Y-116282614D01*
X129002473Y-116281671D01*
X128624042Y-116231849D01*
X128613389Y-116229971D01*
X128240727Y-116147354D01*
X128230278Y-116144554D01*
X127866244Y-116029775D01*
X127856078Y-116026075D01*
X127503427Y-115880002D01*
X127493623Y-115875430D01*
X127155057Y-115699183D01*
X127145689Y-115693775D01*
X126823755Y-115488681D01*
X126814894Y-115482476D01*
X126512069Y-115250110D01*
X126503782Y-115243156D01*
X126222364Y-114985284D01*
X126214715Y-114977635D01*
X125956843Y-114696217D01*
X125949889Y-114687930D01*
X125717523Y-114385105D01*
X125711318Y-114376244D01*
X125506224Y-114054310D01*
X125500816Y-114044942D01*
X125324569Y-113706376D01*
X125319997Y-113696572D01*
X125228426Y-113475500D01*
X125173920Y-113343911D01*
X125170224Y-113333755D01*
X125055442Y-112969710D01*
X125052648Y-112959284D01*
X124970025Y-112586597D01*
X124968152Y-112575971D01*
X124918326Y-112197506D01*
X124917386Y-112186771D01*
X124900618Y-111802702D01*
X124900500Y-111797293D01*
X124900500Y-110570528D01*
X127524500Y-110570528D01*
X127524500Y-110879471D01*
X127559086Y-111186437D01*
X127559089Y-111186455D01*
X127627831Y-111487635D01*
X127627835Y-111487647D01*
X127729862Y-111779222D01*
X127729868Y-111779236D01*
X127863903Y-112057562D01*
X127863905Y-112057565D01*
X128028265Y-112319143D01*
X128220880Y-112560674D01*
X128439326Y-112779120D01*
X128680857Y-112971735D01*
X128942435Y-113136095D01*
X129220771Y-113270135D01*
X129220777Y-113270137D01*
X129512352Y-113372164D01*
X129512364Y-113372168D01*
X129813548Y-113440911D01*
X129813554Y-113440911D01*
X129813562Y-113440913D01*
X130018206Y-113463970D01*
X130120529Y-113475499D01*
X130120532Y-113475500D01*
X130120535Y-113475500D01*
X130429468Y-113475500D01*
X130429469Y-113475499D01*
X130586356Y-113457822D01*
X130736437Y-113440913D01*
X130736442Y-113440912D01*
X130736452Y-113440911D01*
X131037636Y-113372168D01*
X131329229Y-113270135D01*
X131607565Y-113136095D01*
X131869143Y-112971735D01*
X132110674Y-112779120D01*
X132329120Y-112560674D01*
X132521735Y-112319143D01*
X132686095Y-112057565D01*
X132820135Y-111779229D01*
X132922168Y-111487636D01*
X132990911Y-111186452D01*
X132997029Y-111132155D01*
X132998966Y-111114967D01*
X132998966Y-111114966D01*
X133014964Y-110972972D01*
X133025500Y-110879465D01*
X133025500Y-110570535D01*
X132990911Y-110263548D01*
X132922168Y-109962364D01*
X132820135Y-109670771D01*
X132686095Y-109392435D01*
X132521735Y-109130857D01*
X132329120Y-108889326D01*
X132110674Y-108670880D01*
X131869143Y-108478265D01*
X131607565Y-108313905D01*
X131607562Y-108313903D01*
X131329236Y-108179868D01*
X131329222Y-108179862D01*
X131037647Y-108077835D01*
X131037635Y-108077831D01*
X130736455Y-108009089D01*
X130736437Y-108009086D01*
X130429471Y-107974500D01*
X130429465Y-107974500D01*
X130120535Y-107974500D01*
X130120528Y-107974500D01*
X129813562Y-108009086D01*
X129813544Y-108009089D01*
X129512364Y-108077831D01*
X129512352Y-108077835D01*
X129220777Y-108179862D01*
X129220763Y-108179868D01*
X128942437Y-108313903D01*
X128680858Y-108478264D01*
X128439326Y-108670879D01*
X128220879Y-108889326D01*
X128028264Y-109130858D01*
X127863903Y-109392437D01*
X127729868Y-109670763D01*
X127729862Y-109670777D01*
X127627835Y-109962352D01*
X127627831Y-109962364D01*
X127559089Y-110263544D01*
X127559086Y-110263562D01*
X127524500Y-110570528D01*
X124900500Y-110570528D01*
X124900500Y-98020065D01*
X124920185Y-97953026D01*
X124972989Y-97907271D01*
X125042147Y-97897327D01*
X125105703Y-97926352D01*
X125123764Y-97945751D01*
X125207454Y-98057546D01*
X125244770Y-98085481D01*
X125322664Y-98143793D01*
X125322671Y-98143797D01*
X125457517Y-98194091D01*
X125457516Y-98194091D01*
X125464444Y-98194835D01*
X125517127Y-98200500D01*
X126964902Y-98200499D01*
X127031941Y-98220184D01*
X127052583Y-98236818D01*
X134481139Y-105665374D01*
X134481149Y-105665385D01*
X134485479Y-105669715D01*
X134485480Y-105669716D01*
X134597284Y-105781520D01*
X134597286Y-105781521D01*
X134597290Y-105781524D01*
X134734209Y-105860573D01*
X134734216Y-105860577D01*
X134842946Y-105889711D01*
X134886942Y-105901500D01*
X134886943Y-105901500D01*
X151254451Y-105901500D01*
X151321490Y-105921185D01*
X151367245Y-105973989D01*
X151377189Y-106043147D01*
X151369012Y-106072952D01*
X151330264Y-106166498D01*
X151330261Y-106166508D01*
X151299362Y-106321848D01*
X151266977Y-106383759D01*
X151265426Y-106385337D01*
X146958829Y-110691934D01*
X146951897Y-110696565D01*
X146948954Y-110700805D01*
X146918601Y-110718814D01*
X146837162Y-110752547D01*
X146767692Y-110760016D01*
X146722640Y-110740405D01*
X146722372Y-110740897D01*
X146716874Y-110737894D01*
X146715395Y-110737251D01*
X146714586Y-110736645D01*
X146579879Y-110686403D01*
X146579872Y-110686401D01*
X146520344Y-110680000D01*
X146197500Y-110680000D01*
X146197500Y-111564134D01*
X146195117Y-111588326D01*
X146192000Y-111603995D01*
X146192000Y-111644170D01*
X146177755Y-111629925D01*
X146092245Y-111580556D01*
X145996870Y-111555000D01*
X145898130Y-111555000D01*
X145802755Y-111580556D01*
X145717245Y-111629925D01*
X145697500Y-111649670D01*
X145697500Y-110680000D01*
X145374655Y-110680000D01*
X145315127Y-110686401D01*
X145315120Y-110686403D01*
X145180413Y-110736645D01*
X145180406Y-110736649D01*
X145065312Y-110822809D01*
X145065309Y-110822812D01*
X144979149Y-110937906D01*
X144979145Y-110937913D01*
X144928903Y-111072620D01*
X144928901Y-111072627D01*
X144922500Y-111132155D01*
X144922500Y-111680000D01*
X145667170Y-111680000D01*
X145647425Y-111699745D01*
X145598056Y-111785255D01*
X145572500Y-111880630D01*
X145572500Y-111979370D01*
X145598056Y-112074745D01*
X145647425Y-112160255D01*
X145667170Y-112180000D01*
X144922500Y-112180000D01*
X144922500Y-112727844D01*
X144928901Y-112787372D01*
X144928903Y-112787379D01*
X144979145Y-112922086D01*
X144979149Y-112922093D01*
X145065309Y-113037187D01*
X145065312Y-113037190D01*
X145180406Y-113123350D01*
X145180413Y-113123354D01*
X145315120Y-113173596D01*
X145315127Y-113173598D01*
X145374655Y-113179999D01*
X145374672Y-113180000D01*
X145697500Y-113180000D01*
X145697500Y-112210330D01*
X145717245Y-112230075D01*
X145802755Y-112279444D01*
X145898130Y-112305000D01*
X145996870Y-112305000D01*
X146092245Y-112279444D01*
X146177755Y-112230075D01*
X146192000Y-112215830D01*
X146192000Y-112256002D01*
X146195117Y-112271671D01*
X146197500Y-112295865D01*
X146197500Y-113180000D01*
X146520328Y-113180000D01*
X146520344Y-113179999D01*
X146579872Y-113173598D01*
X146579876Y-113173597D01*
X146714589Y-113123352D01*
X146715396Y-113122748D01*
X146716345Y-113122393D01*
X146722376Y-113119101D01*
X146722849Y-113119967D01*
X146780860Y-113098329D01*
X146837161Y-113107451D01*
X146918373Y-113141091D01*
X147081788Y-113173596D01*
X147116492Y-113180499D01*
X147116496Y-113180500D01*
X147116497Y-113180500D01*
X147318504Y-113180500D01*
X147318505Y-113180499D01*
X147516627Y-113141091D01*
X147703256Y-113063786D01*
X147783610Y-113010094D01*
X147850286Y-112989217D01*
X147917666Y-113007701D01*
X147921365Y-113010078D01*
X148001744Y-113063786D01*
X148188373Y-113141091D01*
X148351788Y-113173596D01*
X148386492Y-113180499D01*
X148386496Y-113180500D01*
X148386497Y-113180500D01*
X148588504Y-113180500D01*
X148588505Y-113180499D01*
X148786627Y-113141091D01*
X148973256Y-113063786D01*
X149141218Y-112951558D01*
X149284058Y-112808718D01*
X149396286Y-112640756D01*
X149473591Y-112454127D01*
X149513000Y-112256003D01*
X149513000Y-111603997D01*
X149473591Y-111405873D01*
X149396286Y-111219244D01*
X149396284Y-111219241D01*
X149396282Y-111219237D01*
X149284058Y-111051281D01*
X149141218Y-110908441D01*
X148973262Y-110796217D01*
X148973252Y-110796212D01*
X148847557Y-110744147D01*
X148822009Y-110723559D01*
X148795743Y-110703896D01*
X148794941Y-110701746D01*
X148793154Y-110700306D01*
X148782792Y-110669175D01*
X148771326Y-110638432D01*
X148771813Y-110636189D01*
X148771089Y-110634011D01*
X148779205Y-110602209D01*
X148786098Y-110570528D01*
X167474500Y-110570528D01*
X167474500Y-110879471D01*
X167509086Y-111186437D01*
X167509089Y-111186455D01*
X167577831Y-111487635D01*
X167577835Y-111487647D01*
X167679862Y-111779222D01*
X167679868Y-111779236D01*
X167813903Y-112057562D01*
X167813905Y-112057565D01*
X167978265Y-112319143D01*
X168170880Y-112560674D01*
X168389326Y-112779120D01*
X168630857Y-112971735D01*
X168892435Y-113136095D01*
X169170771Y-113270135D01*
X169170777Y-113270137D01*
X169462352Y-113372164D01*
X169462364Y-113372168D01*
X169763548Y-113440911D01*
X169763554Y-113440911D01*
X169763562Y-113440913D01*
X169968206Y-113463970D01*
X170070529Y-113475499D01*
X170070532Y-113475500D01*
X170070535Y-113475500D01*
X170379468Y-113475500D01*
X170379469Y-113475499D01*
X170536356Y-113457822D01*
X170686437Y-113440913D01*
X170686442Y-113440912D01*
X170686452Y-113440911D01*
X170987636Y-113372168D01*
X171279229Y-113270135D01*
X171557565Y-113136095D01*
X171819143Y-112971735D01*
X172060674Y-112779120D01*
X172279120Y-112560674D01*
X172471735Y-112319143D01*
X172636095Y-112057565D01*
X172770135Y-111779229D01*
X172872168Y-111487636D01*
X172940911Y-111186452D01*
X172940912Y-111186442D01*
X172940913Y-111186437D01*
X172957822Y-111036356D01*
X172975500Y-110879465D01*
X172975500Y-110570535D01*
X172940911Y-110263548D01*
X172872168Y-109962364D01*
X172770135Y-109670771D01*
X172636095Y-109392435D01*
X172471735Y-109130857D01*
X172279120Y-108889326D01*
X172060674Y-108670880D01*
X171819143Y-108478265D01*
X171557565Y-108313905D01*
X171557562Y-108313903D01*
X171279236Y-108179868D01*
X171279222Y-108179862D01*
X170987647Y-108077835D01*
X170987635Y-108077831D01*
X170686455Y-108009089D01*
X170686437Y-108009086D01*
X170379471Y-107974500D01*
X170379465Y-107974500D01*
X170070535Y-107974500D01*
X170070528Y-107974500D01*
X169763562Y-108009086D01*
X169763544Y-108009089D01*
X169462364Y-108077831D01*
X169462352Y-108077835D01*
X169170777Y-108179862D01*
X169170763Y-108179868D01*
X168892437Y-108313903D01*
X168630858Y-108478264D01*
X168389326Y-108670879D01*
X168170879Y-108889326D01*
X167978264Y-109130858D01*
X167813903Y-109392437D01*
X167679868Y-109670763D01*
X167679862Y-109670777D01*
X167577835Y-109962352D01*
X167577831Y-109962364D01*
X167509089Y-110263544D01*
X167509086Y-110263562D01*
X167474500Y-110570528D01*
X148786098Y-110570528D01*
X148786178Y-110570159D01*
X148788011Y-110567710D01*
X148788368Y-110566312D01*
X148807325Y-110541909D01*
X152114664Y-107234571D01*
X152175985Y-107201088D01*
X152178152Y-107200637D01*
X152178841Y-107200500D01*
X152178842Y-107200500D01*
X152333497Y-107169737D01*
X152479179Y-107109394D01*
X152610289Y-107021789D01*
X152721789Y-106910289D01*
X152809394Y-106779179D01*
X152869737Y-106633497D01*
X152900500Y-106478842D01*
X152900500Y-106321158D01*
X152900500Y-106321155D01*
X152900499Y-106321153D01*
X152869738Y-106166510D01*
X152869738Y-106166508D01*
X152869737Y-106166503D01*
X152869735Y-106166498D01*
X152830988Y-106072952D01*
X152823519Y-106003482D01*
X152854795Y-105941003D01*
X152914884Y-105905352D01*
X152945549Y-105901500D01*
X160987331Y-105901500D01*
X160987347Y-105901501D01*
X160994943Y-105901501D01*
X161153054Y-105901501D01*
X161153057Y-105901501D01*
X161305785Y-105860577D01*
X161369943Y-105823535D01*
X161442716Y-105781520D01*
X161554520Y-105669716D01*
X161554520Y-105669714D01*
X161564724Y-105659511D01*
X161564727Y-105659506D01*
X166979221Y-100245013D01*
X168310000Y-100245013D01*
X168310000Y-101095000D01*
X169509999Y-101095000D01*
X169484979Y-101155402D01*
X169460000Y-101280981D01*
X169460000Y-101409019D01*
X169484979Y-101534598D01*
X169509999Y-101595000D01*
X168310001Y-101595000D01*
X168310001Y-102444986D01*
X168320494Y-102547697D01*
X168375641Y-102714119D01*
X168375643Y-102714124D01*
X168467684Y-102863345D01*
X168591654Y-102987315D01*
X168740875Y-103079356D01*
X168740880Y-103079358D01*
X168907302Y-103134505D01*
X168907309Y-103134506D01*
X169010019Y-103144999D01*
X169859999Y-103144999D01*
X169860000Y-103144998D01*
X169860000Y-101945001D01*
X169920402Y-101970021D01*
X170045981Y-101995000D01*
X170174019Y-101995000D01*
X170299598Y-101970021D01*
X170360000Y-101945001D01*
X170360000Y-103144999D01*
X171209972Y-103144999D01*
X171209986Y-103144998D01*
X171312697Y-103134505D01*
X171479119Y-103079358D01*
X171479124Y-103079356D01*
X171628345Y-102987315D01*
X171752315Y-102863345D01*
X171844356Y-102714124D01*
X171844358Y-102714119D01*
X171899505Y-102547697D01*
X171899506Y-102547690D01*
X171909999Y-102444986D01*
X171910000Y-102444973D01*
X171910000Y-101595000D01*
X170710001Y-101595000D01*
X170735021Y-101534598D01*
X170760000Y-101409019D01*
X170760000Y-101280981D01*
X170735021Y-101155402D01*
X170710001Y-101095000D01*
X171909999Y-101095000D01*
X171909999Y-100245028D01*
X171909998Y-100245013D01*
X171899505Y-100142302D01*
X171844358Y-99975880D01*
X171844356Y-99975875D01*
X171752315Y-99826654D01*
X171628345Y-99702684D01*
X171479124Y-99610643D01*
X171479119Y-99610641D01*
X171312697Y-99555494D01*
X171312690Y-99555493D01*
X171209986Y-99545000D01*
X170360000Y-99545000D01*
X170360000Y-100744998D01*
X170299598Y-100719979D01*
X170174019Y-100695000D01*
X170045981Y-100695000D01*
X169920402Y-100719979D01*
X169860000Y-100744998D01*
X169860000Y-99545000D01*
X169010028Y-99545000D01*
X169010012Y-99545001D01*
X168907302Y-99555494D01*
X168740880Y-99610641D01*
X168740875Y-99610643D01*
X168591654Y-99702684D01*
X168467684Y-99826654D01*
X168375643Y-99975875D01*
X168375641Y-99975880D01*
X168320494Y-100142302D01*
X168320493Y-100142309D01*
X168310000Y-100245013D01*
X166979221Y-100245013D01*
X169273872Y-97950362D01*
X169335193Y-97916879D01*
X169404885Y-97921863D01*
X169408962Y-97923467D01*
X169530007Y-97973606D01*
X169757986Y-98034693D01*
X169991989Y-98065500D01*
X169991996Y-98065500D01*
X170228004Y-98065500D01*
X170228011Y-98065500D01*
X170462014Y-98034693D01*
X170689993Y-97973606D01*
X170908049Y-97883284D01*
X171112450Y-97765273D01*
X171299699Y-97621592D01*
X171466592Y-97454699D01*
X171610273Y-97267450D01*
X171728284Y-97063049D01*
X171818606Y-96844993D01*
X171879693Y-96617014D01*
X171910500Y-96383011D01*
X171910500Y-96146989D01*
X171879693Y-95912986D01*
X171818606Y-95685007D01*
X171728284Y-95466951D01*
X171728282Y-95466948D01*
X171728280Y-95466943D01*
X171669527Y-95365181D01*
X171610273Y-95262550D01*
X171466592Y-95075301D01*
X171466587Y-95075295D01*
X171299704Y-94908412D01*
X171299697Y-94908406D01*
X171112454Y-94764730D01*
X171112453Y-94764729D01*
X171112450Y-94764727D01*
X171025868Y-94714739D01*
X170908056Y-94646719D01*
X170908045Y-94646714D01*
X170689993Y-94556394D01*
X170462010Y-94495306D01*
X170228020Y-94464501D01*
X170228017Y-94464500D01*
X170228011Y-94464500D01*
X169991989Y-94464500D01*
X169991983Y-94464500D01*
X169991979Y-94464501D01*
X169757989Y-94495306D01*
X169530006Y-94556394D01*
X169311954Y-94646714D01*
X169311943Y-94646719D01*
X169107545Y-94764730D01*
X168920302Y-94908406D01*
X168920295Y-94908412D01*
X168753412Y-95075295D01*
X168753406Y-95075302D01*
X168609730Y-95262545D01*
X168491719Y-95466943D01*
X168491714Y-95466954D01*
X168441595Y-95587953D01*
X168397754Y-95642356D01*
X168331460Y-95664421D01*
X168327034Y-95664500D01*
X164275097Y-95664500D01*
X164208058Y-95644815D01*
X164187416Y-95628181D01*
X158971416Y-90412181D01*
X158937931Y-90350858D01*
X158942915Y-90281166D01*
X158984787Y-90225233D01*
X159050251Y-90200816D01*
X159059097Y-90200500D01*
X164279055Y-90200500D01*
X164279057Y-90200500D01*
X164431784Y-90159577D01*
X164568716Y-90080520D01*
X164680520Y-89968716D01*
X164759577Y-89831784D01*
X164800500Y-89679057D01*
X164800500Y-88300097D01*
X164820185Y-88233058D01*
X164836819Y-88212416D01*
X170836819Y-82212416D01*
X170856255Y-82201803D01*
X170872989Y-82187303D01*
X170886320Y-82185386D01*
X170898142Y-82178931D01*
X170920228Y-82180510D01*
X170942147Y-82177359D01*
X170954398Y-82182954D01*
X170967834Y-82183915D01*
X170985560Y-82197185D01*
X171005703Y-82206384D01*
X171012985Y-82217715D01*
X171023767Y-82225787D01*
X171031504Y-82246532D01*
X171043477Y-82265162D01*
X171046628Y-82287080D01*
X171048184Y-82291251D01*
X171048500Y-82300097D01*
X171048500Y-82510090D01*
X171048499Y-82510108D01*
X171048499Y-82675814D01*
X171048498Y-82675814D01*
X171048499Y-82675816D01*
X171048499Y-82675817D01*
X171089423Y-82828545D01*
X171089424Y-82828547D01*
X171089423Y-82828547D01*
X171095288Y-82838704D01*
X171095289Y-82838705D01*
X171168477Y-82965472D01*
X171168481Y-82965477D01*
X171287349Y-83084345D01*
X171287355Y-83084350D01*
X171838379Y-83635374D01*
X171838389Y-83635385D01*
X171842719Y-83639715D01*
X171842720Y-83639716D01*
X171954524Y-83751520D01*
X171954526Y-83751521D01*
X171954530Y-83751524D01*
X172051939Y-83807762D01*
X172091456Y-83830577D01*
X172197868Y-83859090D01*
X172197867Y-83859090D01*
X172207654Y-83861712D01*
X172244182Y-83871500D01*
X172244183Y-83871500D01*
X172313692Y-83871500D01*
X172380731Y-83891185D01*
X172401373Y-83907819D01*
X172670591Y-84177037D01*
X172607007Y-84194075D01*
X172492993Y-84259901D01*
X172399901Y-84352993D01*
X172334075Y-84467007D01*
X172317037Y-84530590D01*
X171684728Y-83898282D01*
X171684727Y-83898282D01*
X171645380Y-83952439D01*
X171548904Y-84141782D01*
X171483242Y-84343869D01*
X171483242Y-84343872D01*
X171450000Y-84553753D01*
X171450000Y-84766246D01*
X171483242Y-84976127D01*
X171483242Y-84976130D01*
X171548904Y-85178217D01*
X171645375Y-85367550D01*
X171684728Y-85421716D01*
X172317037Y-84789408D01*
X172334075Y-84852993D01*
X172399901Y-84967007D01*
X172492993Y-85060099D01*
X172607007Y-85125925D01*
X172670590Y-85142962D01*
X172038282Y-85775269D01*
X172038282Y-85775270D01*
X172092452Y-85814626D01*
X172092451Y-85814626D01*
X172101495Y-85819234D01*
X172152292Y-85867208D01*
X172169087Y-85935029D01*
X172146550Y-86001164D01*
X172101499Y-86040202D01*
X172092182Y-86044949D01*
X171920213Y-86169890D01*
X171769890Y-86320213D01*
X171644951Y-86492179D01*
X171548444Y-86681585D01*
X171482753Y-86883760D01*
X171460021Y-87027285D01*
X171449500Y-87093713D01*
X171449500Y-87306287D01*
X171457518Y-87356911D01*
X171482560Y-87515022D01*
X171482754Y-87516243D01*
X171541459Y-87696919D01*
X171548444Y-87718414D01*
X171644951Y-87907820D01*
X171769890Y-88079786D01*
X171920213Y-88230109D01*
X172092179Y-88355048D01*
X172092181Y-88355049D01*
X172092184Y-88355051D01*
X172281588Y-88451557D01*
X172483757Y-88517246D01*
X172693713Y-88550500D01*
X172693714Y-88550500D01*
X172906286Y-88550500D01*
X172906287Y-88550500D01*
X173116243Y-88517246D01*
X173318412Y-88451557D01*
X173507816Y-88355051D01*
X173547796Y-88326004D01*
X173679786Y-88230109D01*
X173679788Y-88230106D01*
X173679792Y-88230104D01*
X173830104Y-88079792D01*
X173830106Y-88079788D01*
X173830109Y-88079786D01*
X173955048Y-87907820D01*
X173955047Y-87907820D01*
X173955051Y-87907816D01*
X174051557Y-87718412D01*
X174117246Y-87516243D01*
X174150500Y-87306287D01*
X174150500Y-87093713D01*
X174117246Y-86883757D01*
X174051557Y-86681588D01*
X173955051Y-86492184D01*
X173955049Y-86492181D01*
X173955048Y-86492179D01*
X173830109Y-86320213D01*
X173679786Y-86169890D01*
X173507817Y-86044949D01*
X173498504Y-86040204D01*
X173447707Y-85992230D01*
X173430912Y-85924409D01*
X173453449Y-85858274D01*
X173498507Y-85819232D01*
X173507555Y-85814622D01*
X173561716Y-85775270D01*
X173561717Y-85775270D01*
X172929408Y-85142962D01*
X172992993Y-85125925D01*
X173107007Y-85060099D01*
X173200099Y-84967007D01*
X173265925Y-84852993D01*
X173282962Y-84789408D01*
X173915270Y-85421717D01*
X173915270Y-85421716D01*
X173954622Y-85367554D01*
X174051095Y-85178217D01*
X174116757Y-84976130D01*
X174116757Y-84976127D01*
X174150000Y-84766246D01*
X174150000Y-84553753D01*
X174116757Y-84343872D01*
X174116757Y-84343869D01*
X174051095Y-84141782D01*
X173954624Y-83952449D01*
X173915270Y-83898282D01*
X173915269Y-83898282D01*
X173282962Y-84530590D01*
X173265925Y-84467007D01*
X173200099Y-84352993D01*
X173107007Y-84259901D01*
X172992993Y-84194075D01*
X172929408Y-84177037D01*
X173198626Y-83907820D01*
X173259949Y-83874335D01*
X173286307Y-83871501D01*
X173355814Y-83871501D01*
X173355817Y-83871501D01*
X173508545Y-83830577D01*
X173560641Y-83800499D01*
X173645476Y-83751520D01*
X173757280Y-83639716D01*
X173757280Y-83639714D01*
X173767484Y-83629511D01*
X173767488Y-83629506D01*
X174309506Y-83087488D01*
X174309511Y-83087484D01*
X174319714Y-83077280D01*
X174319716Y-83077280D01*
X174431520Y-82965476D01*
X174510577Y-82828544D01*
X174551500Y-82675817D01*
X174551500Y-81836196D01*
X174560145Y-81806752D01*
X174566668Y-81776770D01*
X174570422Y-81771754D01*
X174571185Y-81769157D01*
X174587810Y-81748524D01*
X174710509Y-81625824D01*
X174710514Y-81625821D01*
X174720714Y-81615620D01*
X174720716Y-81615620D01*
X174832520Y-81503816D01*
X174885844Y-81411455D01*
X174911577Y-81366885D01*
X174952500Y-81214157D01*
X174952500Y-81056043D01*
X174952500Y-78351960D01*
X174952501Y-78351947D01*
X174952501Y-78183844D01*
X174952501Y-78183843D01*
X174911577Y-78031116D01*
X174911573Y-78031109D01*
X174832524Y-77894190D01*
X174832518Y-77894182D01*
X174615061Y-77676726D01*
X174615059Y-77676723D01*
X174485817Y-77547481D01*
X174485816Y-77547480D01*
X174399004Y-77497360D01*
X174399004Y-77497359D01*
X174399000Y-77497358D01*
X174348885Y-77468423D01*
X174196157Y-77427499D01*
X174038043Y-77427499D01*
X174030447Y-77427499D01*
X174030431Y-77427500D01*
X162984997Y-77427500D01*
X162917958Y-77407815D01*
X162897316Y-77391181D01*
X159542490Y-74036355D01*
X159542488Y-74036352D01*
X159423617Y-73917481D01*
X159423616Y-73917480D01*
X159336804Y-73867360D01*
X159336804Y-73867359D01*
X159336800Y-73867358D01*
X159286685Y-73838423D01*
X159133957Y-73797499D01*
X158975843Y-73797499D01*
X158968247Y-73797499D01*
X158968231Y-73797500D01*
X152926097Y-73797500D01*
X152859058Y-73777815D01*
X152813303Y-73725011D01*
X152803359Y-73655853D01*
X152832384Y-73592297D01*
X152838416Y-73585819D01*
X153030569Y-73393666D01*
X153696437Y-72727796D01*
X153757758Y-72694313D01*
X153822433Y-72697547D01*
X153948632Y-72738553D01*
X154036110Y-72752408D01*
X154181903Y-72775500D01*
X154181908Y-72775500D01*
X154418097Y-72775500D01*
X154651368Y-72738553D01*
X154684468Y-72727798D01*
X154875992Y-72665568D01*
X155086433Y-72558343D01*
X155277510Y-72419517D01*
X155444517Y-72252510D01*
X155475415Y-72209983D01*
X160139500Y-72209983D01*
X160139500Y-73970001D01*
X160139501Y-73970018D01*
X160150000Y-74072796D01*
X160150001Y-74072799D01*
X160205185Y-74239331D01*
X160205186Y-74239334D01*
X160297288Y-74388656D01*
X160421344Y-74512712D01*
X160570666Y-74604814D01*
X160737203Y-74659999D01*
X160839991Y-74670500D01*
X161560008Y-74670499D01*
X161560016Y-74670498D01*
X161560019Y-74670498D01*
X161616302Y-74664748D01*
X161662797Y-74659999D01*
X161829334Y-74604814D01*
X161978656Y-74512712D01*
X162102712Y-74388656D01*
X162194814Y-74239334D01*
X162249999Y-74072797D01*
X162260500Y-73970009D01*
X162260499Y-72209992D01*
X162249999Y-72107203D01*
X162194814Y-71940666D01*
X162102712Y-71791344D01*
X161978656Y-71667288D01*
X161829334Y-71575186D01*
X161662797Y-71520001D01*
X161662795Y-71520000D01*
X161560010Y-71509500D01*
X160839998Y-71509500D01*
X160839980Y-71509501D01*
X160737203Y-71520000D01*
X160737200Y-71520001D01*
X160570668Y-71575185D01*
X160570663Y-71575187D01*
X160421342Y-71667289D01*
X160297289Y-71791342D01*
X160205187Y-71940663D01*
X160205186Y-71940666D01*
X160150001Y-72107203D01*
X160150001Y-72107204D01*
X160150000Y-72107204D01*
X160139500Y-72209983D01*
X155475415Y-72209983D01*
X155583343Y-72061433D01*
X155690568Y-71850992D01*
X155763553Y-71626368D01*
X155771659Y-71575187D01*
X155800500Y-71393097D01*
X155800500Y-71156902D01*
X155763553Y-70923631D01*
X155690566Y-70699003D01*
X155583342Y-70488566D01*
X155444517Y-70297490D01*
X155277510Y-70130483D01*
X155263808Y-70120528D01*
X167474500Y-70120528D01*
X167474500Y-70429471D01*
X167509086Y-70736437D01*
X167509089Y-70736455D01*
X167577831Y-71037635D01*
X167577835Y-71037647D01*
X167679862Y-71329222D01*
X167679868Y-71329236D01*
X167813903Y-71607562D01*
X167813905Y-71607565D01*
X167978265Y-71869143D01*
X168121963Y-72049334D01*
X168168109Y-72107200D01*
X168170880Y-72110674D01*
X168389326Y-72329120D01*
X168630857Y-72521735D01*
X168892435Y-72686095D01*
X169170771Y-72820135D01*
X169170777Y-72820137D01*
X169462352Y-72922164D01*
X169462364Y-72922168D01*
X169763548Y-72990911D01*
X169763554Y-72990911D01*
X169763562Y-72990913D01*
X169968206Y-73013970D01*
X170070529Y-73025499D01*
X170070532Y-73025500D01*
X170070535Y-73025500D01*
X170379468Y-73025500D01*
X170379469Y-73025499D01*
X170536356Y-73007822D01*
X170686437Y-72990913D01*
X170686442Y-72990912D01*
X170686452Y-72990911D01*
X170987636Y-72922168D01*
X171279229Y-72820135D01*
X171557565Y-72686095D01*
X171819143Y-72521735D01*
X172060674Y-72329120D01*
X172279120Y-72110674D01*
X172471735Y-71869143D01*
X172636095Y-71607565D01*
X172770135Y-71329229D01*
X172872168Y-71037636D01*
X172940911Y-70736452D01*
X172945131Y-70699003D01*
X172975499Y-70429471D01*
X172975500Y-70429467D01*
X172975500Y-70120532D01*
X172975499Y-70120528D01*
X172940913Y-69813562D01*
X172940910Y-69813544D01*
X172872168Y-69512364D01*
X172872164Y-69512352D01*
X172770137Y-69220777D01*
X172770135Y-69220771D01*
X172636095Y-68942435D01*
X172471735Y-68680857D01*
X172279120Y-68439326D01*
X172060674Y-68220880D01*
X171819143Y-68028265D01*
X171557565Y-67863905D01*
X171557562Y-67863903D01*
X171279236Y-67729868D01*
X171279222Y-67729862D01*
X170987647Y-67627835D01*
X170987635Y-67627831D01*
X170686455Y-67559089D01*
X170686437Y-67559086D01*
X170379471Y-67524500D01*
X170379465Y-67524500D01*
X170070535Y-67524500D01*
X170070528Y-67524500D01*
X169763562Y-67559086D01*
X169763544Y-67559089D01*
X169462364Y-67627831D01*
X169462352Y-67627835D01*
X169170777Y-67729862D01*
X169170763Y-67729868D01*
X168892437Y-67863903D01*
X168630858Y-68028264D01*
X168389326Y-68220879D01*
X168170879Y-68439326D01*
X167978264Y-68680858D01*
X167813903Y-68942437D01*
X167679868Y-69220763D01*
X167679862Y-69220777D01*
X167577835Y-69512352D01*
X167577831Y-69512364D01*
X167509089Y-69813544D01*
X167509086Y-69813562D01*
X167474500Y-70120528D01*
X155263808Y-70120528D01*
X155086433Y-69991657D01*
X154875996Y-69884433D01*
X154651368Y-69811446D01*
X154418097Y-69774500D01*
X154418092Y-69774500D01*
X154181908Y-69774500D01*
X154181903Y-69774500D01*
X153948631Y-69811446D01*
X153724003Y-69884433D01*
X153513566Y-69991657D01*
X153456783Y-70032913D01*
X153322490Y-70130483D01*
X153322488Y-70130485D01*
X153322487Y-70130485D01*
X153155485Y-70297487D01*
X153155485Y-70297488D01*
X153155483Y-70297490D01*
X153095862Y-70379550D01*
X153016657Y-70488566D01*
X152909433Y-70699003D01*
X152836446Y-70923631D01*
X152799500Y-71156902D01*
X152799500Y-71393097D01*
X152836447Y-71626369D01*
X152836447Y-71626372D01*
X152877450Y-71752564D01*
X152879445Y-71822405D01*
X152847200Y-71878563D01*
X151365584Y-73360181D01*
X151304261Y-73393666D01*
X151277903Y-73396500D01*
X142542229Y-73396500D01*
X142384115Y-73396500D01*
X142231387Y-73437423D01*
X142231386Y-73437423D01*
X142231384Y-73437424D01*
X142231381Y-73437425D01*
X142181268Y-73466359D01*
X142181267Y-73466360D01*
X142137861Y-73491420D01*
X142094457Y-73516479D01*
X142094454Y-73516481D01*
X139117479Y-76493456D01*
X139093031Y-76535803D01*
X139082697Y-76553703D01*
X139066317Y-76582074D01*
X139038423Y-76630386D01*
X139038423Y-76630387D01*
X138997499Y-76783115D01*
X138997499Y-76783117D01*
X138997499Y-76951218D01*
X138997500Y-76951231D01*
X138997500Y-82501903D01*
X138977815Y-82568942D01*
X138961181Y-82589584D01*
X136769200Y-84781564D01*
X136707877Y-84815049D01*
X136638185Y-84810065D01*
X136582252Y-84768193D01*
X136557835Y-84702729D01*
X136572687Y-84634456D01*
X136581196Y-84621004D01*
X136616760Y-84572056D01*
X136702547Y-84403689D01*
X136760940Y-84223975D01*
X136765676Y-84194075D01*
X136790500Y-84037343D01*
X136790500Y-83848370D01*
X136760939Y-83661734D01*
X136705733Y-83491830D01*
X136702547Y-83482025D01*
X136702545Y-83482022D01*
X136702545Y-83482020D01*
X136640233Y-83359726D01*
X136616760Y-83313658D01*
X136505690Y-83160784D01*
X136372073Y-83027167D01*
X136219199Y-82916097D01*
X136050836Y-82830311D01*
X135871118Y-82771916D01*
X135684486Y-82742357D01*
X135684481Y-82742357D01*
X135495519Y-82742357D01*
X135495514Y-82742357D01*
X135308881Y-82771916D01*
X135129163Y-82830311D01*
X134960800Y-82916097D01*
X134873579Y-82979467D01*
X134807927Y-83027167D01*
X134807925Y-83027169D01*
X134807924Y-83027169D01*
X134674312Y-83160781D01*
X134674312Y-83160782D01*
X134674310Y-83160784D01*
X134592893Y-83272845D01*
X134579526Y-83291243D01*
X134524196Y-83333908D01*
X134479208Y-83342357D01*
X133143813Y-83342357D01*
X133143797Y-83342356D01*
X133136201Y-83342356D01*
X132978086Y-83342356D01*
X132923898Y-83356876D01*
X132825357Y-83383280D01*
X132825352Y-83383283D01*
X132688433Y-83462332D01*
X132688425Y-83462338D01*
X128524481Y-87626282D01*
X128524477Y-87626287D01*
X128497887Y-87672344D01*
X128447320Y-87720559D01*
X128378713Y-87733783D01*
X128313848Y-87707815D01*
X128273320Y-87650901D01*
X128266500Y-87610344D01*
X128266500Y-85933121D01*
X128286185Y-85866082D01*
X128338989Y-85820327D01*
X128408147Y-85810383D01*
X128446795Y-85822636D01*
X128597182Y-85899263D01*
X128597185Y-85899264D01*
X128803018Y-85966142D01*
X129016780Y-86000000D01*
X129233220Y-86000000D01*
X129446981Y-85966142D01*
X129652814Y-85899264D01*
X129652817Y-85899263D01*
X129845656Y-85801006D01*
X129904615Y-85758168D01*
X129904616Y-85758168D01*
X129121447Y-84975000D01*
X129171078Y-84975000D01*
X129260095Y-84951148D01*
X129339905Y-84905070D01*
X129405070Y-84839905D01*
X129451148Y-84760095D01*
X129475000Y-84671078D01*
X129475000Y-84624999D01*
X129478553Y-84624999D01*
X129478553Y-84625001D01*
X130258168Y-85404616D01*
X130258168Y-85404615D01*
X130301006Y-85345656D01*
X130399263Y-85152817D01*
X130399264Y-85152814D01*
X130466142Y-84946981D01*
X130500000Y-84733220D01*
X130500000Y-84516779D01*
X130466142Y-84303018D01*
X130399264Y-84097185D01*
X130399263Y-84097182D01*
X130301005Y-83904342D01*
X130258168Y-83845383D01*
X130258168Y-83845382D01*
X129478553Y-84624999D01*
X129475000Y-84624999D01*
X129475000Y-84578922D01*
X129451148Y-84489905D01*
X129405070Y-84410095D01*
X129339905Y-84344930D01*
X129260095Y-84298852D01*
X129171078Y-84275000D01*
X129121446Y-84275000D01*
X129904616Y-83491830D01*
X129904615Y-83491829D01*
X129845660Y-83448996D01*
X129652817Y-83350736D01*
X129652814Y-83350735D01*
X129446981Y-83283857D01*
X129233220Y-83250000D01*
X129016780Y-83250000D01*
X128803018Y-83283857D01*
X128597185Y-83350735D01*
X128597182Y-83350737D01*
X128446795Y-83427363D01*
X128444089Y-83427871D01*
X128442011Y-83429672D01*
X128409959Y-83434280D01*
X128378125Y-83440259D01*
X128375576Y-83439224D01*
X128372853Y-83439616D01*
X128343387Y-83426159D01*
X128313385Y-83413982D01*
X128311800Y-83411734D01*
X128309297Y-83410591D01*
X128291785Y-83383342D01*
X128273128Y-83356876D01*
X128272555Y-83353419D01*
X128271523Y-83351813D01*
X128266500Y-83316878D01*
X128266500Y-83255059D01*
X128266501Y-83255046D01*
X128266501Y-83086945D01*
X128266501Y-83086943D01*
X128225577Y-82934215D01*
X128205766Y-82899902D01*
X128194575Y-82880518D01*
X128194575Y-82880517D01*
X128146524Y-82797290D01*
X128146521Y-82797286D01*
X128146520Y-82797284D01*
X128034716Y-82685480D01*
X128034715Y-82685479D01*
X128030385Y-82681149D01*
X128030374Y-82681139D01*
X127938597Y-82589362D01*
X127905112Y-82528039D01*
X127908346Y-82463365D01*
X127926630Y-82407097D01*
X127960500Y-82193254D01*
X127960500Y-81976746D01*
X127926630Y-81762903D01*
X127878776Y-81615621D01*
X127859727Y-81556993D01*
X127859726Y-81556990D01*
X127785571Y-81411455D01*
X127761433Y-81364081D01*
X127634172Y-81188922D01*
X127481078Y-81035828D01*
X127305919Y-80908567D01*
X127285549Y-80898188D01*
X127113009Y-80810273D01*
X127113006Y-80810272D01*
X126907098Y-80743370D01*
X126800175Y-80726435D01*
X126693254Y-80709500D01*
X126476746Y-80709500D01*
X126405465Y-80720790D01*
X126262901Y-80743370D01*
X126056993Y-80810272D01*
X126056990Y-80810273D01*
X125864080Y-80908567D01*
X125764145Y-80981174D01*
X125688922Y-81035828D01*
X125688920Y-81035830D01*
X125688919Y-81035830D01*
X125535830Y-81188919D01*
X125535830Y-81188920D01*
X125535828Y-81188922D01*
X125517494Y-81214157D01*
X125408567Y-81364080D01*
X125310273Y-81556990D01*
X125310272Y-81556993D01*
X125243370Y-81762901D01*
X125209500Y-81976746D01*
X125209500Y-82193253D01*
X125243370Y-82407098D01*
X125310272Y-82613006D01*
X125310273Y-82613009D01*
X125391242Y-82771917D01*
X125408567Y-82805919D01*
X125535828Y-82981078D01*
X125688922Y-83134172D01*
X125864081Y-83261433D01*
X125957758Y-83309164D01*
X126056990Y-83359726D01*
X126056993Y-83359727D01*
X126134020Y-83384754D01*
X126262903Y-83426630D01*
X126476746Y-83460500D01*
X126476747Y-83460500D01*
X126693253Y-83460500D01*
X126693254Y-83460500D01*
X126907097Y-83426630D01*
X126907108Y-83426626D01*
X126911832Y-83425493D01*
X126912352Y-83427661D01*
X126972916Y-83425878D01*
X127032781Y-83461905D01*
X127063665Y-83524578D01*
X127065500Y-83545832D01*
X127065500Y-95275500D01*
X127045815Y-95342539D01*
X126993011Y-95388294D01*
X126941500Y-95399500D01*
X125517129Y-95399500D01*
X125517123Y-95399501D01*
X125457516Y-95405908D01*
X125322671Y-95456202D01*
X125322664Y-95456206D01*
X125207455Y-95542452D01*
X125123766Y-95654246D01*
X125067832Y-95696116D01*
X124998141Y-95701100D01*
X124936818Y-95667614D01*
X124903333Y-95606291D01*
X124900500Y-95579934D01*
X124900500Y-79436746D01*
X127749500Y-79436746D01*
X127749500Y-79653254D01*
X127766435Y-79760175D01*
X127783370Y-79867098D01*
X127850272Y-80073006D01*
X127850273Y-80073009D01*
X127923549Y-80216819D01*
X127948567Y-80265919D01*
X128075828Y-80441078D01*
X128228922Y-80594172D01*
X128404081Y-80721433D01*
X128447135Y-80743370D01*
X128596990Y-80819726D01*
X128596993Y-80819727D01*
X128699947Y-80853178D01*
X128802903Y-80886630D01*
X129016746Y-80920500D01*
X129016747Y-80920500D01*
X129233253Y-80920500D01*
X129233254Y-80920500D01*
X129447097Y-80886630D01*
X129653009Y-80819726D01*
X129845919Y-80721433D01*
X130021078Y-80594172D01*
X130174172Y-80441078D01*
X130301433Y-80265919D01*
X130399726Y-80073009D01*
X130466630Y-79867097D01*
X130480909Y-79776942D01*
X134389500Y-79776942D01*
X134389500Y-79965915D01*
X134419059Y-80152547D01*
X134477454Y-80332265D01*
X134532898Y-80441079D01*
X134563240Y-80500628D01*
X134674310Y-80653502D01*
X134807927Y-80787119D01*
X134960801Y-80898189D01*
X135004589Y-80920500D01*
X135129163Y-80983974D01*
X135129165Y-80983974D01*
X135129168Y-80983976D01*
X135209261Y-81010000D01*
X135308881Y-81042369D01*
X135495514Y-81071929D01*
X135495519Y-81071929D01*
X135684486Y-81071929D01*
X135871118Y-81042369D01*
X135911106Y-81029376D01*
X136050832Y-80983976D01*
X136219199Y-80898189D01*
X136372073Y-80787119D01*
X136505690Y-80653502D01*
X136616760Y-80500628D01*
X136702547Y-80332261D01*
X136760940Y-80152547D01*
X136790500Y-79965915D01*
X136790500Y-79776942D01*
X136760940Y-79590310D01*
X136702545Y-79410592D01*
X136616759Y-79242229D01*
X136602718Y-79222903D01*
X136505690Y-79089356D01*
X136372073Y-78955739D01*
X136219199Y-78844669D01*
X136178791Y-78824080D01*
X136050836Y-78758883D01*
X135871118Y-78700488D01*
X135684486Y-78670929D01*
X135684481Y-78670929D01*
X135495519Y-78670929D01*
X135495514Y-78670929D01*
X135308881Y-78700488D01*
X135129163Y-78758883D01*
X134960800Y-78844669D01*
X134873579Y-78908039D01*
X134807927Y-78955739D01*
X134807925Y-78955741D01*
X134807924Y-78955741D01*
X134674312Y-79089353D01*
X134674312Y-79089354D01*
X134674310Y-79089356D01*
X134665132Y-79101989D01*
X134563240Y-79242229D01*
X134477454Y-79410592D01*
X134419059Y-79590310D01*
X134389500Y-79776942D01*
X130480909Y-79776942D01*
X130500500Y-79653254D01*
X130500500Y-79436746D01*
X130466630Y-79222903D01*
X130410243Y-79049360D01*
X130399727Y-79016993D01*
X130399726Y-79016990D01*
X130301432Y-78824080D01*
X130262245Y-78770144D01*
X130174172Y-78648922D01*
X130021078Y-78495828D01*
X129845919Y-78368567D01*
X129813301Y-78351947D01*
X129653009Y-78270273D01*
X129653006Y-78270272D01*
X129447098Y-78203370D01*
X129323817Y-78183844D01*
X129233254Y-78169500D01*
X129016746Y-78169500D01*
X128945465Y-78180790D01*
X128802901Y-78203370D01*
X128596993Y-78270272D01*
X128596990Y-78270273D01*
X128404080Y-78368567D01*
X128361877Y-78399230D01*
X128228922Y-78495828D01*
X128228920Y-78495830D01*
X128228919Y-78495830D01*
X128075830Y-78648919D01*
X128075830Y-78648920D01*
X128075828Y-78648922D01*
X128059839Y-78670929D01*
X127948567Y-78824080D01*
X127850273Y-79016990D01*
X127850272Y-79016993D01*
X127783370Y-79222901D01*
X127783370Y-79222903D01*
X127749500Y-79436746D01*
X124900500Y-79436746D01*
X124900500Y-76807882D01*
X134935669Y-76807882D01*
X134935670Y-76807883D01*
X134961059Y-76826329D01*
X135129362Y-76912085D01*
X135308997Y-76970451D01*
X135495553Y-77000000D01*
X135684447Y-77000000D01*
X135871002Y-76970451D01*
X136050637Y-76912085D01*
X136218937Y-76826331D01*
X136244328Y-76807883D01*
X136244328Y-76807882D01*
X135590001Y-76153554D01*
X135590000Y-76153554D01*
X134935669Y-76807882D01*
X124900500Y-76807882D01*
X124900500Y-75705552D01*
X134390000Y-75705552D01*
X134390000Y-75894447D01*
X134419548Y-76081002D01*
X134477914Y-76260637D01*
X134563666Y-76428933D01*
X134582116Y-76454328D01*
X135236446Y-75800000D01*
X135236446Y-75799999D01*
X135190369Y-75753922D01*
X135240000Y-75753922D01*
X135240000Y-75846078D01*
X135263852Y-75935095D01*
X135309930Y-76014905D01*
X135375095Y-76080070D01*
X135454905Y-76126148D01*
X135543922Y-76150000D01*
X135636078Y-76150000D01*
X135725095Y-76126148D01*
X135804905Y-76080070D01*
X135870070Y-76014905D01*
X135916148Y-75935095D01*
X135940000Y-75846078D01*
X135940000Y-75799999D01*
X135943554Y-75799999D01*
X135943554Y-75800000D01*
X136597882Y-76454328D01*
X136597883Y-76454328D01*
X136616331Y-76428937D01*
X136702085Y-76260637D01*
X136760451Y-76081002D01*
X136790000Y-75894447D01*
X136790000Y-75705552D01*
X136760451Y-75518997D01*
X136702085Y-75339362D01*
X136616329Y-75171059D01*
X136597883Y-75145670D01*
X136597882Y-75145669D01*
X135943554Y-75799999D01*
X135940000Y-75799999D01*
X135940000Y-75753922D01*
X135916148Y-75664905D01*
X135870070Y-75585095D01*
X135804905Y-75519930D01*
X135725095Y-75473852D01*
X135636078Y-75450000D01*
X135543922Y-75450000D01*
X135454905Y-75473852D01*
X135375095Y-75519930D01*
X135309930Y-75585095D01*
X135263852Y-75664905D01*
X135240000Y-75753922D01*
X135190369Y-75753922D01*
X134582116Y-75145669D01*
X134582116Y-75145670D01*
X134563669Y-75171060D01*
X134477914Y-75339362D01*
X134419548Y-75518997D01*
X134390000Y-75705552D01*
X124900500Y-75705552D01*
X124900500Y-74792116D01*
X134935669Y-74792116D01*
X135590000Y-75446446D01*
X135590001Y-75446446D01*
X136244328Y-74792116D01*
X136218933Y-74773666D01*
X136050637Y-74687914D01*
X135871002Y-74629548D01*
X135684447Y-74600000D01*
X135495553Y-74600000D01*
X135308997Y-74629548D01*
X135129362Y-74687914D01*
X134961060Y-74773669D01*
X134935670Y-74792116D01*
X134935669Y-74792116D01*
X124900500Y-74792116D01*
X124900500Y-70120528D01*
X127524500Y-70120528D01*
X127524500Y-70429471D01*
X127559086Y-70736437D01*
X127559089Y-70736455D01*
X127627831Y-71037635D01*
X127627835Y-71037647D01*
X127729862Y-71329222D01*
X127729868Y-71329236D01*
X127863903Y-71607562D01*
X127863905Y-71607565D01*
X128028265Y-71869143D01*
X128171963Y-72049334D01*
X128218109Y-72107200D01*
X128220880Y-72110674D01*
X128439326Y-72329120D01*
X128680857Y-72521735D01*
X128942435Y-72686095D01*
X129220771Y-72820135D01*
X129220777Y-72820137D01*
X129512352Y-72922164D01*
X129512364Y-72922168D01*
X129813548Y-72990911D01*
X129813554Y-72990911D01*
X129813562Y-72990913D01*
X130018206Y-73013970D01*
X130120529Y-73025499D01*
X130120532Y-73025500D01*
X130120535Y-73025500D01*
X130429468Y-73025500D01*
X130429469Y-73025499D01*
X130586356Y-73007822D01*
X130736437Y-72990913D01*
X130736442Y-72990912D01*
X130736452Y-72990911D01*
X131037636Y-72922168D01*
X131329229Y-72820135D01*
X131607565Y-72686095D01*
X131869143Y-72521735D01*
X132110674Y-72329120D01*
X132329120Y-72110674D01*
X132521735Y-71869143D01*
X132686095Y-71607565D01*
X132820135Y-71329229D01*
X132922168Y-71037636D01*
X132990911Y-70736452D01*
X132995131Y-70699003D01*
X133025499Y-70429471D01*
X133025500Y-70429467D01*
X133025500Y-70227155D01*
X145200000Y-70227155D01*
X145200000Y-71025000D01*
X146266988Y-71025000D01*
X146234075Y-71082007D01*
X146200000Y-71209174D01*
X146200000Y-71340826D01*
X146234075Y-71467993D01*
X146266988Y-71525000D01*
X145200000Y-71525000D01*
X145200000Y-72322844D01*
X145206401Y-72382372D01*
X145206403Y-72382379D01*
X145256645Y-72517086D01*
X145256649Y-72517093D01*
X145342809Y-72632187D01*
X145342812Y-72632190D01*
X145457906Y-72718350D01*
X145457913Y-72718354D01*
X145592620Y-72768596D01*
X145592627Y-72768598D01*
X145652155Y-72774999D01*
X145652172Y-72775000D01*
X146450000Y-72775000D01*
X146450000Y-71708012D01*
X146507007Y-71740925D01*
X146634174Y-71775000D01*
X146765826Y-71775000D01*
X146892993Y-71740925D01*
X146950000Y-71708012D01*
X146950000Y-72775000D01*
X147747828Y-72775000D01*
X147747844Y-72774999D01*
X147807372Y-72768598D01*
X147807379Y-72768596D01*
X147942086Y-72718354D01*
X147942093Y-72718350D01*
X148057187Y-72632190D01*
X148057190Y-72632187D01*
X148143350Y-72517093D01*
X148143354Y-72517086D01*
X148193596Y-72382379D01*
X148193598Y-72382372D01*
X148199999Y-72322844D01*
X148200000Y-72322827D01*
X148200000Y-71525000D01*
X147133012Y-71525000D01*
X147165925Y-71467993D01*
X147200000Y-71340826D01*
X147200000Y-71209174D01*
X147165925Y-71082007D01*
X147133012Y-71025000D01*
X148200000Y-71025000D01*
X148200000Y-70227172D01*
X148199999Y-70227155D01*
X148193598Y-70167627D01*
X148193596Y-70167620D01*
X148143354Y-70032913D01*
X148143350Y-70032906D01*
X148057190Y-69917812D01*
X148057187Y-69917809D01*
X147942093Y-69831649D01*
X147942086Y-69831645D01*
X147807379Y-69781403D01*
X147807372Y-69781401D01*
X147747844Y-69775000D01*
X146950000Y-69775000D01*
X146950000Y-70841988D01*
X146892993Y-70809075D01*
X146765826Y-70775000D01*
X146634174Y-70775000D01*
X146507007Y-70809075D01*
X146450000Y-70841988D01*
X146450000Y-69775000D01*
X145652155Y-69775000D01*
X145592627Y-69781401D01*
X145592620Y-69781403D01*
X145457913Y-69831645D01*
X145457906Y-69831649D01*
X145342812Y-69917809D01*
X145342809Y-69917812D01*
X145256649Y-70032906D01*
X145256645Y-70032913D01*
X145206403Y-70167620D01*
X145206401Y-70167627D01*
X145200000Y-70227155D01*
X133025500Y-70227155D01*
X133025500Y-70120532D01*
X133025499Y-70120528D01*
X132990913Y-69813562D01*
X132990910Y-69813544D01*
X132922168Y-69512364D01*
X132922164Y-69512352D01*
X132820137Y-69220777D01*
X132820135Y-69220771D01*
X132686095Y-68942435D01*
X132521735Y-68680857D01*
X132329120Y-68439326D01*
X132110674Y-68220880D01*
X131869143Y-68028265D01*
X131607565Y-67863905D01*
X131607562Y-67863903D01*
X131329236Y-67729868D01*
X131329222Y-67729862D01*
X131037647Y-67627835D01*
X131037635Y-67627831D01*
X130736455Y-67559089D01*
X130736437Y-67559086D01*
X130429471Y-67524500D01*
X130429465Y-67524500D01*
X130120535Y-67524500D01*
X130120528Y-67524500D01*
X129813562Y-67559086D01*
X129813544Y-67559089D01*
X129512364Y-67627831D01*
X129512352Y-67627835D01*
X129220777Y-67729862D01*
X129220763Y-67729868D01*
X128942437Y-67863903D01*
X128680858Y-68028264D01*
X128439326Y-68220879D01*
X128220879Y-68439326D01*
X128028264Y-68680858D01*
X127863903Y-68942437D01*
X127729868Y-69220763D01*
X127729862Y-69220777D01*
X127627835Y-69512352D01*
X127627831Y-69512364D01*
X127559089Y-69813544D01*
X127559086Y-69813562D01*
X127524500Y-70120528D01*
X124900500Y-70120528D01*
X124900500Y-69202706D01*
X124900618Y-69197297D01*
X124903377Y-69134108D01*
X124917386Y-68813226D01*
X124918326Y-68802495D01*
X124968152Y-68424025D01*
X124970025Y-68413405D01*
X125052649Y-68040709D01*
X125055440Y-68030295D01*
X125170230Y-67666227D01*
X125173917Y-67656095D01*
X125320003Y-67303412D01*
X125324561Y-67293638D01*
X125352491Y-67239986D01*
X160140001Y-67239986D01*
X160150494Y-67342697D01*
X160205641Y-67509119D01*
X160205643Y-67509124D01*
X160297684Y-67658345D01*
X160421654Y-67782315D01*
X160570875Y-67874356D01*
X160570880Y-67874358D01*
X160737302Y-67929505D01*
X160737309Y-67929506D01*
X160840019Y-67939999D01*
X160949999Y-67939999D01*
X161450000Y-67939999D01*
X161559972Y-67939999D01*
X161559986Y-67939998D01*
X161662697Y-67929505D01*
X161829119Y-67874358D01*
X161829124Y-67874356D01*
X161978345Y-67782315D01*
X162102315Y-67658345D01*
X162194356Y-67509124D01*
X162194358Y-67509119D01*
X162249505Y-67342697D01*
X162249506Y-67342690D01*
X162259999Y-67239986D01*
X162260000Y-67239973D01*
X162260000Y-66610000D01*
X161450000Y-66610000D01*
X161450000Y-67939999D01*
X160949999Y-67939999D01*
X160950000Y-67939998D01*
X160950000Y-66610000D01*
X160140001Y-66610000D01*
X160140001Y-67239986D01*
X125352491Y-67239986D01*
X125500822Y-66955045D01*
X125506217Y-66945700D01*
X125711325Y-66623744D01*
X125717515Y-66614905D01*
X125949905Y-66312048D01*
X125956834Y-66303791D01*
X126214726Y-66022352D01*
X126222352Y-66014726D01*
X126503791Y-65756834D01*
X126512060Y-65749896D01*
X126814905Y-65517515D01*
X126823744Y-65511325D01*
X127145700Y-65306217D01*
X127155045Y-65300822D01*
X127493638Y-65124561D01*
X127503412Y-65120003D01*
X127856095Y-64973917D01*
X127866227Y-64970230D01*
X128230295Y-64855440D01*
X128240709Y-64852649D01*
X128613405Y-64770025D01*
X128624025Y-64768152D01*
X129002495Y-64718326D01*
X129013226Y-64717386D01*
X129397297Y-64700617D01*
X129402706Y-64700500D01*
X129465892Y-64700500D01*
X160368953Y-64700500D01*
X160435992Y-64720185D01*
G37*
%TD.AperFunction*%
%TA.AperFunction,Conductor*%
G36*
X133965888Y-88607417D02*
G01*
X134021822Y-88649289D01*
X134029942Y-88661598D01*
X134057343Y-88709057D01*
X134108479Y-88797628D01*
X134108481Y-88797631D01*
X134227349Y-88916499D01*
X134227355Y-88916504D01*
X136031811Y-90720960D01*
X136065296Y-90782283D01*
X136060312Y-90851975D01*
X136018440Y-90907908D01*
X135952976Y-90932325D01*
X135905813Y-90926572D01*
X135871004Y-90915262D01*
X135684447Y-90885714D01*
X135495553Y-90885714D01*
X135308997Y-90915262D01*
X135129362Y-90973628D01*
X134961060Y-91059383D01*
X134935670Y-91077830D01*
X134935669Y-91077830D01*
X135593554Y-91735714D01*
X135543922Y-91735714D01*
X135454905Y-91759566D01*
X135375095Y-91805644D01*
X135309930Y-91870809D01*
X135263852Y-91950619D01*
X135240000Y-92039636D01*
X135240000Y-92131792D01*
X135263852Y-92220809D01*
X135309930Y-92300619D01*
X135375095Y-92365784D01*
X135454905Y-92411862D01*
X135543922Y-92435714D01*
X135636078Y-92435714D01*
X135725095Y-92411862D01*
X135804905Y-92365784D01*
X135870070Y-92300619D01*
X135916148Y-92220809D01*
X135940000Y-92131792D01*
X135940000Y-92082160D01*
X136597882Y-92740042D01*
X136597883Y-92740042D01*
X136616331Y-92714651D01*
X136702085Y-92546351D01*
X136760451Y-92366716D01*
X136790000Y-92180161D01*
X136790000Y-91991266D01*
X136760452Y-91804714D01*
X136749141Y-91769902D01*
X136747146Y-91700061D01*
X136783226Y-91640228D01*
X136845927Y-91609399D01*
X136915341Y-91617363D01*
X136954753Y-91643902D01*
X141826697Y-96515846D01*
X141860182Y-96577169D01*
X141855198Y-96646861D01*
X141826697Y-96691208D01*
X138926156Y-99591752D01*
X138864833Y-99625237D01*
X138838475Y-99628071D01*
X136700792Y-99628071D01*
X136633753Y-99608386D01*
X136600474Y-99576957D01*
X136505690Y-99446498D01*
X136372073Y-99312881D01*
X136219199Y-99201811D01*
X136050836Y-99116025D01*
X135871118Y-99057630D01*
X135684486Y-99028071D01*
X135684481Y-99028071D01*
X135495519Y-99028071D01*
X135495514Y-99028071D01*
X135308881Y-99057630D01*
X135129163Y-99116025D01*
X134960800Y-99201811D01*
X134882250Y-99258882D01*
X134807927Y-99312881D01*
X134807925Y-99312883D01*
X134807924Y-99312883D01*
X134674312Y-99446495D01*
X134674305Y-99446504D01*
X134577530Y-99579701D01*
X134522200Y-99622367D01*
X134452587Y-99628345D01*
X134390792Y-99595738D01*
X134389532Y-99594496D01*
X133752519Y-98957483D01*
X133036819Y-98241782D01*
X133003334Y-98180459D01*
X133000500Y-98154101D01*
X133000500Y-97165025D01*
X134935669Y-97165025D01*
X134935670Y-97165026D01*
X134961059Y-97183472D01*
X135129362Y-97269228D01*
X135308997Y-97327594D01*
X135495553Y-97357143D01*
X135684447Y-97357143D01*
X135871002Y-97327594D01*
X136050637Y-97269228D01*
X136218937Y-97183474D01*
X136244328Y-97165026D01*
X136244328Y-97165025D01*
X135590001Y-96510697D01*
X135590000Y-96510697D01*
X134935669Y-97165025D01*
X133000500Y-97165025D01*
X133000500Y-96062695D01*
X134390000Y-96062695D01*
X134390000Y-96251590D01*
X134419548Y-96438145D01*
X134477914Y-96617780D01*
X134563666Y-96786076D01*
X134582116Y-96811471D01*
X135236446Y-96157143D01*
X135236446Y-96157142D01*
X135190369Y-96111065D01*
X135240000Y-96111065D01*
X135240000Y-96203221D01*
X135263852Y-96292238D01*
X135309930Y-96372048D01*
X135375095Y-96437213D01*
X135454905Y-96483291D01*
X135543922Y-96507143D01*
X135636078Y-96507143D01*
X135725095Y-96483291D01*
X135804905Y-96437213D01*
X135870070Y-96372048D01*
X135916148Y-96292238D01*
X135940000Y-96203221D01*
X135940000Y-96157142D01*
X135943554Y-96157142D01*
X135943554Y-96157143D01*
X136597882Y-96811471D01*
X136597883Y-96811471D01*
X136616331Y-96786080D01*
X136702085Y-96617780D01*
X136760451Y-96438145D01*
X136790000Y-96251590D01*
X136790000Y-96062695D01*
X136760451Y-95876140D01*
X136702085Y-95696505D01*
X136616329Y-95528202D01*
X136597883Y-95502813D01*
X136597882Y-95502812D01*
X135943554Y-96157142D01*
X135940000Y-96157142D01*
X135940000Y-96111065D01*
X135916148Y-96022048D01*
X135870070Y-95942238D01*
X135804905Y-95877073D01*
X135725095Y-95830995D01*
X135636078Y-95807143D01*
X135543922Y-95807143D01*
X135454905Y-95830995D01*
X135375095Y-95877073D01*
X135309930Y-95942238D01*
X135263852Y-96022048D01*
X135240000Y-96111065D01*
X135190369Y-96111065D01*
X134582116Y-95502812D01*
X134582116Y-95502813D01*
X134563669Y-95528203D01*
X134477914Y-95696505D01*
X134419548Y-95876140D01*
X134390000Y-96062695D01*
X133000500Y-96062695D01*
X133000500Y-95149259D01*
X134935669Y-95149259D01*
X135590000Y-95803589D01*
X135590001Y-95803589D01*
X136244328Y-95149259D01*
X136218933Y-95130809D01*
X136050637Y-95045057D01*
X135871002Y-94986691D01*
X135684447Y-94957143D01*
X135495553Y-94957143D01*
X135308997Y-94986691D01*
X135129362Y-95045057D01*
X134961060Y-95130812D01*
X134935670Y-95149259D01*
X134935669Y-95149259D01*
X133000500Y-95149259D01*
X133000500Y-93093596D01*
X134935669Y-93093596D01*
X134935670Y-93093597D01*
X134961059Y-93112043D01*
X135129362Y-93197799D01*
X135308997Y-93256165D01*
X135495553Y-93285714D01*
X135684447Y-93285714D01*
X135871002Y-93256165D01*
X136050637Y-93197799D01*
X136218937Y-93112045D01*
X136244328Y-93093597D01*
X136244328Y-93093596D01*
X135590001Y-92439268D01*
X135590000Y-92439268D01*
X134935669Y-93093596D01*
X133000500Y-93093596D01*
X133000500Y-91991266D01*
X134390000Y-91991266D01*
X134390000Y-92180161D01*
X134419548Y-92366716D01*
X134477914Y-92546351D01*
X134563666Y-92714647D01*
X134582116Y-92740042D01*
X135236446Y-92085714D01*
X135236446Y-92085713D01*
X134582116Y-91431383D01*
X134582116Y-91431384D01*
X134563669Y-91456774D01*
X134477914Y-91625076D01*
X134419548Y-91804711D01*
X134390000Y-91991266D01*
X133000500Y-91991266D01*
X133000500Y-89521655D01*
X133020185Y-89454616D01*
X133036819Y-89433974D01*
X133429747Y-89041046D01*
X133834876Y-88635916D01*
X133896197Y-88602433D01*
X133965888Y-88607417D01*
G37*
%TD.AperFunction*%
%TA.AperFunction,Conductor*%
G36*
X142123628Y-76404362D02*
G01*
X142140546Y-76405572D01*
X142155511Y-76416775D01*
X142172933Y-76423558D01*
X142195258Y-76446529D01*
X142196480Y-76447444D01*
X142197494Y-76448818D01*
X142294310Y-76582073D01*
X142427927Y-76715690D01*
X142520729Y-76783115D01*
X142580802Y-76826761D01*
X142619196Y-76846323D01*
X142641794Y-76857837D01*
X142692590Y-76905810D01*
X142709500Y-76968322D01*
X142709500Y-78703105D01*
X142689815Y-78770144D01*
X142641796Y-78813589D01*
X142580803Y-78844667D01*
X142504364Y-78900204D01*
X142427927Y-78955739D01*
X142427925Y-78955741D01*
X142427924Y-78955741D01*
X142294312Y-79089353D01*
X142294312Y-79089354D01*
X142294310Y-79089356D01*
X142285132Y-79101989D01*
X142183240Y-79242229D01*
X142097454Y-79410592D01*
X142039059Y-79590310D01*
X142009500Y-79776942D01*
X142009500Y-79965915D01*
X142039059Y-80152547D01*
X142097454Y-80332265D01*
X142152898Y-80441079D01*
X142183240Y-80500628D01*
X142294310Y-80653502D01*
X142427927Y-80787119D01*
X142580801Y-80898189D01*
X142624589Y-80920500D01*
X142749163Y-80983974D01*
X142749165Y-80983974D01*
X142749168Y-80983976D01*
X142829261Y-81010000D01*
X142928881Y-81042369D01*
X143115514Y-81071929D01*
X143115519Y-81071929D01*
X143304486Y-81071929D01*
X143408168Y-81055506D01*
X143491118Y-81042369D01*
X143524959Y-81031372D01*
X143594797Y-81029376D01*
X143650958Y-81061622D01*
X145862181Y-83272845D01*
X145895666Y-83334168D01*
X145898500Y-83360526D01*
X145898500Y-87349298D01*
X145898499Y-87349316D01*
X145898499Y-87515022D01*
X145898498Y-87515022D01*
X145939423Y-87667753D01*
X145945752Y-87678715D01*
X146018477Y-87804680D01*
X146018481Y-87804685D01*
X146137344Y-87923548D01*
X146137349Y-87923552D01*
X146263719Y-88049923D01*
X146297203Y-88111245D01*
X146299656Y-88147320D01*
X146299500Y-88149295D01*
X146299500Y-88241500D01*
X146279815Y-88308539D01*
X146227011Y-88354294D01*
X146175500Y-88365500D01*
X144515023Y-88365500D01*
X144447984Y-88345815D01*
X144402229Y-88293011D01*
X144392285Y-88223853D01*
X144392550Y-88222102D01*
X144410500Y-88108772D01*
X144410500Y-87919799D01*
X144380940Y-87733167D01*
X144322545Y-87553449D01*
X144236759Y-87385086D01*
X144234519Y-87382003D01*
X144125690Y-87232213D01*
X143992073Y-87098596D01*
X143839199Y-86987526D01*
X143806765Y-86971000D01*
X143670836Y-86901740D01*
X143491118Y-86843345D01*
X143304486Y-86813786D01*
X143304481Y-86813786D01*
X143115519Y-86813786D01*
X143115514Y-86813786D01*
X142928881Y-86843345D01*
X142749163Y-86901740D01*
X142580800Y-86987526D01*
X142526069Y-87027291D01*
X142427927Y-87098596D01*
X142427925Y-87098598D01*
X142427924Y-87098598D01*
X142294312Y-87232210D01*
X142294312Y-87232211D01*
X142294310Y-87232213D01*
X142265032Y-87272511D01*
X142183240Y-87385086D01*
X142097454Y-87553449D01*
X142039059Y-87733167D01*
X142009500Y-87919799D01*
X142009500Y-88108772D01*
X142039059Y-88295404D01*
X142097454Y-88475122D01*
X142170925Y-88619315D01*
X142183240Y-88643485D01*
X142294310Y-88796359D01*
X142427927Y-88929976D01*
X142558386Y-89024760D01*
X142601051Y-89080089D01*
X142609500Y-89125077D01*
X142609500Y-90974921D01*
X142589815Y-91041960D01*
X142558386Y-91075239D01*
X142427925Y-91170025D01*
X142294312Y-91303638D01*
X142294312Y-91303639D01*
X142294310Y-91303641D01*
X142278774Y-91325025D01*
X142183240Y-91456514D01*
X142097454Y-91624877D01*
X142039059Y-91804595D01*
X142009500Y-91991227D01*
X142009500Y-92180200D01*
X142035256Y-92342816D01*
X142026301Y-92412109D01*
X141981305Y-92465561D01*
X141914554Y-92486201D01*
X141912783Y-92486214D01*
X140962525Y-92486214D01*
X140895486Y-92466529D01*
X140874844Y-92449895D01*
X136800066Y-88375117D01*
X136766581Y-88313794D01*
X136765274Y-88268038D01*
X136768332Y-88248735D01*
X136774876Y-88207416D01*
X136790500Y-88108772D01*
X136790500Y-87919799D01*
X136764744Y-87757184D01*
X136773699Y-87687891D01*
X136818695Y-87634439D01*
X136885446Y-87613799D01*
X136887217Y-87613786D01*
X140479055Y-87613786D01*
X140479057Y-87613786D01*
X140631784Y-87572863D01*
X140768716Y-87493806D01*
X140880520Y-87382002D01*
X140959577Y-87245070D01*
X141000500Y-87092343D01*
X141000500Y-84950739D01*
X142555669Y-84950739D01*
X142555670Y-84950740D01*
X142581059Y-84969186D01*
X142749362Y-85054942D01*
X142928997Y-85113308D01*
X143115553Y-85142857D01*
X143304447Y-85142857D01*
X143491002Y-85113308D01*
X143670637Y-85054942D01*
X143838937Y-84969188D01*
X143864328Y-84950740D01*
X143864328Y-84950739D01*
X143210001Y-84296411D01*
X143210000Y-84296411D01*
X142555669Y-84950739D01*
X141000500Y-84950739D01*
X141000500Y-83848409D01*
X142010000Y-83848409D01*
X142010000Y-84037304D01*
X142039548Y-84223859D01*
X142097914Y-84403494D01*
X142183666Y-84571790D01*
X142202116Y-84597185D01*
X142856446Y-83942857D01*
X142856446Y-83942856D01*
X142810369Y-83896779D01*
X142860000Y-83896779D01*
X142860000Y-83988935D01*
X142883852Y-84077952D01*
X142929930Y-84157762D01*
X142995095Y-84222927D01*
X143074905Y-84269005D01*
X143163922Y-84292857D01*
X143256078Y-84292857D01*
X143345095Y-84269005D01*
X143424905Y-84222927D01*
X143490070Y-84157762D01*
X143536148Y-84077952D01*
X143560000Y-83988935D01*
X143560000Y-83942856D01*
X143563554Y-83942856D01*
X143563554Y-83942857D01*
X144217882Y-84597185D01*
X144217883Y-84597185D01*
X144236331Y-84571794D01*
X144322085Y-84403494D01*
X144380451Y-84223859D01*
X144410000Y-84037304D01*
X144410000Y-83848409D01*
X144380451Y-83661854D01*
X144322085Y-83482219D01*
X144236329Y-83313916D01*
X144217883Y-83288527D01*
X144217882Y-83288526D01*
X143563554Y-83942856D01*
X143560000Y-83942856D01*
X143560000Y-83896779D01*
X143536148Y-83807762D01*
X143490070Y-83727952D01*
X143424905Y-83662787D01*
X143345095Y-83616709D01*
X143256078Y-83592857D01*
X143163922Y-83592857D01*
X143074905Y-83616709D01*
X142995095Y-83662787D01*
X142929930Y-83727952D01*
X142883852Y-83807762D01*
X142860000Y-83896779D01*
X142810369Y-83896779D01*
X142202116Y-83288526D01*
X142202116Y-83288527D01*
X142183669Y-83313917D01*
X142097914Y-83482219D01*
X142039548Y-83661854D01*
X142010000Y-83848409D01*
X141000500Y-83848409D01*
X141000500Y-82934973D01*
X142555669Y-82934973D01*
X143210000Y-83589303D01*
X143210001Y-83589303D01*
X143864328Y-82934973D01*
X143838933Y-82916523D01*
X143670637Y-82830771D01*
X143491002Y-82772405D01*
X143304447Y-82742857D01*
X143115553Y-82742857D01*
X142928997Y-82772405D01*
X142749362Y-82830771D01*
X142581060Y-82916526D01*
X142555670Y-82934973D01*
X142555669Y-82934973D01*
X141000500Y-82934973D01*
X141000500Y-77494468D01*
X141020185Y-77427429D01*
X141036814Y-77406791D01*
X142009534Y-76434071D01*
X142025937Y-76425114D01*
X142039346Y-76412084D01*
X142055970Y-76408715D01*
X142070855Y-76400588D01*
X142089501Y-76401921D01*
X142107824Y-76398209D01*
X142123628Y-76404362D01*
G37*
%TD.AperFunction*%
%TA.AperFunction,Conductor*%
G36*
X158821842Y-75018185D02*
G01*
X158842484Y-75034819D01*
X162031533Y-78223868D01*
X162065018Y-78285191D01*
X162060034Y-78354883D01*
X162031533Y-78399230D01*
X159467582Y-80963181D01*
X159406259Y-80996666D01*
X159379901Y-80999500D01*
X158179998Y-80999500D01*
X158179981Y-80999501D01*
X158077203Y-81010000D01*
X158077200Y-81010001D01*
X157910668Y-81065185D01*
X157910663Y-81065187D01*
X157761342Y-81157289D01*
X157637289Y-81281342D01*
X157545187Y-81430663D01*
X157545186Y-81430666D01*
X157490001Y-81597203D01*
X157490001Y-81597204D01*
X157490000Y-81597204D01*
X157479500Y-81699983D01*
X157479500Y-82899902D01*
X157459815Y-82966941D01*
X157443181Y-82987583D01*
X154732890Y-85697873D01*
X154732882Y-85697881D01*
X154730286Y-85700478D01*
X154730284Y-85700480D01*
X154618480Y-85812284D01*
X154600995Y-85842570D01*
X154594693Y-85853484D01*
X154594692Y-85853486D01*
X154574889Y-85887786D01*
X154539423Y-85949215D01*
X154498499Y-86101943D01*
X154498499Y-86101945D01*
X154498499Y-86270046D01*
X154498500Y-86270059D01*
X154498500Y-87935902D01*
X154489855Y-87965339D01*
X154483332Y-87995330D01*
X154479576Y-88000346D01*
X154478815Y-88002941D01*
X154462185Y-88023578D01*
X154411707Y-88074057D01*
X154385420Y-88100344D01*
X154324096Y-88133828D01*
X154254405Y-88128843D01*
X154198471Y-88086972D01*
X154178663Y-88047259D01*
X154151744Y-87954602D01*
X154068081Y-87813135D01*
X154068078Y-87813132D01*
X154063298Y-87806969D01*
X154065635Y-87805155D01*
X154038798Y-87756050D01*
X154043756Y-87686356D01*
X154064554Y-87653998D01*
X154062903Y-87652717D01*
X154067686Y-87646550D01*
X154151281Y-87505198D01*
X154197100Y-87347486D01*
X154197295Y-87345001D01*
X154197295Y-87345000D01*
X152849000Y-87345000D01*
X152781961Y-87325315D01*
X152736206Y-87272511D01*
X152725000Y-87221000D01*
X152725000Y-87095000D01*
X152599000Y-87095000D01*
X152531961Y-87075315D01*
X152486206Y-87022511D01*
X152475000Y-86971000D01*
X152475000Y-86845000D01*
X152975000Y-86845000D01*
X154197295Y-86845000D01*
X154197295Y-86844998D01*
X154197100Y-86842513D01*
X154151281Y-86684801D01*
X154067685Y-86543447D01*
X154067678Y-86543438D01*
X153951561Y-86427321D01*
X153951552Y-86427314D01*
X153810196Y-86343717D01*
X153810193Y-86343716D01*
X153652495Y-86297900D01*
X153652489Y-86297899D01*
X153615649Y-86295000D01*
X152975000Y-86295000D01*
X152975000Y-86845000D01*
X152475000Y-86845000D01*
X152475000Y-86295000D01*
X151834350Y-86295000D01*
X151797510Y-86297899D01*
X151797504Y-86297900D01*
X151639806Y-86343716D01*
X151639803Y-86343717D01*
X151498449Y-86427313D01*
X151498443Y-86427317D01*
X151478013Y-86447748D01*
X151416689Y-86481232D01*
X151346997Y-86476246D01*
X151302652Y-86447746D01*
X144847819Y-79992913D01*
X144814334Y-79931590D01*
X144811500Y-79905232D01*
X144811500Y-75306316D01*
X144811499Y-75306310D01*
X144804321Y-75279521D01*
X144770847Y-75154593D01*
X144772510Y-75084743D01*
X144811673Y-75026881D01*
X144875901Y-74999377D01*
X144890622Y-74998500D01*
X158754803Y-74998500D01*
X158821842Y-75018185D01*
G37*
%TD.AperFunction*%
%TD*%
M02*
