%TF.GenerationSoftware,KiCad,Pcbnew,9.0.6*%
%TF.CreationDate,2025-12-24T19:30:20-05:00*%
%TF.ProjectId,tmp36 circuit,746d7033-3620-4636-9972-637569742e6b,rev?*%
%TF.SameCoordinates,Original*%
%TF.FileFunction,Soldermask,Bot*%
%TF.FilePolarity,Negative*%
%FSLAX46Y46*%
G04 Gerber Fmt 4.6, Leading zero omitted, Abs format (unit mm)*
G04 Created by KiCad (PCBNEW 9.0.6) date 2025-12-24 19:30:20*
%MOMM*%
%LPD*%
G01*
G04 APERTURE LIST*
G04 Aperture macros list*
%AMRoundRect*
0 Rectangle with rounded corners*
0 $1 Rounding radius*
0 $2 $3 $4 $5 $6 $7 $8 $9 X,Y pos of 4 corners*
0 Add a 4 corners polygon primitive as box body*
4,1,4,$2,$3,$4,$5,$6,$7,$8,$9,$2,$3,0*
0 Add four circle primitives for the rounded corners*
1,1,$1+$1,$2,$3*
1,1,$1+$1,$4,$5*
1,1,$1+$1,$6,$7*
1,1,$1+$1,$8,$9*
0 Add four rect primitives between the rounded corners*
20,1,$1+$1,$2,$3,$4,$5,0*
20,1,$1+$1,$4,$5,$6,$7,0*
20,1,$1+$1,$6,$7,$8,$9,0*
20,1,$1+$1,$8,$9,$2,$3,0*%
G04 Aperture macros list end*
%ADD10C,1.700000*%
%ADD11R,1.700000X1.700000*%
%ADD12C,5.000000*%
%ADD13C,1.400000*%
%ADD14RoundRect,0.250000X1.050000X-1.050000X1.050000X1.050000X-1.050000X1.050000X-1.050000X-1.050000X0*%
%ADD15C,2.600000*%
%ADD16RoundRect,0.250000X-0.650000X-0.650000X0.650000X-0.650000X0.650000X0.650000X-0.650000X0.650000X0*%
%ADD17C,1.800000*%
%ADD18R,1.800000X1.800000*%
%ADD19RoundRect,0.250000X0.275000X0.600000X-0.275000X0.600000X-0.275000X-0.600000X0.275000X-0.600000X0*%
%ADD20O,1.050000X1.700000*%
%ADD21R,1.500000X1.500000*%
%ADD22C,1.500000*%
%ADD23R,1.050000X1.500000*%
%ADD24O,1.050000X1.500000*%
%ADD25R,2.000000X2.000000*%
%ADD26C,2.000000*%
%ADD27C,1.750000*%
G04 APERTURE END LIST*
D10*
%TO.C,J1*%
X172800000Y-87200000D03*
X172800000Y-84660000D03*
X172800000Y-82120000D03*
D11*
X172800000Y-79580000D03*
%TD*%
D12*
%TO.C,H4*%
X170225000Y-70275000D03*
%TD*%
D13*
%TO.C,R8*%
X135590000Y-104300000D03*
X143210000Y-104300000D03*
%TD*%
D14*
%TO.C,M1*%
X170110000Y-101345000D03*
D15*
X170110000Y-96265000D03*
%TD*%
D12*
%TO.C,H3*%
X130275000Y-110725000D03*
%TD*%
%TO.C,H2*%
X170225000Y-110725000D03*
%TD*%
D16*
%TO.C,D1*%
X158880000Y-82400000D03*
D17*
X166500000Y-82400000D03*
%TD*%
D13*
%TO.C,R7*%
X135590000Y-100228571D03*
X143210000Y-100228571D03*
%TD*%
%TO.C,R1*%
X135590000Y-75800000D03*
X143210000Y-75800000D03*
%TD*%
D12*
%TO.C,H1*%
X130275000Y-70275000D03*
%TD*%
D13*
%TO.C,R4*%
X143210000Y-88014286D03*
X135590000Y-88014286D03*
%TD*%
D18*
%TO.C,D2*%
X126465000Y-96800000D03*
D17*
X129005000Y-96800000D03*
%TD*%
D13*
%TO.C,R3*%
X135590000Y-83942857D03*
X143210000Y-83942857D03*
%TD*%
%TO.C,R6*%
X135590000Y-96157143D03*
X143210000Y-96157143D03*
%TD*%
D19*
%TO.C,Q1*%
X156460000Y-87900000D03*
D20*
X157730000Y-87900000D03*
X159000000Y-87900000D03*
%TD*%
D13*
%TO.C,R5*%
X135590000Y-92085714D03*
X143210000Y-92085714D03*
%TD*%
D21*
%TO.C,Q2*%
X152800000Y-98100000D03*
D22*
X150260000Y-98100000D03*
X147720000Y-98100000D03*
%TD*%
D23*
%TO.C,Q3*%
X145947500Y-111930000D03*
D24*
X147217500Y-111930000D03*
X148487500Y-111930000D03*
%TD*%
D13*
%TO.C,R2*%
X143210000Y-79871429D03*
X135590000Y-79871429D03*
%TD*%
D25*
%TO.C,BZ1*%
X146700000Y-71275000D03*
D26*
X154300000Y-71275000D03*
%TD*%
D27*
%TO.C,RV1*%
X129125000Y-84625000D03*
X126585000Y-82085000D03*
X129125000Y-79545000D03*
%TD*%
M02*
