%TF.GenerationSoftware,KiCad,Pcbnew,9.0.6*%
%TF.CreationDate,2025-12-24T19:30:20-05:00*%
%TF.ProjectId,tmp36 circuit,746d7033-3620-4636-9972-637569742e6b,rev?*%
%TF.SameCoordinates,Original*%
%TF.FileFunction,Copper,L2,Bot*%
%TF.FilePolarity,Positive*%
%FSLAX46Y46*%
G04 Gerber Fmt 4.6, Leading zero omitted, Abs format (unit mm)*
G04 Created by KiCad (PCBNEW 9.0.6) date 2025-12-24 19:30:20*
%MOMM*%
%LPD*%
G01*
G04 APERTURE LIST*
G04 Aperture macros list*
%AMRoundRect*
0 Rectangle with rounded corners*
0 $1 Rounding radius*
0 $2 $3 $4 $5 $6 $7 $8 $9 X,Y pos of 4 corners*
0 Add a 4 corners polygon primitive as box body*
4,1,4,$2,$3,$4,$5,$6,$7,$8,$9,$2,$3,0*
0 Add four circle primitives for the rounded corners*
1,1,$1+$1,$2,$3*
1,1,$1+$1,$4,$5*
1,1,$1+$1,$6,$7*
1,1,$1+$1,$8,$9*
0 Add four rect primitives between the rounded corners*
20,1,$1+$1,$2,$3,$4,$5,0*
20,1,$1+$1,$4,$5,$6,$7,0*
20,1,$1+$1,$6,$7,$8,$9,0*
20,1,$1+$1,$8,$9,$2,$3,0*%
G04 Aperture macros list end*
%TA.AperFunction,ComponentPad*%
%ADD10C,1.700000*%
%TD*%
%TA.AperFunction,ComponentPad*%
%ADD11R,1.700000X1.700000*%
%TD*%
%TA.AperFunction,ComponentPad*%
%ADD12C,1.400000*%
%TD*%
%TA.AperFunction,ComponentPad*%
%ADD13RoundRect,0.250000X1.050000X-1.050000X1.050000X1.050000X-1.050000X1.050000X-1.050000X-1.050000X0*%
%TD*%
%TA.AperFunction,ComponentPad*%
%ADD14C,2.600000*%
%TD*%
%TA.AperFunction,ComponentPad*%
%ADD15RoundRect,0.250000X-0.650000X-0.650000X0.650000X-0.650000X0.650000X0.650000X-0.650000X0.650000X0*%
%TD*%
%TA.AperFunction,ComponentPad*%
%ADD16C,1.800000*%
%TD*%
%TA.AperFunction,ComponentPad*%
%ADD17R,1.800000X1.800000*%
%TD*%
%TA.AperFunction,ComponentPad*%
%ADD18RoundRect,0.250000X0.275000X0.600000X-0.275000X0.600000X-0.275000X-0.600000X0.275000X-0.600000X0*%
%TD*%
%TA.AperFunction,ComponentPad*%
%ADD19O,1.050000X1.700000*%
%TD*%
%TA.AperFunction,ComponentPad*%
%ADD20R,1.500000X1.500000*%
%TD*%
%TA.AperFunction,ComponentPad*%
%ADD21C,1.500000*%
%TD*%
%TA.AperFunction,ComponentPad*%
%ADD22R,1.050000X1.500000*%
%TD*%
%TA.AperFunction,ComponentPad*%
%ADD23O,1.050000X1.500000*%
%TD*%
%TA.AperFunction,ComponentPad*%
%ADD24R,2.000000X2.000000*%
%TD*%
%TA.AperFunction,ComponentPad*%
%ADD25C,2.000000*%
%TD*%
%TA.AperFunction,ComponentPad*%
%ADD26C,1.750000*%
%TD*%
%TA.AperFunction,ViaPad*%
%ADD27C,0.600000*%
%TD*%
%TA.AperFunction,Conductor*%
%ADD28C,0.200000*%
%TD*%
G04 APERTURE END LIST*
D10*
%TO.P,J1,4,Pin_4*%
%TO.N,GND*%
X172800000Y-87200000D03*
%TO.P,J1,3,Pin_3*%
%TO.N,+5V*%
X172800000Y-84660000D03*
%TO.P,J1,2,Pin_2*%
%TO.N,pot_out*%
X172800000Y-82120000D03*
D11*
%TO.P,J1,1,Pin_1*%
%TO.N,tmp36_out*%
X172800000Y-79580000D03*
%TD*%
D12*
%TO.P,R8,1*%
%TO.N,Net-(R8-Pad1)*%
X135590000Y-104300000D03*
%TO.P,R8,2*%
%TO.N,pot_out*%
X143210000Y-104300000D03*
%TD*%
D13*
%TO.P,M1,1,+*%
%TO.N,+5V*%
X170110000Y-101345000D03*
D14*
%TO.P,M1,2,-*%
%TO.N,Net-(D2-K)*%
X170110000Y-96265000D03*
%TD*%
D15*
%TO.P,D1,1,K*%
%TO.N,pot_out*%
X158880000Y-82400000D03*
D16*
%TO.P,D1,2,A*%
%TO.N,GND*%
X166500000Y-82400000D03*
%TD*%
D12*
%TO.P,R7,1*%
%TO.N,2out*%
X135590000Y-100228571D03*
%TO.P,R7,2*%
%TO.N,Net-(Q1-G)*%
X143210000Y-100228571D03*
%TD*%
%TO.P,R1,1*%
%TO.N,+5V*%
X135590000Y-75800000D03*
%TO.P,R1,2*%
%TO.N,vdr*%
X143210000Y-75800000D03*
%TD*%
%TO.P,R4,1*%
%TO.N,1out*%
X143210000Y-88014286D03*
%TO.P,R4,2*%
%TO.N,Net-(Q2-B)*%
X135590000Y-88014286D03*
%TD*%
D17*
%TO.P,D2,1,K*%
%TO.N,Net-(D2-K)*%
X126465000Y-96800000D03*
D16*
%TO.P,D2,2,A*%
%TO.N,Net-(D2-A)*%
X129005000Y-96800000D03*
%TD*%
D12*
%TO.P,R3,1*%
%TO.N,Net-(D2-A)*%
X135590000Y-83942857D03*
%TO.P,R3,2*%
%TO.N,+5V*%
X143210000Y-83942857D03*
%TD*%
%TO.P,R6,1*%
%TO.N,+5V*%
X135590000Y-96157143D03*
%TO.P,R6,2*%
%TO.N,2out*%
X143210000Y-96157143D03*
%TD*%
D18*
%TO.P,Q1,1,D*%
%TO.N,Net-(D2-K)*%
X156460000Y-87900000D03*
D19*
%TO.P,Q1,2,G*%
%TO.N,Net-(Q1-G)*%
X157730000Y-87900000D03*
%TO.P,Q1,3,S*%
%TO.N,GND*%
X159000000Y-87900000D03*
%TD*%
D12*
%TO.P,R5,1*%
%TO.N,+5V*%
X135590000Y-92085714D03*
%TO.P,R5,2*%
%TO.N,1out*%
X143210000Y-92085714D03*
%TD*%
D20*
%TO.P,Q2,1,C*%
%TO.N,Net-(BZ1--)*%
X152800000Y-98100000D03*
D21*
%TO.P,Q2,2,B*%
%TO.N,Net-(Q2-B)*%
X150260000Y-98100000D03*
%TO.P,Q2,3,E*%
%TO.N,GND*%
X147720000Y-98100000D03*
%TD*%
D22*
%TO.P,Q3,1,C*%
%TO.N,+5V*%
X145947500Y-111930000D03*
D23*
%TO.P,Q3,2,B*%
%TO.N,tmp36_out*%
X147217500Y-111930000D03*
%TO.P,Q3,3,E*%
%TO.N,GND*%
X148487500Y-111930000D03*
%TD*%
D12*
%TO.P,R2,1*%
%TO.N,vdr*%
X143210000Y-79871429D03*
%TO.P,R2,2*%
%TO.N,GND*%
X135590000Y-79871429D03*
%TD*%
D24*
%TO.P,BZ1,1,+*%
%TO.N,+5V*%
X146700000Y-71275000D03*
D25*
%TO.P,BZ1,2,-*%
%TO.N,Net-(BZ1--)*%
X154300000Y-71275000D03*
%TD*%
D26*
%TO.P,RV1,1,1*%
%TO.N,+5V*%
X129125000Y-84625000D03*
%TO.P,RV1,2,2*%
%TO.N,Net-(R8-Pad1)*%
X126585000Y-82085000D03*
%TO.P,RV1,3,3*%
%TO.N,GND*%
X129125000Y-79545000D03*
%TD*%
D27*
%TO.N,+5V*%
X147800000Y-81100000D03*
X145495021Y-82904979D03*
X149900000Y-75900000D03*
X134900000Y-90400000D03*
%TO.N,tmp36_out*%
X150800000Y-90300000D03*
X149800000Y-91100000D03*
X154700000Y-92400000D03*
X152100000Y-106400000D03*
%TD*%
D28*
%TO.N,+5V*%
X134900000Y-90400000D02*
X129125000Y-84625000D01*
X145495021Y-82904979D02*
X145995021Y-82904979D01*
X146700000Y-72600000D02*
X146700000Y-71275000D01*
X149900000Y-75800000D02*
X146700000Y-72600000D01*
X135590000Y-96210000D02*
X135590000Y-96157143D01*
X145995021Y-82904979D02*
X147800000Y-81100000D01*
X149900000Y-75900000D02*
X149900000Y-75800000D01*
%TO.N,tmp36_out*%
X150800000Y-90300000D02*
X152900000Y-92400000D01*
X153851000Y-95151000D02*
X149800000Y-91100000D01*
X153851000Y-104649000D02*
X153851000Y-95151000D01*
X152900000Y-92400000D02*
X154700000Y-92400000D01*
X152100000Y-106400000D02*
X153851000Y-104649000D01*
%TD*%
%TA.AperFunction,Conductor*%
%TO.N,GND*%
G36*
X170802702Y-64700617D02*
G01*
X171186771Y-64717386D01*
X171197506Y-64718326D01*
X171575971Y-64768152D01*
X171586597Y-64770025D01*
X171959284Y-64852648D01*
X171969710Y-64855442D01*
X172333765Y-64970227D01*
X172343911Y-64973920D01*
X172696578Y-65120000D01*
X172706369Y-65124566D01*
X173044942Y-65300816D01*
X173054310Y-65306224D01*
X173376244Y-65511318D01*
X173385105Y-65517523D01*
X173687930Y-65749889D01*
X173696217Y-65756843D01*
X173977635Y-66014715D01*
X173985284Y-66022364D01*
X174243156Y-66303782D01*
X174250110Y-66312069D01*
X174482476Y-66614894D01*
X174488681Y-66623755D01*
X174693775Y-66945689D01*
X174699183Y-66955057D01*
X174875430Y-67293623D01*
X174880002Y-67303427D01*
X175026075Y-67656078D01*
X175029775Y-67666244D01*
X175144554Y-68030278D01*
X175147354Y-68040727D01*
X175229971Y-68413389D01*
X175231849Y-68424042D01*
X175281671Y-68802473D01*
X175282614Y-68813249D01*
X175299382Y-69197297D01*
X175299500Y-69202706D01*
X175299500Y-111797293D01*
X175299382Y-111802702D01*
X175282614Y-112186750D01*
X175281671Y-112197526D01*
X175231849Y-112575957D01*
X175229971Y-112586610D01*
X175147354Y-112959272D01*
X175144554Y-112969721D01*
X175029775Y-113333755D01*
X175026075Y-113343921D01*
X174880002Y-113696572D01*
X174875430Y-113706376D01*
X174699183Y-114044942D01*
X174693775Y-114054310D01*
X174488681Y-114376244D01*
X174482476Y-114385105D01*
X174250110Y-114687930D01*
X174243156Y-114696217D01*
X173985284Y-114977635D01*
X173977635Y-114985284D01*
X173696217Y-115243156D01*
X173687930Y-115250110D01*
X173385105Y-115482476D01*
X173376244Y-115488681D01*
X173054310Y-115693775D01*
X173044942Y-115699183D01*
X172706376Y-115875430D01*
X172696572Y-115880002D01*
X172343921Y-116026075D01*
X172333755Y-116029775D01*
X171969721Y-116144554D01*
X171959272Y-116147354D01*
X171586610Y-116229971D01*
X171575957Y-116231849D01*
X171197526Y-116281671D01*
X171186750Y-116282614D01*
X170802703Y-116299382D01*
X170797294Y-116299500D01*
X129402706Y-116299500D01*
X129397297Y-116299382D01*
X129013249Y-116282614D01*
X129002473Y-116281671D01*
X128624042Y-116231849D01*
X128613389Y-116229971D01*
X128240727Y-116147354D01*
X128230278Y-116144554D01*
X127866244Y-116029775D01*
X127856078Y-116026075D01*
X127503427Y-115880002D01*
X127493623Y-115875430D01*
X127155057Y-115699183D01*
X127145689Y-115693775D01*
X126823755Y-115488681D01*
X126814894Y-115482476D01*
X126512069Y-115250110D01*
X126503782Y-115243156D01*
X126222364Y-114985284D01*
X126214715Y-114977635D01*
X125956843Y-114696217D01*
X125949889Y-114687930D01*
X125717523Y-114385105D01*
X125711318Y-114376244D01*
X125506224Y-114054310D01*
X125500816Y-114044942D01*
X125324569Y-113706376D01*
X125319997Y-113696572D01*
X125228426Y-113475500D01*
X125173920Y-113343911D01*
X125170224Y-113333755D01*
X125055442Y-112969710D01*
X125052648Y-112959284D01*
X124970025Y-112586597D01*
X124968152Y-112575971D01*
X124918326Y-112197506D01*
X124917386Y-112186771D01*
X124900618Y-111802702D01*
X124900500Y-111797293D01*
X124900500Y-110570528D01*
X127524500Y-110570528D01*
X127524500Y-110879471D01*
X127559086Y-111186437D01*
X127559089Y-111186455D01*
X127627831Y-111487635D01*
X127627835Y-111487647D01*
X127729862Y-111779222D01*
X127729868Y-111779236D01*
X127863903Y-112057562D01*
X127863905Y-112057565D01*
X128028265Y-112319143D01*
X128220880Y-112560674D01*
X128439326Y-112779120D01*
X128680857Y-112971735D01*
X128942435Y-113136095D01*
X129220771Y-113270135D01*
X129220777Y-113270137D01*
X129512352Y-113372164D01*
X129512364Y-113372168D01*
X129813548Y-113440911D01*
X129813554Y-113440911D01*
X129813562Y-113440913D01*
X130018206Y-113463970D01*
X130120529Y-113475499D01*
X130120532Y-113475500D01*
X130120535Y-113475500D01*
X130429468Y-113475500D01*
X130429469Y-113475499D01*
X130586356Y-113457822D01*
X130736437Y-113440913D01*
X130736442Y-113440912D01*
X130736452Y-113440911D01*
X131037636Y-113372168D01*
X131329229Y-113270135D01*
X131607565Y-113136095D01*
X131869143Y-112971735D01*
X132110674Y-112779120D01*
X132329120Y-112560674D01*
X132521735Y-112319143D01*
X132686095Y-112057565D01*
X132820135Y-111779229D01*
X132922168Y-111487636D01*
X132990911Y-111186452D01*
X132997031Y-111132135D01*
X144922000Y-111132135D01*
X144922000Y-112727870D01*
X144922001Y-112727876D01*
X144928408Y-112787483D01*
X144978702Y-112922328D01*
X144978706Y-112922335D01*
X145064952Y-113037544D01*
X145064955Y-113037547D01*
X145180164Y-113123793D01*
X145180171Y-113123797D01*
X145315017Y-113174091D01*
X145315016Y-113174091D01*
X145321944Y-113174835D01*
X145374627Y-113180500D01*
X146520372Y-113180499D01*
X146579983Y-113174091D01*
X146714831Y-113123796D01*
X146715930Y-113122972D01*
X146717217Y-113122492D01*
X146722612Y-113119547D01*
X146723035Y-113120322D01*
X146781387Y-113098552D01*
X146837698Y-113107673D01*
X146918373Y-113141091D01*
X147084277Y-113174091D01*
X147116492Y-113180499D01*
X147116496Y-113180500D01*
X147116497Y-113180500D01*
X147318504Y-113180500D01*
X147318505Y-113180499D01*
X147516627Y-113141091D01*
X147703256Y-113063786D01*
X147784062Y-113009792D01*
X147850734Y-112988917D01*
X147918114Y-113007401D01*
X147921840Y-113009795D01*
X148001979Y-113063343D01*
X148001986Y-113063347D01*
X148188516Y-113140609D01*
X148188525Y-113140612D01*
X148237500Y-113150353D01*
X148237500Y-112295865D01*
X148237567Y-112291789D01*
X148237900Y-112281638D01*
X148243000Y-112256003D01*
X148243000Y-112215830D01*
X148257245Y-112230075D01*
X148342755Y-112279444D01*
X148438130Y-112305000D01*
X148536870Y-112305000D01*
X148632245Y-112279444D01*
X148717755Y-112230075D01*
X148737500Y-112210330D01*
X148737500Y-113150352D01*
X148786474Y-113140612D01*
X148786483Y-113140609D01*
X148973013Y-113063347D01*
X148973026Y-113063340D01*
X149140899Y-112951170D01*
X149140903Y-112951167D01*
X149283667Y-112808403D01*
X149283670Y-112808399D01*
X149395840Y-112640526D01*
X149395847Y-112640513D01*
X149473109Y-112453983D01*
X149473112Y-112453974D01*
X149512499Y-112255958D01*
X149512500Y-112255955D01*
X149512500Y-112180000D01*
X148767830Y-112180000D01*
X148787575Y-112160255D01*
X148836944Y-112074745D01*
X148862500Y-111979370D01*
X148862500Y-111880630D01*
X148836944Y-111785255D01*
X148787575Y-111699745D01*
X148767830Y-111680000D01*
X149512500Y-111680000D01*
X149512500Y-111604045D01*
X149512499Y-111604041D01*
X149473112Y-111406025D01*
X149473109Y-111406016D01*
X149395847Y-111219486D01*
X149395840Y-111219473D01*
X149283670Y-111051600D01*
X149283667Y-111051596D01*
X149140903Y-110908832D01*
X149140899Y-110908829D01*
X148973026Y-110796659D01*
X148973013Y-110796652D01*
X148786484Y-110719390D01*
X148786477Y-110719388D01*
X148737500Y-110709645D01*
X148737500Y-111649670D01*
X148717755Y-111629925D01*
X148632245Y-111580556D01*
X148536870Y-111555000D01*
X148438130Y-111555000D01*
X148342755Y-111580556D01*
X148257245Y-111629925D01*
X148243000Y-111644170D01*
X148243000Y-111603997D01*
X148239883Y-111588326D01*
X148237500Y-111564134D01*
X148237500Y-110709646D01*
X148237499Y-110709645D01*
X148188522Y-110719388D01*
X148188515Y-110719390D01*
X148001981Y-110796654D01*
X148001979Y-110796655D01*
X147921837Y-110850204D01*
X147855160Y-110871081D01*
X147787780Y-110852596D01*
X147784058Y-110850204D01*
X147703254Y-110796212D01*
X147516627Y-110718909D01*
X147516619Y-110718907D01*
X147364622Y-110688673D01*
X147318507Y-110679500D01*
X147318503Y-110679500D01*
X147116497Y-110679500D01*
X147116492Y-110679500D01*
X146918380Y-110718907D01*
X146918368Y-110718910D01*
X146837698Y-110752325D01*
X146768229Y-110759794D01*
X146722842Y-110740036D01*
X146722614Y-110740454D01*
X146717947Y-110737905D01*
X146715932Y-110737028D01*
X146714831Y-110736204D01*
X146714830Y-110736203D01*
X146714828Y-110736202D01*
X146579982Y-110685908D01*
X146579983Y-110685908D01*
X146520383Y-110679501D01*
X146520381Y-110679500D01*
X146520373Y-110679500D01*
X146520364Y-110679500D01*
X145374629Y-110679500D01*
X145374623Y-110679501D01*
X145315016Y-110685908D01*
X145180171Y-110736202D01*
X145180164Y-110736206D01*
X145064955Y-110822452D01*
X145064952Y-110822455D01*
X144978706Y-110937664D01*
X144978702Y-110937671D01*
X144928408Y-111072517D01*
X144922001Y-111132116D01*
X144922000Y-111132135D01*
X132997031Y-111132135D01*
X132997033Y-111132116D01*
X132998971Y-111114922D01*
X132998971Y-111114921D01*
X133018942Y-110937669D01*
X133025500Y-110879465D01*
X133025500Y-110570535D01*
X133025499Y-110570528D01*
X167474500Y-110570528D01*
X167474500Y-110879471D01*
X167509086Y-111186437D01*
X167509089Y-111186455D01*
X167577831Y-111487635D01*
X167577835Y-111487647D01*
X167679862Y-111779222D01*
X167679868Y-111779236D01*
X167813903Y-112057562D01*
X167813905Y-112057565D01*
X167978265Y-112319143D01*
X168170880Y-112560674D01*
X168389326Y-112779120D01*
X168630857Y-112971735D01*
X168892435Y-113136095D01*
X169170771Y-113270135D01*
X169170777Y-113270137D01*
X169462352Y-113372164D01*
X169462364Y-113372168D01*
X169763548Y-113440911D01*
X169763554Y-113440911D01*
X169763562Y-113440913D01*
X169968206Y-113463970D01*
X170070529Y-113475499D01*
X170070532Y-113475500D01*
X170070535Y-113475500D01*
X170379468Y-113475500D01*
X170379469Y-113475499D01*
X170536356Y-113457822D01*
X170686437Y-113440913D01*
X170686442Y-113440912D01*
X170686452Y-113440911D01*
X170987636Y-113372168D01*
X171279229Y-113270135D01*
X171557565Y-113136095D01*
X171819143Y-112971735D01*
X172060674Y-112779120D01*
X172279120Y-112560674D01*
X172471735Y-112319143D01*
X172636095Y-112057565D01*
X172770135Y-111779229D01*
X172872168Y-111487636D01*
X172940911Y-111186452D01*
X172940912Y-111186442D01*
X172940913Y-111186437D01*
X172968942Y-110937669D01*
X172975500Y-110879465D01*
X172975500Y-110570535D01*
X172940911Y-110263548D01*
X172872168Y-109962364D01*
X172770135Y-109670771D01*
X172636095Y-109392435D01*
X172471735Y-109130857D01*
X172279120Y-108889326D01*
X172060674Y-108670880D01*
X171819143Y-108478265D01*
X171557565Y-108313905D01*
X171557562Y-108313903D01*
X171279236Y-108179868D01*
X171279222Y-108179862D01*
X170987647Y-108077835D01*
X170987635Y-108077831D01*
X170686455Y-108009089D01*
X170686437Y-108009086D01*
X170379471Y-107974500D01*
X170379465Y-107974500D01*
X170070535Y-107974500D01*
X170070528Y-107974500D01*
X169763562Y-108009086D01*
X169763544Y-108009089D01*
X169462364Y-108077831D01*
X169462352Y-108077835D01*
X169170777Y-108179862D01*
X169170763Y-108179868D01*
X168892437Y-108313903D01*
X168630858Y-108478264D01*
X168389326Y-108670879D01*
X168170879Y-108889326D01*
X167978264Y-109130858D01*
X167813903Y-109392437D01*
X167679868Y-109670763D01*
X167679862Y-109670777D01*
X167577835Y-109962352D01*
X167577831Y-109962364D01*
X167509089Y-110263544D01*
X167509086Y-110263562D01*
X167474500Y-110570528D01*
X133025499Y-110570528D01*
X132990911Y-110263548D01*
X132922168Y-109962364D01*
X132820135Y-109670771D01*
X132686095Y-109392435D01*
X132521735Y-109130857D01*
X132329120Y-108889326D01*
X132110674Y-108670880D01*
X131869143Y-108478265D01*
X131607565Y-108313905D01*
X131607562Y-108313903D01*
X131329236Y-108179868D01*
X131329222Y-108179862D01*
X131037647Y-108077835D01*
X131037635Y-108077831D01*
X130736455Y-108009089D01*
X130736437Y-108009086D01*
X130429471Y-107974500D01*
X130429465Y-107974500D01*
X130120535Y-107974500D01*
X130120528Y-107974500D01*
X129813562Y-108009086D01*
X129813544Y-108009089D01*
X129512364Y-108077831D01*
X129512352Y-108077835D01*
X129220777Y-108179862D01*
X129220763Y-108179868D01*
X128942437Y-108313903D01*
X128680858Y-108478264D01*
X128439326Y-108670879D01*
X128220879Y-108889326D01*
X128028264Y-109130858D01*
X127863903Y-109392437D01*
X127729868Y-109670763D01*
X127729862Y-109670777D01*
X127627835Y-109962352D01*
X127627831Y-109962364D01*
X127559089Y-110263544D01*
X127559086Y-110263562D01*
X127524500Y-110570528D01*
X124900500Y-110570528D01*
X124900500Y-104205513D01*
X134389500Y-104205513D01*
X134389500Y-104394486D01*
X134419059Y-104581118D01*
X134477454Y-104760836D01*
X134538572Y-104880785D01*
X134563240Y-104929199D01*
X134674310Y-105082073D01*
X134807927Y-105215690D01*
X134960801Y-105326760D01*
X135040347Y-105367290D01*
X135129163Y-105412545D01*
X135129165Y-105412545D01*
X135129168Y-105412547D01*
X135225497Y-105443846D01*
X135308881Y-105470940D01*
X135495514Y-105500500D01*
X135495519Y-105500500D01*
X135684486Y-105500500D01*
X135871118Y-105470940D01*
X136050832Y-105412547D01*
X136219199Y-105326760D01*
X136372073Y-105215690D01*
X136505690Y-105082073D01*
X136616760Y-104929199D01*
X136702547Y-104760832D01*
X136760940Y-104581118D01*
X136783832Y-104436584D01*
X136790500Y-104394486D01*
X136790500Y-104205513D01*
X142009500Y-104205513D01*
X142009500Y-104394486D01*
X142039059Y-104581118D01*
X142097454Y-104760836D01*
X142158572Y-104880785D01*
X142183240Y-104929199D01*
X142294310Y-105082073D01*
X142427927Y-105215690D01*
X142580801Y-105326760D01*
X142660347Y-105367290D01*
X142749163Y-105412545D01*
X142749165Y-105412545D01*
X142749168Y-105412547D01*
X142845497Y-105443846D01*
X142928881Y-105470940D01*
X143115514Y-105500500D01*
X143115519Y-105500500D01*
X143304486Y-105500500D01*
X143491118Y-105470940D01*
X143670832Y-105412547D01*
X143839199Y-105326760D01*
X143992073Y-105215690D01*
X144125690Y-105082073D01*
X144236760Y-104929199D01*
X144322547Y-104760832D01*
X144380940Y-104581118D01*
X144403832Y-104436584D01*
X144410500Y-104394486D01*
X144410500Y-104205513D01*
X144380940Y-104018881D01*
X144322545Y-103839163D01*
X144236759Y-103670800D01*
X144125690Y-103517927D01*
X143992073Y-103384310D01*
X143839199Y-103273240D01*
X143670836Y-103187454D01*
X143491118Y-103129059D01*
X143304486Y-103099500D01*
X143304481Y-103099500D01*
X143115519Y-103099500D01*
X143115514Y-103099500D01*
X142928881Y-103129059D01*
X142749163Y-103187454D01*
X142580800Y-103273240D01*
X142493579Y-103336610D01*
X142427927Y-103384310D01*
X142427925Y-103384312D01*
X142427924Y-103384312D01*
X142294312Y-103517924D01*
X142294312Y-103517925D01*
X142294310Y-103517927D01*
X142246610Y-103583579D01*
X142183240Y-103670800D01*
X142097454Y-103839163D01*
X142039059Y-104018881D01*
X142009500Y-104205513D01*
X136790500Y-104205513D01*
X136760940Y-104018881D01*
X136702545Y-103839163D01*
X136616759Y-103670800D01*
X136505690Y-103517927D01*
X136372073Y-103384310D01*
X136219199Y-103273240D01*
X136050836Y-103187454D01*
X135871118Y-103129059D01*
X135684486Y-103099500D01*
X135684481Y-103099500D01*
X135495519Y-103099500D01*
X135495514Y-103099500D01*
X135308881Y-103129059D01*
X135129163Y-103187454D01*
X134960800Y-103273240D01*
X134873579Y-103336610D01*
X134807927Y-103384310D01*
X134807925Y-103384312D01*
X134807924Y-103384312D01*
X134674312Y-103517924D01*
X134674312Y-103517925D01*
X134674310Y-103517927D01*
X134626610Y-103583579D01*
X134563240Y-103670800D01*
X134477454Y-103839163D01*
X134419059Y-104018881D01*
X134389500Y-104205513D01*
X124900500Y-104205513D01*
X124900500Y-100134084D01*
X134389500Y-100134084D01*
X134389500Y-100323057D01*
X134419059Y-100509689D01*
X134477454Y-100689407D01*
X134563240Y-100857770D01*
X134674310Y-101010644D01*
X134807927Y-101144261D01*
X134960801Y-101255331D01*
X135040347Y-101295861D01*
X135129163Y-101341116D01*
X135129165Y-101341116D01*
X135129168Y-101341118D01*
X135225497Y-101372417D01*
X135308881Y-101399511D01*
X135495514Y-101429071D01*
X135495519Y-101429071D01*
X135684486Y-101429071D01*
X135871118Y-101399511D01*
X136050832Y-101341118D01*
X136219199Y-101255331D01*
X136372073Y-101144261D01*
X136505690Y-101010644D01*
X136616760Y-100857770D01*
X136702547Y-100689403D01*
X136760940Y-100509689D01*
X136790500Y-100323057D01*
X136790500Y-100134084D01*
X142009500Y-100134084D01*
X142009500Y-100323057D01*
X142039059Y-100509689D01*
X142097454Y-100689407D01*
X142183240Y-100857770D01*
X142294310Y-101010644D01*
X142427927Y-101144261D01*
X142580801Y-101255331D01*
X142660347Y-101295861D01*
X142749163Y-101341116D01*
X142749165Y-101341116D01*
X142749168Y-101341118D01*
X142845497Y-101372417D01*
X142928881Y-101399511D01*
X143115514Y-101429071D01*
X143115519Y-101429071D01*
X143304486Y-101429071D01*
X143491118Y-101399511D01*
X143670832Y-101341118D01*
X143839199Y-101255331D01*
X143992073Y-101144261D01*
X144125690Y-101010644D01*
X144236760Y-100857770D01*
X144322547Y-100689403D01*
X144380940Y-100509689D01*
X144410500Y-100323057D01*
X144410500Y-100134084D01*
X144380940Y-99947452D01*
X144322545Y-99767734D01*
X144277290Y-99678918D01*
X144236760Y-99599372D01*
X144125690Y-99446498D01*
X143992073Y-99312881D01*
X143839199Y-99201811D01*
X143670836Y-99116025D01*
X143491118Y-99057630D01*
X143304486Y-99028071D01*
X143304481Y-99028071D01*
X143115519Y-99028071D01*
X143115514Y-99028071D01*
X142928881Y-99057630D01*
X142749163Y-99116025D01*
X142580800Y-99201811D01*
X142502250Y-99258882D01*
X142427927Y-99312881D01*
X142427925Y-99312883D01*
X142427924Y-99312883D01*
X142294312Y-99446495D01*
X142294312Y-99446496D01*
X142294310Y-99446498D01*
X142273966Y-99474499D01*
X142183240Y-99599371D01*
X142097454Y-99767734D01*
X142039059Y-99947452D01*
X142009500Y-100134084D01*
X136790500Y-100134084D01*
X136760940Y-99947452D01*
X136702545Y-99767734D01*
X136657290Y-99678918D01*
X136616760Y-99599372D01*
X136505690Y-99446498D01*
X136372073Y-99312881D01*
X136219199Y-99201811D01*
X136050836Y-99116025D01*
X135871118Y-99057630D01*
X135684486Y-99028071D01*
X135684481Y-99028071D01*
X135495519Y-99028071D01*
X135495514Y-99028071D01*
X135308881Y-99057630D01*
X135129163Y-99116025D01*
X134960800Y-99201811D01*
X134882250Y-99258882D01*
X134807927Y-99312881D01*
X134807925Y-99312883D01*
X134807924Y-99312883D01*
X134674312Y-99446495D01*
X134674312Y-99446496D01*
X134674310Y-99446498D01*
X134653966Y-99474499D01*
X134563240Y-99599371D01*
X134477454Y-99767734D01*
X134419059Y-99947452D01*
X134389500Y-100134084D01*
X124900500Y-100134084D01*
X124900500Y-98020065D01*
X124920185Y-97953026D01*
X124972989Y-97907271D01*
X125042147Y-97897327D01*
X125105703Y-97926352D01*
X125123764Y-97945751D01*
X125207454Y-98057546D01*
X125253643Y-98092123D01*
X125322664Y-98143793D01*
X125322671Y-98143797D01*
X125457517Y-98194091D01*
X125457516Y-98194091D01*
X125464444Y-98194835D01*
X125517127Y-98200500D01*
X127412872Y-98200499D01*
X127472483Y-98194091D01*
X127607331Y-98143796D01*
X127722546Y-98057546D01*
X127808796Y-97942331D01*
X127821873Y-97907271D01*
X127838601Y-97862420D01*
X127880471Y-97806486D01*
X127945936Y-97782068D01*
X128014209Y-97796919D01*
X128042464Y-97818071D01*
X128092636Y-97868243D01*
X128092641Y-97868247D01*
X128209331Y-97953026D01*
X128270978Y-97997815D01*
X128399375Y-98063237D01*
X128467393Y-98097895D01*
X128467396Y-98097896D01*
X128572221Y-98131955D01*
X128677049Y-98166015D01*
X128894778Y-98200500D01*
X128894779Y-98200500D01*
X129115221Y-98200500D01*
X129115222Y-98200500D01*
X129332951Y-98166015D01*
X129542606Y-98097895D01*
X129731560Y-98001617D01*
X146470000Y-98001617D01*
X146470000Y-98198382D01*
X146500778Y-98392705D01*
X146561581Y-98579835D01*
X146650905Y-98755145D01*
X146676319Y-98790125D01*
X146676320Y-98790125D01*
X147320000Y-98146445D01*
X147320000Y-98152661D01*
X147347259Y-98254394D01*
X147399920Y-98345606D01*
X147474394Y-98420080D01*
X147565606Y-98472741D01*
X147667339Y-98500000D01*
X147673553Y-98500000D01*
X147029873Y-99143677D01*
X147029873Y-99143678D01*
X147064858Y-99169096D01*
X147240164Y-99258418D01*
X147427294Y-99319221D01*
X147621618Y-99350000D01*
X147818382Y-99350000D01*
X148012705Y-99319221D01*
X148199835Y-99258418D01*
X148375143Y-99169095D01*
X148410125Y-99143678D01*
X148410126Y-99143678D01*
X147766448Y-98500000D01*
X147772661Y-98500000D01*
X147874394Y-98472741D01*
X147965606Y-98420080D01*
X148040080Y-98345606D01*
X148092741Y-98254394D01*
X148120000Y-98152661D01*
X148120000Y-98146448D01*
X148763678Y-98790126D01*
X148763678Y-98790125D01*
X148789097Y-98755141D01*
X148879234Y-98578236D01*
X148927208Y-98527439D01*
X148995029Y-98510644D01*
X149061164Y-98533181D01*
X149100204Y-98578235D01*
X149101115Y-98580024D01*
X149101116Y-98580025D01*
X149190476Y-98755405D01*
X149306172Y-98914646D01*
X149445354Y-99053828D01*
X149604595Y-99169524D01*
X149667962Y-99201811D01*
X149779970Y-99258882D01*
X149779972Y-99258882D01*
X149779975Y-99258884D01*
X149880317Y-99291487D01*
X149967173Y-99319709D01*
X150161578Y-99350500D01*
X150161583Y-99350500D01*
X150358422Y-99350500D01*
X150552826Y-99319709D01*
X150632574Y-99293797D01*
X150740025Y-99258884D01*
X150915405Y-99169524D01*
X151074646Y-99053828D01*
X151213828Y-98914646D01*
X151325184Y-98761378D01*
X151380512Y-98718714D01*
X151450125Y-98712735D01*
X151511920Y-98745341D01*
X151546277Y-98806179D01*
X151549500Y-98834263D01*
X151549500Y-98897869D01*
X151549501Y-98897876D01*
X151555908Y-98957483D01*
X151606202Y-99092328D01*
X151606206Y-99092335D01*
X151692452Y-99207544D01*
X151692455Y-99207547D01*
X151807664Y-99293793D01*
X151807671Y-99293797D01*
X151942517Y-99344091D01*
X151942516Y-99344091D01*
X151949444Y-99344835D01*
X152002127Y-99350500D01*
X153126500Y-99350499D01*
X153193539Y-99370184D01*
X153239294Y-99422987D01*
X153250500Y-99474499D01*
X153250500Y-104348903D01*
X153230815Y-104415942D01*
X153214181Y-104436584D01*
X152085339Y-105565425D01*
X152024016Y-105598910D01*
X152021850Y-105599361D01*
X151866508Y-105630261D01*
X151866498Y-105630264D01*
X151720827Y-105690602D01*
X151720814Y-105690609D01*
X151589711Y-105778210D01*
X151589707Y-105778213D01*
X151478213Y-105889707D01*
X151478210Y-105889711D01*
X151390609Y-106020814D01*
X151390602Y-106020827D01*
X151330264Y-106166498D01*
X151330261Y-106166510D01*
X151299500Y-106321153D01*
X151299500Y-106478846D01*
X151330261Y-106633489D01*
X151330264Y-106633501D01*
X151390602Y-106779172D01*
X151390609Y-106779185D01*
X151478210Y-106910288D01*
X151478213Y-106910292D01*
X151589707Y-107021786D01*
X151589711Y-107021789D01*
X151720814Y-107109390D01*
X151720827Y-107109397D01*
X151866498Y-107169735D01*
X151866503Y-107169737D01*
X152021153Y-107200499D01*
X152021156Y-107200500D01*
X152021158Y-107200500D01*
X152178844Y-107200500D01*
X152178845Y-107200499D01*
X152333497Y-107169737D01*
X152479179Y-107109394D01*
X152610289Y-107021789D01*
X152721789Y-106910289D01*
X152809394Y-106779179D01*
X152869737Y-106633497D01*
X152889113Y-106536085D01*
X152900638Y-106478150D01*
X152933023Y-106416239D01*
X152934520Y-106414714D01*
X154209506Y-105139727D01*
X154209511Y-105139724D01*
X154219714Y-105129520D01*
X154219716Y-105129520D01*
X154331520Y-105017716D01*
X154334945Y-105011783D01*
X154382625Y-104929200D01*
X154382625Y-104929199D01*
X154410577Y-104880785D01*
X154451501Y-104728057D01*
X154451501Y-104569943D01*
X154451501Y-104562348D01*
X154451500Y-104562330D01*
X154451500Y-100244983D01*
X168309500Y-100244983D01*
X168309500Y-102445001D01*
X168309501Y-102445018D01*
X168320000Y-102547796D01*
X168320001Y-102547799D01*
X168375185Y-102714331D01*
X168375186Y-102714334D01*
X168467288Y-102863656D01*
X168591344Y-102987712D01*
X168740666Y-103079814D01*
X168907203Y-103134999D01*
X169009991Y-103145500D01*
X171210008Y-103145499D01*
X171312797Y-103134999D01*
X171479334Y-103079814D01*
X171628656Y-102987712D01*
X171752712Y-102863656D01*
X171844814Y-102714334D01*
X171899999Y-102547797D01*
X171910500Y-102445009D01*
X171910499Y-100244992D01*
X171899999Y-100142203D01*
X171844814Y-99975666D01*
X171752712Y-99826344D01*
X171628656Y-99702288D01*
X171479334Y-99610186D01*
X171312797Y-99555001D01*
X171312795Y-99555000D01*
X171210010Y-99544500D01*
X169009998Y-99544500D01*
X169009981Y-99544501D01*
X168907203Y-99555000D01*
X168907200Y-99555001D01*
X168740668Y-99610185D01*
X168740663Y-99610187D01*
X168591342Y-99702289D01*
X168467289Y-99826342D01*
X168375187Y-99975663D01*
X168375186Y-99975666D01*
X168320001Y-100142203D01*
X168320001Y-100142204D01*
X168320000Y-100142204D01*
X168309500Y-100244983D01*
X154451500Y-100244983D01*
X154451500Y-96146995D01*
X168309500Y-96146995D01*
X168309500Y-96383004D01*
X168309501Y-96383020D01*
X168340306Y-96617010D01*
X168401394Y-96844993D01*
X168491714Y-97063045D01*
X168491719Y-97063056D01*
X168539707Y-97146172D01*
X168609727Y-97267450D01*
X168609729Y-97267453D01*
X168609730Y-97267454D01*
X168753406Y-97454697D01*
X168753412Y-97454704D01*
X168920295Y-97621587D01*
X168920301Y-97621592D01*
X169107550Y-97765273D01*
X169198999Y-97818071D01*
X169311943Y-97883280D01*
X169311948Y-97883282D01*
X169311951Y-97883284D01*
X169530007Y-97973606D01*
X169757986Y-98034693D01*
X169991989Y-98065500D01*
X169991996Y-98065500D01*
X170228004Y-98065500D01*
X170228011Y-98065500D01*
X170462014Y-98034693D01*
X170689993Y-97973606D01*
X170908049Y-97883284D01*
X171112450Y-97765273D01*
X171299699Y-97621592D01*
X171466592Y-97454699D01*
X171610273Y-97267450D01*
X171728284Y-97063049D01*
X171818606Y-96844993D01*
X171879693Y-96617014D01*
X171910500Y-96383011D01*
X171910500Y-96146989D01*
X171879693Y-95912986D01*
X171818606Y-95685007D01*
X171728284Y-95466951D01*
X171728282Y-95466948D01*
X171728280Y-95466943D01*
X171668508Y-95363416D01*
X171610273Y-95262550D01*
X171466592Y-95075301D01*
X171466587Y-95075295D01*
X171299704Y-94908412D01*
X171299697Y-94908406D01*
X171112454Y-94764730D01*
X171112453Y-94764729D01*
X171112450Y-94764727D01*
X171030957Y-94717677D01*
X170908056Y-94646719D01*
X170908045Y-94646714D01*
X170689993Y-94556394D01*
X170462010Y-94495306D01*
X170228020Y-94464501D01*
X170228017Y-94464500D01*
X170228011Y-94464500D01*
X169991989Y-94464500D01*
X169991983Y-94464500D01*
X169991979Y-94464501D01*
X169757989Y-94495306D01*
X169530006Y-94556394D01*
X169311954Y-94646714D01*
X169311943Y-94646719D01*
X169107545Y-94764730D01*
X168920302Y-94908406D01*
X168920295Y-94908412D01*
X168753412Y-95075295D01*
X168753406Y-95075302D01*
X168609730Y-95262545D01*
X168491719Y-95466943D01*
X168491714Y-95466954D01*
X168401394Y-95685006D01*
X168340306Y-95912989D01*
X168309501Y-96146979D01*
X168309500Y-96146995D01*
X154451500Y-96146995D01*
X154451500Y-95071945D01*
X154451500Y-95071943D01*
X154410577Y-94919216D01*
X154410577Y-94919215D01*
X154410577Y-94919214D01*
X154381639Y-94869095D01*
X154381637Y-94869092D01*
X154331520Y-94782284D01*
X154219716Y-94670480D01*
X154219715Y-94670479D01*
X154215385Y-94666149D01*
X154215374Y-94666139D01*
X152761416Y-93212181D01*
X152727931Y-93150858D01*
X152732915Y-93081166D01*
X152774787Y-93025233D01*
X152840251Y-93000816D01*
X152849097Y-93000500D01*
X154120234Y-93000500D01*
X154187273Y-93020185D01*
X154189125Y-93021398D01*
X154320814Y-93109390D01*
X154320827Y-93109397D01*
X154466498Y-93169735D01*
X154466503Y-93169737D01*
X154609892Y-93198259D01*
X154621153Y-93200499D01*
X154621156Y-93200500D01*
X154621158Y-93200500D01*
X154778844Y-93200500D01*
X154778845Y-93200499D01*
X154933497Y-93169737D01*
X155079179Y-93109394D01*
X155210289Y-93021789D01*
X155321789Y-92910289D01*
X155409394Y-92779179D01*
X155469737Y-92633497D01*
X155500500Y-92478842D01*
X155500500Y-92321158D01*
X155500500Y-92321155D01*
X155500499Y-92321153D01*
X155469737Y-92166503D01*
X155469735Y-92166498D01*
X155409397Y-92020827D01*
X155409390Y-92020814D01*
X155321789Y-91889711D01*
X155321786Y-91889707D01*
X155210292Y-91778213D01*
X155210288Y-91778210D01*
X155079185Y-91690609D01*
X155079172Y-91690602D01*
X154933501Y-91630264D01*
X154933489Y-91630261D01*
X154778845Y-91599500D01*
X154778842Y-91599500D01*
X154621158Y-91599500D01*
X154621155Y-91599500D01*
X154466510Y-91630261D01*
X154466498Y-91630264D01*
X154320827Y-91690602D01*
X154320814Y-91690609D01*
X154189125Y-91778602D01*
X154122447Y-91799480D01*
X154120234Y-91799500D01*
X153200097Y-91799500D01*
X153133058Y-91779815D01*
X153112416Y-91763181D01*
X151634574Y-90285339D01*
X151601089Y-90224016D01*
X151600638Y-90221849D01*
X151569738Y-90066510D01*
X151569738Y-90066508D01*
X151569737Y-90066503D01*
X151550812Y-90020814D01*
X151509397Y-89920827D01*
X151509390Y-89920814D01*
X151421789Y-89789711D01*
X151421786Y-89789707D01*
X151310292Y-89678213D01*
X151310288Y-89678210D01*
X151179185Y-89590609D01*
X151179172Y-89590602D01*
X151033501Y-89530264D01*
X151033489Y-89530261D01*
X150878845Y-89499500D01*
X150878842Y-89499500D01*
X150721158Y-89499500D01*
X150721155Y-89499500D01*
X150566510Y-89530261D01*
X150566498Y-89530264D01*
X150420827Y-89590602D01*
X150420814Y-89590609D01*
X150289711Y-89678210D01*
X150289707Y-89678213D01*
X150178213Y-89789707D01*
X150178210Y-89789711D01*
X150090609Y-89920814D01*
X150090602Y-89920827D01*
X150030264Y-90066498D01*
X150030261Y-90066508D01*
X150003769Y-90199692D01*
X149971384Y-90261603D01*
X149910668Y-90296177D01*
X149882152Y-90299500D01*
X149721155Y-90299500D01*
X149566510Y-90330261D01*
X149566498Y-90330264D01*
X149420827Y-90390602D01*
X149420814Y-90390609D01*
X149289711Y-90478210D01*
X149289707Y-90478213D01*
X149178213Y-90589707D01*
X149178210Y-90589711D01*
X149090609Y-90720814D01*
X149090602Y-90720827D01*
X149030264Y-90866498D01*
X149030261Y-90866510D01*
X148999500Y-91021153D01*
X148999500Y-91178846D01*
X149030261Y-91333489D01*
X149030264Y-91333501D01*
X149090602Y-91479172D01*
X149090609Y-91479185D01*
X149178210Y-91610288D01*
X149178213Y-91610292D01*
X149289707Y-91721786D01*
X149289711Y-91721789D01*
X149420814Y-91809390D01*
X149420827Y-91809397D01*
X149566498Y-91869735D01*
X149566503Y-91869737D01*
X149631147Y-91882595D01*
X149721849Y-91900638D01*
X149783760Y-91933023D01*
X149785339Y-91934574D01*
X153214181Y-95363416D01*
X153247666Y-95424739D01*
X153250500Y-95451097D01*
X153250500Y-96725500D01*
X153230815Y-96792539D01*
X153178011Y-96838294D01*
X153126500Y-96849500D01*
X152002129Y-96849500D01*
X152002123Y-96849501D01*
X151942516Y-96855908D01*
X151807671Y-96906202D01*
X151807664Y-96906206D01*
X151692455Y-96992452D01*
X151692452Y-96992455D01*
X151606206Y-97107664D01*
X151606202Y-97107671D01*
X151555908Y-97242517D01*
X151549501Y-97302116D01*
X151549500Y-97302135D01*
X151549500Y-97365732D01*
X151529815Y-97432771D01*
X151477011Y-97478526D01*
X151407853Y-97488470D01*
X151344297Y-97459445D01*
X151325182Y-97438618D01*
X151266349Y-97357643D01*
X151213828Y-97285354D01*
X151074646Y-97146172D01*
X150915405Y-97030476D01*
X150886794Y-97015898D01*
X150740029Y-96941117D01*
X150552826Y-96880290D01*
X150358422Y-96849500D01*
X150358417Y-96849500D01*
X150161583Y-96849500D01*
X150161578Y-96849500D01*
X149967173Y-96880290D01*
X149779970Y-96941117D01*
X149604594Y-97030476D01*
X149546300Y-97072830D01*
X149445354Y-97146172D01*
X149445352Y-97146174D01*
X149445351Y-97146174D01*
X149306174Y-97285351D01*
X149306174Y-97285352D01*
X149306172Y-97285354D01*
X149256485Y-97353741D01*
X149190476Y-97444594D01*
X149100204Y-97621764D01*
X149052229Y-97672560D01*
X148984408Y-97689355D01*
X148918274Y-97666818D01*
X148879234Y-97621764D01*
X148789096Y-97444858D01*
X148763678Y-97409873D01*
X148763677Y-97409873D01*
X148120000Y-98053551D01*
X148120000Y-98047339D01*
X148092741Y-97945606D01*
X148040080Y-97854394D01*
X147965606Y-97779920D01*
X147874394Y-97727259D01*
X147772661Y-97700000D01*
X147766447Y-97700000D01*
X148410125Y-97056320D01*
X148410125Y-97056319D01*
X148375145Y-97030905D01*
X148199835Y-96941581D01*
X148012705Y-96880778D01*
X147818382Y-96850000D01*
X147621618Y-96850000D01*
X147427294Y-96880778D01*
X147240161Y-96941582D01*
X147064863Y-97030899D01*
X147064859Y-97030902D01*
X147029873Y-97056320D01*
X147029872Y-97056320D01*
X147673554Y-97700000D01*
X147667339Y-97700000D01*
X147565606Y-97727259D01*
X147474394Y-97779920D01*
X147399920Y-97854394D01*
X147347259Y-97945606D01*
X147320000Y-98047339D01*
X147320000Y-98053552D01*
X146676320Y-97409872D01*
X146676320Y-97409873D01*
X146650902Y-97444859D01*
X146650899Y-97444863D01*
X146561582Y-97620161D01*
X146500778Y-97807294D01*
X146470000Y-98001617D01*
X129731560Y-98001617D01*
X129739022Y-97997815D01*
X129877333Y-97897327D01*
X129878564Y-97896433D01*
X129878565Y-97896432D01*
X129917361Y-97868245D01*
X129917361Y-97868244D01*
X129917365Y-97868242D01*
X130073242Y-97712365D01*
X130202815Y-97534022D01*
X130302895Y-97337606D01*
X130371015Y-97127951D01*
X130405500Y-96910222D01*
X130405500Y-96689778D01*
X130371015Y-96472049D01*
X130302895Y-96262394D01*
X130302895Y-96262393D01*
X130227327Y-96114085D01*
X130227326Y-96114083D01*
X130202814Y-96065976D01*
X130200402Y-96062656D01*
X134389500Y-96062656D01*
X134389500Y-96251629D01*
X134419059Y-96438261D01*
X134477454Y-96617979D01*
X134563240Y-96786342D01*
X134674310Y-96939216D01*
X134807927Y-97072833D01*
X134960801Y-97183903D01*
X135040347Y-97224433D01*
X135129163Y-97269688D01*
X135129165Y-97269688D01*
X135129168Y-97269690D01*
X135177377Y-97285354D01*
X135308881Y-97328083D01*
X135495514Y-97357643D01*
X135495519Y-97357643D01*
X135684486Y-97357643D01*
X135871118Y-97328083D01*
X136050832Y-97269690D01*
X136219199Y-97183903D01*
X136372073Y-97072833D01*
X136505690Y-96939216D01*
X136616760Y-96786342D01*
X136702547Y-96617975D01*
X136760940Y-96438261D01*
X136769692Y-96383004D01*
X136790500Y-96251629D01*
X136790500Y-96062656D01*
X142009500Y-96062656D01*
X142009500Y-96251629D01*
X142039059Y-96438261D01*
X142097454Y-96617979D01*
X142183240Y-96786342D01*
X142294310Y-96939216D01*
X142427927Y-97072833D01*
X142580801Y-97183903D01*
X142660347Y-97224433D01*
X142749163Y-97269688D01*
X142749165Y-97269688D01*
X142749168Y-97269690D01*
X142797377Y-97285354D01*
X142928881Y-97328083D01*
X143115514Y-97357643D01*
X143115519Y-97357643D01*
X143304486Y-97357643D01*
X143491118Y-97328083D01*
X143670832Y-97269690D01*
X143839199Y-97183903D01*
X143992073Y-97072833D01*
X144125690Y-96939216D01*
X144236760Y-96786342D01*
X144322547Y-96617975D01*
X144380940Y-96438261D01*
X144389692Y-96383004D01*
X144410500Y-96251629D01*
X144410500Y-96062656D01*
X144380940Y-95876024D01*
X144335956Y-95737580D01*
X144322547Y-95696311D01*
X144322545Y-95696308D01*
X144322545Y-95696306D01*
X144263250Y-95579934D01*
X144236760Y-95527944D01*
X144125690Y-95375070D01*
X143992073Y-95241453D01*
X143839199Y-95130383D01*
X143670836Y-95044597D01*
X143491118Y-94986202D01*
X143304486Y-94956643D01*
X143304481Y-94956643D01*
X143115519Y-94956643D01*
X143115514Y-94956643D01*
X142928881Y-94986202D01*
X142749163Y-95044597D01*
X142580800Y-95130383D01*
X142493579Y-95193753D01*
X142427927Y-95241453D01*
X142427925Y-95241455D01*
X142427924Y-95241455D01*
X142294312Y-95375067D01*
X142294312Y-95375068D01*
X142294310Y-95375070D01*
X142276560Y-95399501D01*
X142183240Y-95527943D01*
X142097454Y-95696306D01*
X142039059Y-95876024D01*
X142009500Y-96062656D01*
X136790500Y-96062656D01*
X136760940Y-95876024D01*
X136715956Y-95737580D01*
X136702547Y-95696311D01*
X136702545Y-95696308D01*
X136702545Y-95696306D01*
X136643250Y-95579934D01*
X136616760Y-95527944D01*
X136505690Y-95375070D01*
X136372073Y-95241453D01*
X136219199Y-95130383D01*
X136050836Y-95044597D01*
X135871118Y-94986202D01*
X135684486Y-94956643D01*
X135684481Y-94956643D01*
X135495519Y-94956643D01*
X135495514Y-94956643D01*
X135308881Y-94986202D01*
X135129163Y-95044597D01*
X134960800Y-95130383D01*
X134873579Y-95193753D01*
X134807927Y-95241453D01*
X134807925Y-95241455D01*
X134807924Y-95241455D01*
X134674312Y-95375067D01*
X134674312Y-95375068D01*
X134674310Y-95375070D01*
X134656560Y-95399501D01*
X134563240Y-95527943D01*
X134477454Y-95696306D01*
X134419059Y-95876024D01*
X134389500Y-96062656D01*
X130200402Y-96062656D01*
X130073247Y-95887641D01*
X130073243Y-95887636D01*
X129917363Y-95731756D01*
X129917358Y-95731752D01*
X129739025Y-95602187D01*
X129739024Y-95602186D01*
X129739022Y-95602185D01*
X129621791Y-95542452D01*
X129542606Y-95502104D01*
X129542603Y-95502103D01*
X129332952Y-95433985D01*
X129224086Y-95416742D01*
X129115222Y-95399500D01*
X128894778Y-95399500D01*
X128822201Y-95410995D01*
X128677047Y-95433985D01*
X128467396Y-95502103D01*
X128467393Y-95502104D01*
X128270974Y-95602187D01*
X128092641Y-95731752D01*
X128092636Y-95731756D01*
X128042463Y-95781929D01*
X127981140Y-95815413D01*
X127911448Y-95810428D01*
X127855515Y-95768557D01*
X127838601Y-95737580D01*
X127808797Y-95657671D01*
X127808793Y-95657664D01*
X127722547Y-95542455D01*
X127722544Y-95542452D01*
X127607335Y-95456206D01*
X127607328Y-95456202D01*
X127472482Y-95405908D01*
X127472483Y-95405908D01*
X127412883Y-95399501D01*
X127412881Y-95399500D01*
X127412873Y-95399500D01*
X127412864Y-95399500D01*
X125517129Y-95399500D01*
X125517123Y-95399501D01*
X125457516Y-95405908D01*
X125322671Y-95456202D01*
X125322664Y-95456206D01*
X125207455Y-95542452D01*
X125123766Y-95654246D01*
X125067832Y-95696116D01*
X124998141Y-95701100D01*
X124936818Y-95667614D01*
X124903333Y-95606291D01*
X124900500Y-95579934D01*
X124900500Y-84516746D01*
X127749500Y-84516746D01*
X127749500Y-84733253D01*
X127783370Y-84947098D01*
X127850272Y-85153006D01*
X127850273Y-85153009D01*
X127948567Y-85345919D01*
X128075828Y-85521078D01*
X128228922Y-85674172D01*
X128404081Y-85801433D01*
X128498697Y-85849642D01*
X128596990Y-85899726D01*
X128596993Y-85899727D01*
X128699947Y-85933178D01*
X128802903Y-85966630D01*
X129016746Y-86000500D01*
X129016747Y-86000500D01*
X129233253Y-86000500D01*
X129233254Y-86000500D01*
X129447097Y-85966630D01*
X129503365Y-85948346D01*
X129573203Y-85946351D01*
X129629362Y-85978597D01*
X134065425Y-90414660D01*
X134098910Y-90475983D01*
X134099361Y-90478149D01*
X134130261Y-90633491D01*
X134130264Y-90633501D01*
X134190602Y-90779172D01*
X134190609Y-90779185D01*
X134278210Y-90910288D01*
X134278213Y-90910292D01*
X134389707Y-91021786D01*
X134389711Y-91021789D01*
X134520814Y-91109390D01*
X134520821Y-91109394D01*
X134601967Y-91143005D01*
X134656368Y-91186843D01*
X134678434Y-91253137D01*
X134661156Y-91320837D01*
X134654831Y-91330450D01*
X134563242Y-91456511D01*
X134477454Y-91624877D01*
X134419059Y-91804595D01*
X134389500Y-91991227D01*
X134389500Y-92180200D01*
X134419059Y-92366832D01*
X134477454Y-92546550D01*
X134563240Y-92714913D01*
X134674310Y-92867787D01*
X134807927Y-93001404D01*
X134960801Y-93112474D01*
X135036134Y-93150858D01*
X135129163Y-93198259D01*
X135129165Y-93198259D01*
X135129168Y-93198261D01*
X135225497Y-93229560D01*
X135308881Y-93256654D01*
X135495514Y-93286214D01*
X135495519Y-93286214D01*
X135684486Y-93286214D01*
X135871118Y-93256654D01*
X136050832Y-93198261D01*
X136219199Y-93112474D01*
X136372073Y-93001404D01*
X136505690Y-92867787D01*
X136616760Y-92714913D01*
X136702547Y-92546546D01*
X136760940Y-92366832D01*
X136768174Y-92321158D01*
X136790500Y-92180200D01*
X136790500Y-91991227D01*
X142009500Y-91991227D01*
X142009500Y-92180200D01*
X142039059Y-92366832D01*
X142097454Y-92546550D01*
X142183240Y-92714913D01*
X142294310Y-92867787D01*
X142427927Y-93001404D01*
X142580801Y-93112474D01*
X142656134Y-93150858D01*
X142749163Y-93198259D01*
X142749165Y-93198259D01*
X142749168Y-93198261D01*
X142845497Y-93229560D01*
X142928881Y-93256654D01*
X143115514Y-93286214D01*
X143115519Y-93286214D01*
X143304486Y-93286214D01*
X143491118Y-93256654D01*
X143670832Y-93198261D01*
X143839199Y-93112474D01*
X143992073Y-93001404D01*
X144125690Y-92867787D01*
X144236760Y-92714913D01*
X144322547Y-92546546D01*
X144380940Y-92366832D01*
X144388174Y-92321158D01*
X144410500Y-92180200D01*
X144410500Y-91991227D01*
X144380940Y-91804595D01*
X144343901Y-91690602D01*
X144322547Y-91624882D01*
X144322545Y-91624879D01*
X144322545Y-91624877D01*
X144248311Y-91479185D01*
X144236760Y-91456515D01*
X144125690Y-91303641D01*
X143992073Y-91170024D01*
X143839199Y-91058954D01*
X143670836Y-90973168D01*
X143491118Y-90914773D01*
X143304486Y-90885214D01*
X143304481Y-90885214D01*
X143115519Y-90885214D01*
X143115514Y-90885214D01*
X142928881Y-90914773D01*
X142749163Y-90973168D01*
X142580800Y-91058954D01*
X142493579Y-91122324D01*
X142427927Y-91170024D01*
X142427925Y-91170026D01*
X142427924Y-91170026D01*
X142294312Y-91303638D01*
X142294312Y-91303639D01*
X142294310Y-91303641D01*
X142246610Y-91369293D01*
X142183240Y-91456514D01*
X142097454Y-91624877D01*
X142039059Y-91804595D01*
X142009500Y-91991227D01*
X136790500Y-91991227D01*
X136760940Y-91804595D01*
X136723901Y-91690602D01*
X136702547Y-91624882D01*
X136702545Y-91624879D01*
X136702545Y-91624877D01*
X136628311Y-91479185D01*
X136616760Y-91456515D01*
X136505690Y-91303641D01*
X136372073Y-91170024D01*
X136219199Y-91058954D01*
X136050836Y-90973168D01*
X135871119Y-90914774D01*
X135728155Y-90892130D01*
X135665021Y-90862200D01*
X135628090Y-90802889D01*
X135629088Y-90733026D01*
X135632988Y-90722215D01*
X135669737Y-90633497D01*
X135700500Y-90478842D01*
X135700500Y-90321158D01*
X135700500Y-90321155D01*
X135700499Y-90321153D01*
X135680746Y-90221849D01*
X135669737Y-90166503D01*
X135628314Y-90066498D01*
X135609397Y-90020827D01*
X135609390Y-90020814D01*
X135521789Y-89889711D01*
X135521786Y-89889707D01*
X135410292Y-89778213D01*
X135410288Y-89778210D01*
X135279185Y-89690609D01*
X135279172Y-89690602D01*
X135133501Y-89630264D01*
X135133491Y-89630261D01*
X134978149Y-89599361D01*
X134916238Y-89566976D01*
X134914660Y-89565425D01*
X133269034Y-87919799D01*
X134389500Y-87919799D01*
X134389500Y-88108772D01*
X134419059Y-88295404D01*
X134477454Y-88475122D01*
X134502424Y-88524127D01*
X134563240Y-88643485D01*
X134674310Y-88796359D01*
X134807927Y-88929976D01*
X134960801Y-89041046D01*
X134995875Y-89058917D01*
X135129163Y-89126831D01*
X135129165Y-89126831D01*
X135129168Y-89126833D01*
X135171274Y-89140514D01*
X135308881Y-89185226D01*
X135495514Y-89214786D01*
X135495519Y-89214786D01*
X135684486Y-89214786D01*
X135871118Y-89185226D01*
X135872392Y-89184812D01*
X136050832Y-89126833D01*
X136219199Y-89041046D01*
X136372073Y-88929976D01*
X136505690Y-88796359D01*
X136616760Y-88643485D01*
X136702547Y-88475118D01*
X136760940Y-88295404D01*
X136768219Y-88249444D01*
X136790500Y-88108772D01*
X136790500Y-87919799D01*
X142009500Y-87919799D01*
X142009500Y-88108772D01*
X142039059Y-88295404D01*
X142097454Y-88475122D01*
X142122424Y-88524127D01*
X142183240Y-88643485D01*
X142294310Y-88796359D01*
X142427927Y-88929976D01*
X142580801Y-89041046D01*
X142615875Y-89058917D01*
X142749163Y-89126831D01*
X142749165Y-89126831D01*
X142749168Y-89126833D01*
X142791274Y-89140514D01*
X142928881Y-89185226D01*
X143115514Y-89214786D01*
X143115519Y-89214786D01*
X143304486Y-89214786D01*
X143491118Y-89185226D01*
X143492392Y-89184812D01*
X143670832Y-89126833D01*
X143839199Y-89041046D01*
X143992073Y-88929976D01*
X144125690Y-88796359D01*
X144236760Y-88643485D01*
X144322547Y-88475118D01*
X144380940Y-88295404D01*
X144388219Y-88249444D01*
X144410500Y-88108772D01*
X144410500Y-87919799D01*
X144380940Y-87733167D01*
X144322545Y-87553449D01*
X144274077Y-87458326D01*
X144236760Y-87385087D01*
X144231016Y-87377181D01*
X144189270Y-87319722D01*
X144189268Y-87319720D01*
X144138610Y-87249996D01*
X144138601Y-87249983D01*
X155434500Y-87249983D01*
X155434500Y-87249996D01*
X155434501Y-88550000D01*
X155434501Y-88550018D01*
X155445000Y-88652796D01*
X155445001Y-88652799D01*
X155492573Y-88796359D01*
X155500186Y-88819334D01*
X155592288Y-88968656D01*
X155716344Y-89092712D01*
X155865666Y-89184814D01*
X156032203Y-89239999D01*
X156134991Y-89250500D01*
X156785008Y-89250499D01*
X156785016Y-89250498D01*
X156785019Y-89250498D01*
X156841302Y-89244748D01*
X156887797Y-89239999D01*
X157054334Y-89184814D01*
X157126156Y-89140513D01*
X157193548Y-89122074D01*
X157238705Y-89131492D01*
X157310681Y-89161305D01*
X157430873Y-89211091D01*
X157628987Y-89250498D01*
X157628992Y-89250499D01*
X157628996Y-89250500D01*
X157628997Y-89250500D01*
X157831004Y-89250500D01*
X157831005Y-89250499D01*
X158029127Y-89211091D01*
X158215756Y-89133786D01*
X158296562Y-89079792D01*
X158363234Y-89058917D01*
X158430614Y-89077401D01*
X158434340Y-89079795D01*
X158514479Y-89133343D01*
X158514486Y-89133347D01*
X158701016Y-89210609D01*
X158701025Y-89210612D01*
X158750000Y-89220353D01*
X158750000Y-88365865D01*
X158752383Y-88341671D01*
X158755500Y-88326002D01*
X158755500Y-88185830D01*
X158769745Y-88200075D01*
X158855255Y-88249444D01*
X158950630Y-88275000D01*
X159049370Y-88275000D01*
X159144745Y-88249444D01*
X159230255Y-88200075D01*
X159250000Y-88180330D01*
X159250000Y-89220352D01*
X159298974Y-89210612D01*
X159298983Y-89210609D01*
X159485513Y-89133347D01*
X159485526Y-89133340D01*
X159653399Y-89021170D01*
X159653403Y-89021167D01*
X159796167Y-88878403D01*
X159796170Y-88878399D01*
X159908340Y-88710526D01*
X159908347Y-88710513D01*
X159985609Y-88523983D01*
X159985612Y-88523974D01*
X160024999Y-88325958D01*
X160025000Y-88325955D01*
X160025000Y-88150000D01*
X159280330Y-88150000D01*
X159300075Y-88130255D01*
X159349444Y-88044745D01*
X159375000Y-87949370D01*
X159375000Y-87850630D01*
X159349444Y-87755255D01*
X159300075Y-87669745D01*
X159280330Y-87650000D01*
X160025000Y-87650000D01*
X160025000Y-87474045D01*
X160024999Y-87474041D01*
X159985612Y-87276025D01*
X159985609Y-87276016D01*
X159927761Y-87136359D01*
X159927750Y-87136332D01*
X159908344Y-87089480D01*
X159908340Y-87089473D01*
X159796170Y-86921600D01*
X159796167Y-86921596D01*
X159653403Y-86778832D01*
X159653399Y-86778829D01*
X159485526Y-86666659D01*
X159485513Y-86666652D01*
X159298984Y-86589390D01*
X159298977Y-86589388D01*
X159250000Y-86579645D01*
X159250000Y-87619670D01*
X159230255Y-87599925D01*
X159144745Y-87550556D01*
X159049370Y-87525000D01*
X158950630Y-87525000D01*
X158855255Y-87550556D01*
X158769745Y-87599925D01*
X158755500Y-87614170D01*
X158755500Y-87473996D01*
X158755499Y-87473995D01*
X158752383Y-87458326D01*
X158750000Y-87434134D01*
X158750000Y-86579646D01*
X158749999Y-86579645D01*
X158701022Y-86589388D01*
X158701015Y-86589390D01*
X158514481Y-86666654D01*
X158514479Y-86666655D01*
X158434337Y-86720204D01*
X158367660Y-86741081D01*
X158300280Y-86722596D01*
X158296558Y-86720204D01*
X158215754Y-86666212D01*
X158029127Y-86588909D01*
X158029119Y-86588907D01*
X157831007Y-86549500D01*
X157831003Y-86549500D01*
X157628997Y-86549500D01*
X157628992Y-86549500D01*
X157430880Y-86588907D01*
X157430872Y-86588909D01*
X157238705Y-86668508D01*
X157169236Y-86675977D01*
X157126159Y-86659487D01*
X157054334Y-86615186D01*
X156887797Y-86560001D01*
X156887795Y-86560000D01*
X156785010Y-86549500D01*
X156134998Y-86549500D01*
X156134980Y-86549501D01*
X156032203Y-86560000D01*
X156032200Y-86560001D01*
X155865668Y-86615185D01*
X155865663Y-86615187D01*
X155716342Y-86707289D01*
X155592289Y-86831342D01*
X155500187Y-86980663D01*
X155500186Y-86980666D01*
X155445001Y-87147203D01*
X155445001Y-87147204D01*
X155445000Y-87147204D01*
X155434500Y-87249983D01*
X144138601Y-87249983D01*
X144125690Y-87232213D01*
X143992073Y-87098596D01*
X143839199Y-86987526D01*
X143670836Y-86901740D01*
X143491118Y-86843345D01*
X143304486Y-86813786D01*
X143304481Y-86813786D01*
X143115519Y-86813786D01*
X143115514Y-86813786D01*
X142928881Y-86843345D01*
X142749163Y-86901740D01*
X142580800Y-86987526D01*
X142493579Y-87050896D01*
X142427927Y-87098596D01*
X142427925Y-87098598D01*
X142427924Y-87098598D01*
X142294312Y-87232210D01*
X142294312Y-87232211D01*
X142294310Y-87232213D01*
X142281390Y-87249996D01*
X142183240Y-87385086D01*
X142097454Y-87553449D01*
X142039059Y-87733167D01*
X142009500Y-87919799D01*
X136790500Y-87919799D01*
X136760940Y-87733167D01*
X136702545Y-87553449D01*
X136654077Y-87458326D01*
X136616760Y-87385087D01*
X136505690Y-87232213D01*
X136372073Y-87098596D01*
X136219199Y-86987526D01*
X136050836Y-86901740D01*
X135871118Y-86843345D01*
X135684486Y-86813786D01*
X135684481Y-86813786D01*
X135495519Y-86813786D01*
X135495514Y-86813786D01*
X135308881Y-86843345D01*
X135129163Y-86901740D01*
X134960800Y-86987526D01*
X134873579Y-87050896D01*
X134807927Y-87098596D01*
X134807925Y-87098598D01*
X134807924Y-87098598D01*
X134674312Y-87232210D01*
X134674312Y-87232211D01*
X134674310Y-87232213D01*
X134661390Y-87249996D01*
X134563240Y-87385086D01*
X134477454Y-87553449D01*
X134419059Y-87733167D01*
X134389500Y-87919799D01*
X133269034Y-87919799D01*
X130478597Y-85129362D01*
X130445112Y-85068039D01*
X130448346Y-85003365D01*
X130466630Y-84947097D01*
X130500500Y-84733254D01*
X130500500Y-84516746D01*
X130466630Y-84302903D01*
X130399726Y-84096991D01*
X130399726Y-84096990D01*
X130301432Y-83904080D01*
X130260956Y-83848370D01*
X134389500Y-83848370D01*
X134389500Y-84037343D01*
X134419059Y-84223975D01*
X134477454Y-84403693D01*
X134535058Y-84516746D01*
X134563240Y-84572056D01*
X134674310Y-84724930D01*
X134807927Y-84858547D01*
X134960801Y-84969617D01*
X135027030Y-85003362D01*
X135129163Y-85055402D01*
X135129165Y-85055402D01*
X135129168Y-85055404D01*
X135191420Y-85075631D01*
X135308881Y-85113797D01*
X135495514Y-85143357D01*
X135495519Y-85143357D01*
X135684486Y-85143357D01*
X135871118Y-85113797D01*
X136050832Y-85055404D01*
X136219199Y-84969617D01*
X136372073Y-84858547D01*
X136505690Y-84724930D01*
X136616760Y-84572056D01*
X136702547Y-84403689D01*
X136760940Y-84223975D01*
X136781052Y-84096993D01*
X136790500Y-84037343D01*
X136790500Y-83848370D01*
X142009500Y-83848370D01*
X142009500Y-84037343D01*
X142039059Y-84223975D01*
X142097454Y-84403693D01*
X142155058Y-84516746D01*
X142183240Y-84572056D01*
X142294310Y-84724930D01*
X142427927Y-84858547D01*
X142580801Y-84969617D01*
X142647030Y-85003362D01*
X142749163Y-85055402D01*
X142749165Y-85055402D01*
X142749168Y-85055404D01*
X142811420Y-85075631D01*
X142928881Y-85113797D01*
X143115514Y-85143357D01*
X143115519Y-85143357D01*
X143304486Y-85143357D01*
X143491118Y-85113797D01*
X143670832Y-85055404D01*
X143839199Y-84969617D01*
X143992073Y-84858547D01*
X144125690Y-84724930D01*
X144236760Y-84572056D01*
X144322547Y-84403689D01*
X144380940Y-84223975D01*
X144401052Y-84096993D01*
X144410500Y-84037343D01*
X144410500Y-83848370D01*
X144380940Y-83661738D01*
X144344980Y-83551066D01*
X144322547Y-83482025D01*
X144322545Y-83482022D01*
X144322545Y-83482020D01*
X144273364Y-83385497D01*
X144236760Y-83313658D01*
X144125690Y-83160784D01*
X143992073Y-83027167D01*
X143845071Y-82920363D01*
X143845070Y-82920362D01*
X143839200Y-82916098D01*
X143839201Y-82916098D01*
X143839199Y-82916097D01*
X143785176Y-82888571D01*
X143670836Y-82830311D01*
X143657975Y-82826132D01*
X144694521Y-82826132D01*
X144694521Y-82983825D01*
X144725282Y-83138468D01*
X144725285Y-83138480D01*
X144785623Y-83284151D01*
X144785630Y-83284164D01*
X144873231Y-83415267D01*
X144873234Y-83415271D01*
X144984728Y-83526765D01*
X144984732Y-83526768D01*
X145115835Y-83614369D01*
X145115848Y-83614376D01*
X145261519Y-83674714D01*
X145261524Y-83674716D01*
X145416174Y-83705478D01*
X145416177Y-83705479D01*
X145416179Y-83705479D01*
X145573865Y-83705479D01*
X145573866Y-83705478D01*
X145728518Y-83674716D01*
X145874200Y-83614373D01*
X146005310Y-83526768D01*
X146005309Y-83526768D01*
X146005894Y-83526378D01*
X146066145Y-83507511D01*
X146066018Y-83506541D01*
X146071589Y-83505807D01*
X146072571Y-83505500D01*
X146074023Y-83505486D01*
X146074075Y-83505480D01*
X146074078Y-83505480D01*
X146226806Y-83464556D01*
X146292495Y-83426630D01*
X146363737Y-83385499D01*
X146475541Y-83273695D01*
X146475541Y-83273693D01*
X146485745Y-83263490D01*
X146485748Y-83263485D01*
X147814664Y-81934571D01*
X147875985Y-81901088D01*
X147878152Y-81900637D01*
X147878841Y-81900500D01*
X147878842Y-81900500D01*
X148033497Y-81869737D01*
X148179179Y-81809394D01*
X148310289Y-81721789D01*
X148332095Y-81699983D01*
X157479500Y-81699983D01*
X157479500Y-83100001D01*
X157479501Y-83100018D01*
X157490000Y-83202796D01*
X157490001Y-83202799D01*
X157545185Y-83369331D01*
X157545187Y-83369336D01*
X157573518Y-83415268D01*
X157637288Y-83518656D01*
X157761344Y-83642712D01*
X157910666Y-83734814D01*
X158077203Y-83789999D01*
X158179991Y-83800500D01*
X159580008Y-83800499D01*
X159682797Y-83789999D01*
X159849334Y-83734814D01*
X159998656Y-83642712D01*
X160122712Y-83518656D01*
X160214814Y-83369334D01*
X160269999Y-83202797D01*
X160280500Y-83100009D01*
X160280499Y-82289818D01*
X165100000Y-82289818D01*
X165100000Y-82510181D01*
X165134473Y-82727835D01*
X165202567Y-82937410D01*
X165302611Y-83133756D01*
X165348932Y-83197513D01*
X166057861Y-82488584D01*
X166080667Y-82573694D01*
X166139910Y-82676306D01*
X166223694Y-82760090D01*
X166326306Y-82819333D01*
X166411414Y-82842137D01*
X165702485Y-83551065D01*
X165702485Y-83551066D01*
X165766243Y-83597388D01*
X165962589Y-83697432D01*
X166172164Y-83765526D01*
X166389819Y-83800000D01*
X166610181Y-83800000D01*
X166827835Y-83765526D01*
X167037410Y-83697432D01*
X167233760Y-83597386D01*
X167297513Y-83551066D01*
X167297514Y-83551066D01*
X166588585Y-82842138D01*
X166673694Y-82819333D01*
X166776306Y-82760090D01*
X166860090Y-82676306D01*
X166919333Y-82573694D01*
X166942138Y-82488585D01*
X167651066Y-83197514D01*
X167651066Y-83197513D01*
X167697386Y-83133760D01*
X167797432Y-82937410D01*
X167865526Y-82727835D01*
X167900000Y-82510181D01*
X167900000Y-82289818D01*
X167865526Y-82072164D01*
X167797432Y-81862589D01*
X167697388Y-81666243D01*
X167651066Y-81602485D01*
X167651065Y-81602485D01*
X166942137Y-82311413D01*
X166919333Y-82226306D01*
X166860090Y-82123694D01*
X166776306Y-82039910D01*
X166673694Y-81980667D01*
X166588583Y-81957861D01*
X167297513Y-81248932D01*
X167233756Y-81202611D01*
X167037410Y-81102567D01*
X166827835Y-81034473D01*
X166610181Y-81000000D01*
X166389819Y-81000000D01*
X166172164Y-81034473D01*
X165962589Y-81102567D01*
X165766233Y-81202616D01*
X165702485Y-81248931D01*
X165702485Y-81248932D01*
X166411414Y-81957861D01*
X166326306Y-81980667D01*
X166223694Y-82039910D01*
X166139910Y-82123694D01*
X166080667Y-82226306D01*
X166057861Y-82311414D01*
X165348932Y-81602485D01*
X165348931Y-81602485D01*
X165302616Y-81666233D01*
X165202567Y-81862589D01*
X165134473Y-82072164D01*
X165100000Y-82289818D01*
X160280499Y-82289818D01*
X160280499Y-81699992D01*
X160277050Y-81666233D01*
X160269999Y-81597203D01*
X160269998Y-81597200D01*
X160256674Y-81556990D01*
X160214814Y-81430666D01*
X160122712Y-81281344D01*
X159998656Y-81157288D01*
X159879446Y-81083759D01*
X159849336Y-81065187D01*
X159849331Y-81065185D01*
X159807320Y-81051264D01*
X159682797Y-81010001D01*
X159682795Y-81010000D01*
X159580010Y-80999500D01*
X158179998Y-80999500D01*
X158179981Y-80999501D01*
X158077203Y-81010000D01*
X158077200Y-81010001D01*
X157910668Y-81065185D01*
X157910663Y-81065187D01*
X157761342Y-81157289D01*
X157637289Y-81281342D01*
X157545187Y-81430663D01*
X157545186Y-81430666D01*
X157490001Y-81597203D01*
X157490001Y-81597204D01*
X157490000Y-81597204D01*
X157479500Y-81699983D01*
X148332095Y-81699983D01*
X148421789Y-81610289D01*
X148509394Y-81479179D01*
X148569737Y-81333497D01*
X148600500Y-81178842D01*
X148600500Y-81021158D01*
X148600500Y-81021155D01*
X148600499Y-81021153D01*
X148598281Y-81010001D01*
X148569737Y-80866503D01*
X148550170Y-80819263D01*
X148509397Y-80720827D01*
X148509390Y-80720814D01*
X148421789Y-80589711D01*
X148421786Y-80589707D01*
X148310292Y-80478213D01*
X148310288Y-80478210D01*
X148179185Y-80390609D01*
X148179172Y-80390602D01*
X148033501Y-80330264D01*
X148033489Y-80330261D01*
X147878845Y-80299500D01*
X147878842Y-80299500D01*
X147721158Y-80299500D01*
X147721155Y-80299500D01*
X147566510Y-80330261D01*
X147566498Y-80330264D01*
X147420827Y-80390602D01*
X147420814Y-80390609D01*
X147289711Y-80478210D01*
X147289707Y-80478213D01*
X147178213Y-80589707D01*
X147178210Y-80589711D01*
X147090609Y-80720814D01*
X147090602Y-80720827D01*
X147030264Y-80866498D01*
X147030261Y-80866508D01*
X146999362Y-81021848D01*
X146966977Y-81083759D01*
X146965426Y-81085337D01*
X145919336Y-82131427D01*
X145858013Y-82164912D01*
X145788321Y-82159928D01*
X145784203Y-82158307D01*
X145728522Y-82135243D01*
X145728510Y-82135240D01*
X145573866Y-82104479D01*
X145573863Y-82104479D01*
X145416179Y-82104479D01*
X145416176Y-82104479D01*
X145261531Y-82135240D01*
X145261519Y-82135243D01*
X145115848Y-82195581D01*
X145115835Y-82195588D01*
X144984732Y-82283189D01*
X144984728Y-82283192D01*
X144873234Y-82394686D01*
X144873231Y-82394690D01*
X144785630Y-82525793D01*
X144785623Y-82525806D01*
X144725285Y-82671477D01*
X144725282Y-82671489D01*
X144694521Y-82826132D01*
X143657975Y-82826132D01*
X143491118Y-82771916D01*
X143304486Y-82742357D01*
X143304481Y-82742357D01*
X143115519Y-82742357D01*
X143115514Y-82742357D01*
X142928881Y-82771916D01*
X142749163Y-82830311D01*
X142580800Y-82916097D01*
X142551466Y-82937410D01*
X142427927Y-83027167D01*
X142427925Y-83027169D01*
X142427924Y-83027169D01*
X142294312Y-83160781D01*
X142294312Y-83160782D01*
X142294310Y-83160784D01*
X142263786Y-83202797D01*
X142183240Y-83313657D01*
X142097454Y-83482020D01*
X142039059Y-83661738D01*
X142009500Y-83848370D01*
X136790500Y-83848370D01*
X136760940Y-83661738D01*
X136724980Y-83551066D01*
X136702547Y-83482025D01*
X136702545Y-83482022D01*
X136702545Y-83482020D01*
X136653364Y-83385497D01*
X136616760Y-83313658D01*
X136505690Y-83160784D01*
X136372073Y-83027167D01*
X136219199Y-82916097D01*
X136050836Y-82830311D01*
X135871118Y-82771916D01*
X135684486Y-82742357D01*
X135684481Y-82742357D01*
X135495519Y-82742357D01*
X135495514Y-82742357D01*
X135308881Y-82771916D01*
X135129163Y-82830311D01*
X134960800Y-82916097D01*
X134931466Y-82937410D01*
X134807927Y-83027167D01*
X134807925Y-83027169D01*
X134807924Y-83027169D01*
X134674312Y-83160781D01*
X134674312Y-83160782D01*
X134674310Y-83160784D01*
X134643786Y-83202797D01*
X134563240Y-83313657D01*
X134477454Y-83482020D01*
X134419059Y-83661738D01*
X134389500Y-83848370D01*
X130260956Y-83848370D01*
X130174172Y-83728922D01*
X130021078Y-83575828D01*
X129845919Y-83448567D01*
X129826574Y-83438710D01*
X129653009Y-83350273D01*
X129653006Y-83350272D01*
X129447098Y-83283370D01*
X129321519Y-83263480D01*
X129233254Y-83249500D01*
X129016746Y-83249500D01*
X128945465Y-83260790D01*
X128802901Y-83283370D01*
X128596993Y-83350272D01*
X128596990Y-83350273D01*
X128404080Y-83448567D01*
X128332621Y-83500486D01*
X128228922Y-83575828D01*
X128228920Y-83575830D01*
X128228919Y-83575830D01*
X128075830Y-83728919D01*
X128075830Y-83728920D01*
X128075828Y-83728922D01*
X128038563Y-83780213D01*
X127948567Y-83904080D01*
X127850273Y-84096990D01*
X127850272Y-84096993D01*
X127783370Y-84302901D01*
X127749500Y-84516746D01*
X124900500Y-84516746D01*
X124900500Y-81976746D01*
X125209500Y-81976746D01*
X125209500Y-82193253D01*
X125243370Y-82407098D01*
X125310272Y-82613006D01*
X125310273Y-82613009D01*
X125391242Y-82771917D01*
X125408567Y-82805919D01*
X125535828Y-82981078D01*
X125688922Y-83134172D01*
X125864081Y-83261433D01*
X125908693Y-83284164D01*
X126056990Y-83359726D01*
X126056993Y-83359727D01*
X126133829Y-83384692D01*
X126262903Y-83426630D01*
X126476746Y-83460500D01*
X126476747Y-83460500D01*
X126693253Y-83460500D01*
X126693254Y-83460500D01*
X126907097Y-83426630D01*
X127113009Y-83359726D01*
X127305919Y-83261433D01*
X127481078Y-83134172D01*
X127634172Y-82981078D01*
X127761433Y-82805919D01*
X127859726Y-82613009D01*
X127926630Y-82407097D01*
X127960500Y-82193254D01*
X127960500Y-81976746D01*
X127926630Y-81762903D01*
X127877044Y-81610292D01*
X127859727Y-81556993D01*
X127859726Y-81556990D01*
X127761432Y-81364080D01*
X127634172Y-81188922D01*
X127481078Y-81035828D01*
X127305919Y-80908567D01*
X127261908Y-80886142D01*
X127113009Y-80810273D01*
X127113006Y-80810272D01*
X126923933Y-80748840D01*
X126907098Y-80743370D01*
X126800175Y-80726435D01*
X126693254Y-80709500D01*
X126476746Y-80709500D01*
X126405465Y-80720790D01*
X126262901Y-80743370D01*
X126056993Y-80810272D01*
X126056990Y-80810273D01*
X125864080Y-80908567D01*
X125786847Y-80964681D01*
X125688922Y-81035828D01*
X125688920Y-81035830D01*
X125688919Y-81035830D01*
X125535830Y-81188919D01*
X125535830Y-81188920D01*
X125535828Y-81188922D01*
X125498563Y-81240213D01*
X125408567Y-81364080D01*
X125310273Y-81556990D01*
X125310272Y-81556993D01*
X125243370Y-81762901D01*
X125209500Y-81976746D01*
X124900500Y-81976746D01*
X124900500Y-80678168D01*
X128345382Y-80678168D01*
X128404342Y-80721005D01*
X128597182Y-80819263D01*
X128597185Y-80819264D01*
X128803018Y-80886142D01*
X129016780Y-80920000D01*
X129233220Y-80920000D01*
X129446981Y-80886142D01*
X129468005Y-80879311D01*
X134935669Y-80879311D01*
X134935670Y-80879312D01*
X134961059Y-80897758D01*
X135129362Y-80983514D01*
X135308997Y-81041880D01*
X135495553Y-81071429D01*
X135684447Y-81071429D01*
X135871002Y-81041880D01*
X136050637Y-80983514D01*
X136218937Y-80897760D01*
X136244328Y-80879312D01*
X136244328Y-80879311D01*
X135590001Y-80224983D01*
X135590000Y-80224983D01*
X134935669Y-80879311D01*
X129468005Y-80879311D01*
X129652814Y-80819264D01*
X129652817Y-80819263D01*
X129844556Y-80721567D01*
X129844559Y-80721566D01*
X129845648Y-80721011D01*
X129845653Y-80721008D01*
X129904615Y-80678168D01*
X129904616Y-80678168D01*
X129125000Y-79898553D01*
X128345382Y-80678168D01*
X124900500Y-80678168D01*
X124900500Y-79436779D01*
X127750000Y-79436779D01*
X127750000Y-79653220D01*
X127783857Y-79866981D01*
X127850735Y-80072814D01*
X127850736Y-80072817D01*
X127948996Y-80265660D01*
X127991829Y-80324615D01*
X127991830Y-80324616D01*
X128771446Y-79545001D01*
X128771446Y-79544999D01*
X128725369Y-79498922D01*
X128775000Y-79498922D01*
X128775000Y-79591078D01*
X128798852Y-79680095D01*
X128844930Y-79759905D01*
X128910095Y-79825070D01*
X128989905Y-79871148D01*
X129078922Y-79895000D01*
X129171078Y-79895000D01*
X129260095Y-79871148D01*
X129339905Y-79825070D01*
X129405070Y-79759905D01*
X129451148Y-79680095D01*
X129475000Y-79591078D01*
X129475000Y-79544999D01*
X129478553Y-79544999D01*
X129478553Y-79545001D01*
X130258168Y-80324616D01*
X130258168Y-80324615D01*
X130301006Y-80265656D01*
X130399263Y-80072817D01*
X130399264Y-80072814D01*
X130466142Y-79866981D01*
X130480398Y-79776981D01*
X134390000Y-79776981D01*
X134390000Y-79965876D01*
X134419548Y-80152431D01*
X134477914Y-80332066D01*
X134563666Y-80500362D01*
X134582116Y-80525757D01*
X135236446Y-79871429D01*
X135236446Y-79871428D01*
X135190369Y-79825351D01*
X135240000Y-79825351D01*
X135240000Y-79917507D01*
X135263852Y-80006524D01*
X135309930Y-80086334D01*
X135375095Y-80151499D01*
X135454905Y-80197577D01*
X135543922Y-80221429D01*
X135636078Y-80221429D01*
X135725095Y-80197577D01*
X135804905Y-80151499D01*
X135870070Y-80086334D01*
X135916148Y-80006524D01*
X135940000Y-79917507D01*
X135940000Y-79871428D01*
X135943554Y-79871428D01*
X135943554Y-79871429D01*
X136597882Y-80525757D01*
X136597883Y-80525757D01*
X136616331Y-80500366D01*
X136702085Y-80332066D01*
X136760451Y-80152431D01*
X136790000Y-79965876D01*
X136790000Y-79776981D01*
X136789994Y-79776942D01*
X142009500Y-79776942D01*
X142009500Y-79965915D01*
X142039059Y-80152547D01*
X142097454Y-80332265D01*
X142171641Y-80477864D01*
X142183240Y-80500628D01*
X142294310Y-80653502D01*
X142427927Y-80787119D01*
X142580801Y-80898189D01*
X142623608Y-80920000D01*
X142749163Y-80983974D01*
X142749165Y-80983974D01*
X142749168Y-80983976D01*
X142829261Y-81010000D01*
X142928881Y-81042369D01*
X143115514Y-81071929D01*
X143115519Y-81071929D01*
X143304486Y-81071929D01*
X143491118Y-81042369D01*
X143528739Y-81030145D01*
X143670832Y-80983976D01*
X143839199Y-80898189D01*
X143992073Y-80787119D01*
X144125690Y-80653502D01*
X144236760Y-80500628D01*
X144322547Y-80332261D01*
X144380940Y-80152547D01*
X144393568Y-80072817D01*
X144410500Y-79965915D01*
X144410500Y-79776942D01*
X144380940Y-79590310D01*
X144322545Y-79410592D01*
X144248326Y-79264930D01*
X144236760Y-79242230D01*
X144125690Y-79089356D01*
X143992073Y-78955739D01*
X143839199Y-78844669D01*
X143724897Y-78786429D01*
X143670836Y-78758883D01*
X143491118Y-78700488D01*
X143375239Y-78682135D01*
X171449500Y-78682135D01*
X171449500Y-80477870D01*
X171449501Y-80477876D01*
X171455908Y-80537483D01*
X171506202Y-80672328D01*
X171506206Y-80672335D01*
X171592452Y-80787544D01*
X171592455Y-80787547D01*
X171707664Y-80873793D01*
X171707671Y-80873797D01*
X171839082Y-80922810D01*
X171895016Y-80964681D01*
X171919433Y-81030145D01*
X171904582Y-81098418D01*
X171883431Y-81126673D01*
X171769889Y-81240215D01*
X171644951Y-81412179D01*
X171548444Y-81601585D01*
X171482753Y-81803760D01*
X171449500Y-82013713D01*
X171449500Y-82226286D01*
X171482753Y-82436239D01*
X171548444Y-82638414D01*
X171644951Y-82827820D01*
X171769890Y-82999786D01*
X171920213Y-83150109D01*
X172092182Y-83275050D01*
X172100946Y-83279516D01*
X172151742Y-83327491D01*
X172168536Y-83395312D01*
X172145998Y-83461447D01*
X172100946Y-83500484D01*
X172092182Y-83504949D01*
X171920213Y-83629890D01*
X171769890Y-83780213D01*
X171644951Y-83952179D01*
X171548444Y-84141585D01*
X171482753Y-84343760D01*
X171449500Y-84553713D01*
X171449500Y-84766286D01*
X171481704Y-84969617D01*
X171482754Y-84976243D01*
X171527448Y-85113797D01*
X171548444Y-85178414D01*
X171644951Y-85367820D01*
X171769890Y-85539786D01*
X171920213Y-85690109D01*
X172092179Y-85815048D01*
X172092181Y-85815049D01*
X172092184Y-85815051D01*
X172101493Y-85819794D01*
X172152290Y-85867766D01*
X172169087Y-85935587D01*
X172146552Y-86001722D01*
X172101505Y-86040760D01*
X172092446Y-86045376D01*
X172092440Y-86045380D01*
X172038282Y-86084727D01*
X172038282Y-86084728D01*
X172670591Y-86717037D01*
X172607007Y-86734075D01*
X172492993Y-86799901D01*
X172399901Y-86892993D01*
X172334075Y-87007007D01*
X172317037Y-87070590D01*
X171684728Y-86438282D01*
X171684727Y-86438282D01*
X171645380Y-86492439D01*
X171548904Y-86681782D01*
X171483242Y-86883869D01*
X171483242Y-86883872D01*
X171450000Y-87093753D01*
X171450000Y-87306246D01*
X171483242Y-87516127D01*
X171483242Y-87516130D01*
X171548904Y-87718217D01*
X171645375Y-87907550D01*
X171684728Y-87961716D01*
X172317037Y-87329408D01*
X172334075Y-87392993D01*
X172399901Y-87507007D01*
X172492993Y-87600099D01*
X172607007Y-87665925D01*
X172670590Y-87682962D01*
X172038282Y-88315269D01*
X172038282Y-88315270D01*
X172092449Y-88354624D01*
X172281782Y-88451095D01*
X172483870Y-88516757D01*
X172693754Y-88550000D01*
X172906246Y-88550000D01*
X173116127Y-88516757D01*
X173116130Y-88516757D01*
X173318217Y-88451095D01*
X173507554Y-88354622D01*
X173561716Y-88315270D01*
X173561717Y-88315270D01*
X172929408Y-87682962D01*
X172992993Y-87665925D01*
X173107007Y-87600099D01*
X173200099Y-87507007D01*
X173265925Y-87392993D01*
X173282962Y-87329408D01*
X173915270Y-87961717D01*
X173915270Y-87961716D01*
X173954622Y-87907554D01*
X174051095Y-87718217D01*
X174116757Y-87516130D01*
X174116757Y-87516127D01*
X174150000Y-87306246D01*
X174150000Y-87093753D01*
X174116757Y-86883872D01*
X174116757Y-86883869D01*
X174051095Y-86681782D01*
X173954624Y-86492449D01*
X173915270Y-86438282D01*
X173915269Y-86438282D01*
X173282962Y-87070590D01*
X173265925Y-87007007D01*
X173200099Y-86892993D01*
X173107007Y-86799901D01*
X172992993Y-86734075D01*
X172929409Y-86717037D01*
X173561716Y-86084728D01*
X173507547Y-86045373D01*
X173507547Y-86045372D01*
X173498500Y-86040763D01*
X173447706Y-85992788D01*
X173430912Y-85924966D01*
X173453451Y-85858832D01*
X173498508Y-85819793D01*
X173507816Y-85815051D01*
X173587007Y-85757515D01*
X173679786Y-85690109D01*
X173679788Y-85690106D01*
X173679792Y-85690104D01*
X173830104Y-85539792D01*
X173830106Y-85539788D01*
X173830109Y-85539786D01*
X173955048Y-85367820D01*
X173955047Y-85367820D01*
X173955051Y-85367816D01*
X174051557Y-85178412D01*
X174117246Y-84976243D01*
X174150500Y-84766287D01*
X174150500Y-84553713D01*
X174117246Y-84343757D01*
X174051557Y-84141588D01*
X173955051Y-83952184D01*
X173955049Y-83952181D01*
X173955048Y-83952179D01*
X173830109Y-83780213D01*
X173679786Y-83629890D01*
X173507820Y-83504951D01*
X173507115Y-83504591D01*
X173499054Y-83500485D01*
X173448259Y-83452512D01*
X173431463Y-83384692D01*
X173453999Y-83318556D01*
X173499054Y-83279515D01*
X173507816Y-83275051D01*
X173542984Y-83249500D01*
X173679786Y-83150109D01*
X173679788Y-83150106D01*
X173679792Y-83150104D01*
X173830104Y-82999792D01*
X173830106Y-82999788D01*
X173830109Y-82999786D01*
X173955048Y-82827820D01*
X173955047Y-82827820D01*
X173955051Y-82827816D01*
X174051557Y-82638412D01*
X174117246Y-82436243D01*
X174150500Y-82226287D01*
X174150500Y-82013713D01*
X174117246Y-81803757D01*
X174051557Y-81601588D01*
X173955051Y-81412184D01*
X173955049Y-81412181D01*
X173955048Y-81412179D01*
X173830109Y-81240213D01*
X173716569Y-81126673D01*
X173683084Y-81065350D01*
X173688068Y-80995658D01*
X173729940Y-80939725D01*
X173760915Y-80922810D01*
X173892331Y-80873796D01*
X174007546Y-80787546D01*
X174093796Y-80672331D01*
X174144091Y-80537483D01*
X174150500Y-80477873D01*
X174150499Y-78682128D01*
X174144091Y-78622517D01*
X174093796Y-78487669D01*
X174093795Y-78487668D01*
X174093793Y-78487664D01*
X174007547Y-78372455D01*
X174007544Y-78372452D01*
X173892335Y-78286206D01*
X173892328Y-78286202D01*
X173757482Y-78235908D01*
X173757483Y-78235908D01*
X173697883Y-78229501D01*
X173697881Y-78229500D01*
X173697873Y-78229500D01*
X173697864Y-78229500D01*
X171902129Y-78229500D01*
X171902123Y-78229501D01*
X171842516Y-78235908D01*
X171707671Y-78286202D01*
X171707664Y-78286206D01*
X171592455Y-78372452D01*
X171592452Y-78372455D01*
X171506206Y-78487664D01*
X171506202Y-78487671D01*
X171455908Y-78622517D01*
X171450704Y-78670929D01*
X171449501Y-78682123D01*
X171449500Y-78682135D01*
X143375239Y-78682135D01*
X143304486Y-78670929D01*
X143304481Y-78670929D01*
X143115519Y-78670929D01*
X143115514Y-78670929D01*
X142928881Y-78700488D01*
X142749163Y-78758883D01*
X142580800Y-78844669D01*
X142493579Y-78908039D01*
X142427927Y-78955739D01*
X142427925Y-78955741D01*
X142427924Y-78955741D01*
X142294312Y-79089353D01*
X142294312Y-79089354D01*
X142294310Y-79089356D01*
X142246610Y-79155008D01*
X142183240Y-79242229D01*
X142097454Y-79410592D01*
X142039059Y-79590310D01*
X142009500Y-79776942D01*
X136789994Y-79776942D01*
X136760451Y-79590426D01*
X136702085Y-79410791D01*
X136616329Y-79242488D01*
X136597883Y-79217099D01*
X136597882Y-79217098D01*
X135943554Y-79871428D01*
X135940000Y-79871428D01*
X135940000Y-79825351D01*
X135916148Y-79736334D01*
X135870070Y-79656524D01*
X135804905Y-79591359D01*
X135725095Y-79545281D01*
X135636078Y-79521429D01*
X135543922Y-79521429D01*
X135454905Y-79545281D01*
X135375095Y-79591359D01*
X135309930Y-79656524D01*
X135263852Y-79736334D01*
X135240000Y-79825351D01*
X135190369Y-79825351D01*
X134582116Y-79217098D01*
X134582116Y-79217099D01*
X134563669Y-79242489D01*
X134477914Y-79410791D01*
X134419548Y-79590426D01*
X134390000Y-79776981D01*
X130480398Y-79776981D01*
X130484241Y-79752717D01*
X130500000Y-79653220D01*
X130500000Y-79436779D01*
X130466142Y-79223018D01*
X130399264Y-79017185D01*
X130399263Y-79017182D01*
X130373744Y-78967099D01*
X130320980Y-78863545D01*
X134935669Y-78863545D01*
X135590000Y-79517875D01*
X135590001Y-79517875D01*
X136244328Y-78863545D01*
X136218933Y-78845095D01*
X136050637Y-78759343D01*
X135871002Y-78700977D01*
X135684447Y-78671429D01*
X135495553Y-78671429D01*
X135308997Y-78700977D01*
X135129362Y-78759343D01*
X134961060Y-78845098D01*
X134935670Y-78863545D01*
X134935669Y-78863545D01*
X130320980Y-78863545D01*
X130301005Y-78824342D01*
X130258168Y-78765383D01*
X130258168Y-78765382D01*
X129478553Y-79544999D01*
X129475000Y-79544999D01*
X129475000Y-79498922D01*
X129451148Y-79409905D01*
X129405070Y-79330095D01*
X129339905Y-79264930D01*
X129260095Y-79218852D01*
X129171078Y-79195000D01*
X129078922Y-79195000D01*
X128989905Y-79218852D01*
X128910095Y-79264930D01*
X128844930Y-79330095D01*
X128798852Y-79409905D01*
X128775000Y-79498922D01*
X128725369Y-79498922D01*
X127991830Y-78765383D01*
X127948992Y-78824346D01*
X127850736Y-79017182D01*
X127850735Y-79017185D01*
X127783857Y-79223018D01*
X127750000Y-79436779D01*
X124900500Y-79436779D01*
X124900500Y-78411830D01*
X128345383Y-78411830D01*
X129125000Y-79191446D01*
X129904616Y-78411830D01*
X129904615Y-78411829D01*
X129845660Y-78368996D01*
X129652817Y-78270736D01*
X129652814Y-78270735D01*
X129446981Y-78203857D01*
X129233220Y-78170000D01*
X129016780Y-78170000D01*
X128803018Y-78203857D01*
X128597185Y-78270735D01*
X128597182Y-78270736D01*
X128404346Y-78368992D01*
X128345383Y-78411830D01*
X124900500Y-78411830D01*
X124900500Y-75705513D01*
X134389500Y-75705513D01*
X134389500Y-75894486D01*
X134419059Y-76081118D01*
X134477454Y-76260836D01*
X134553604Y-76410288D01*
X134563240Y-76429199D01*
X134674310Y-76582073D01*
X134807927Y-76715690D01*
X134960801Y-76826760D01*
X135040347Y-76867290D01*
X135129163Y-76912545D01*
X135129165Y-76912545D01*
X135129168Y-76912547D01*
X135225497Y-76943846D01*
X135308881Y-76970940D01*
X135495514Y-77000500D01*
X135495519Y-77000500D01*
X135684486Y-77000500D01*
X135871118Y-76970940D01*
X136050832Y-76912547D01*
X136219199Y-76826760D01*
X136372073Y-76715690D01*
X136505690Y-76582073D01*
X136616760Y-76429199D01*
X136702547Y-76260832D01*
X136760940Y-76081118D01*
X136790500Y-75894486D01*
X136790500Y-75705513D01*
X142009500Y-75705513D01*
X142009500Y-75894486D01*
X142039059Y-76081118D01*
X142097454Y-76260836D01*
X142173604Y-76410288D01*
X142183240Y-76429199D01*
X142294310Y-76582073D01*
X142427927Y-76715690D01*
X142580801Y-76826760D01*
X142660347Y-76867290D01*
X142749163Y-76912545D01*
X142749165Y-76912545D01*
X142749168Y-76912547D01*
X142845497Y-76943846D01*
X142928881Y-76970940D01*
X143115514Y-77000500D01*
X143115519Y-77000500D01*
X143304486Y-77000500D01*
X143491118Y-76970940D01*
X143670832Y-76912547D01*
X143839199Y-76826760D01*
X143992073Y-76715690D01*
X144125690Y-76582073D01*
X144236760Y-76429199D01*
X144322547Y-76260832D01*
X144380940Y-76081118D01*
X144410500Y-75894486D01*
X144410500Y-75705513D01*
X144380940Y-75518881D01*
X144353846Y-75435497D01*
X144322547Y-75339168D01*
X144322545Y-75339165D01*
X144322545Y-75339163D01*
X144277290Y-75250347D01*
X144236760Y-75170801D01*
X144125690Y-75017927D01*
X143992073Y-74884310D01*
X143839199Y-74773240D01*
X143670836Y-74687454D01*
X143491118Y-74629059D01*
X143304486Y-74599500D01*
X143304481Y-74599500D01*
X143115519Y-74599500D01*
X143115514Y-74599500D01*
X142928881Y-74629059D01*
X142749163Y-74687454D01*
X142580800Y-74773240D01*
X142493579Y-74836610D01*
X142427927Y-74884310D01*
X142427925Y-74884312D01*
X142427924Y-74884312D01*
X142294312Y-75017924D01*
X142294312Y-75017925D01*
X142294310Y-75017927D01*
X142246610Y-75083579D01*
X142183240Y-75170800D01*
X142097454Y-75339163D01*
X142039059Y-75518881D01*
X142009500Y-75705513D01*
X136790500Y-75705513D01*
X136760940Y-75518881D01*
X136733846Y-75435497D01*
X136702547Y-75339168D01*
X136702545Y-75339165D01*
X136702545Y-75339163D01*
X136657290Y-75250347D01*
X136616760Y-75170801D01*
X136505690Y-75017927D01*
X136372073Y-74884310D01*
X136219199Y-74773240D01*
X136050836Y-74687454D01*
X135871118Y-74629059D01*
X135684486Y-74599500D01*
X135684481Y-74599500D01*
X135495519Y-74599500D01*
X135495514Y-74599500D01*
X135308881Y-74629059D01*
X135129163Y-74687454D01*
X134960800Y-74773240D01*
X134873579Y-74836610D01*
X134807927Y-74884310D01*
X134807925Y-74884312D01*
X134807924Y-74884312D01*
X134674312Y-75017924D01*
X134674312Y-75017925D01*
X134674310Y-75017927D01*
X134626610Y-75083579D01*
X134563240Y-75170800D01*
X134477454Y-75339163D01*
X134419059Y-75518881D01*
X134389500Y-75705513D01*
X124900500Y-75705513D01*
X124900500Y-70120528D01*
X127524500Y-70120528D01*
X127524500Y-70429471D01*
X127559086Y-70736437D01*
X127559089Y-70736455D01*
X127627831Y-71037635D01*
X127627835Y-71037647D01*
X127729862Y-71329222D01*
X127729868Y-71329236D01*
X127863903Y-71607562D01*
X127863905Y-71607565D01*
X128028265Y-71869143D01*
X128171963Y-72049334D01*
X128181611Y-72061433D01*
X128220880Y-72110674D01*
X128439326Y-72329120D01*
X128680857Y-72521735D01*
X128942435Y-72686095D01*
X129220771Y-72820135D01*
X129220777Y-72820137D01*
X129512352Y-72922164D01*
X129512364Y-72922168D01*
X129813548Y-72990911D01*
X129813554Y-72990911D01*
X129813562Y-72990913D01*
X130018206Y-73013970D01*
X130120529Y-73025499D01*
X130120532Y-73025500D01*
X130120535Y-73025500D01*
X130429468Y-73025500D01*
X130429469Y-73025499D01*
X130586356Y-73007822D01*
X130736437Y-72990913D01*
X130736442Y-72990912D01*
X130736452Y-72990911D01*
X131037636Y-72922168D01*
X131329229Y-72820135D01*
X131607565Y-72686095D01*
X131869143Y-72521735D01*
X132110674Y-72329120D01*
X132329120Y-72110674D01*
X132521735Y-71869143D01*
X132686095Y-71607565D01*
X132820135Y-71329229D01*
X132922168Y-71037636D01*
X132990911Y-70736452D01*
X132995131Y-70699003D01*
X133025499Y-70429471D01*
X133025500Y-70429467D01*
X133025500Y-70227135D01*
X145199500Y-70227135D01*
X145199500Y-72322870D01*
X145199501Y-72322876D01*
X145205908Y-72382483D01*
X145256202Y-72517328D01*
X145256206Y-72517335D01*
X145342452Y-72632544D01*
X145342455Y-72632547D01*
X145457664Y-72718793D01*
X145457671Y-72718797D01*
X145502618Y-72735561D01*
X145592517Y-72769091D01*
X145652127Y-72775500D01*
X146036335Y-72775499D01*
X146047850Y-72778880D01*
X146059800Y-72777739D01*
X146080753Y-72788541D01*
X146103374Y-72795183D01*
X146112787Y-72805055D01*
X146121903Y-72809755D01*
X146143721Y-72837497D01*
X146169358Y-72881900D01*
X146169359Y-72881904D01*
X146169360Y-72881904D01*
X146219479Y-72968714D01*
X146219481Y-72968717D01*
X146338349Y-73087585D01*
X146338355Y-73087590D01*
X149063181Y-75812416D01*
X149096666Y-75873739D01*
X149099500Y-75900097D01*
X149099500Y-75978846D01*
X149130261Y-76133489D01*
X149130264Y-76133501D01*
X149190602Y-76279172D01*
X149190609Y-76279185D01*
X149278210Y-76410288D01*
X149278213Y-76410292D01*
X149389707Y-76521786D01*
X149389711Y-76521789D01*
X149520814Y-76609390D01*
X149520827Y-76609397D01*
X149666498Y-76669735D01*
X149666503Y-76669737D01*
X149821153Y-76700499D01*
X149821156Y-76700500D01*
X149821158Y-76700500D01*
X149978844Y-76700500D01*
X149978845Y-76700499D01*
X150133497Y-76669737D01*
X150279179Y-76609394D01*
X150410289Y-76521789D01*
X150521789Y-76410289D01*
X150609394Y-76279179D01*
X150669737Y-76133497D01*
X150700500Y-75978842D01*
X150700500Y-75821158D01*
X150700500Y-75821155D01*
X150700499Y-75821153D01*
X150677498Y-75705519D01*
X150669737Y-75666503D01*
X150669735Y-75666498D01*
X150609397Y-75520827D01*
X150609390Y-75520814D01*
X150521789Y-75389711D01*
X150521786Y-75389707D01*
X150410292Y-75278213D01*
X150410288Y-75278210D01*
X150279185Y-75190609D01*
X150279172Y-75190602D01*
X150133499Y-75130263D01*
X150133491Y-75130261D01*
X150102980Y-75124192D01*
X150041069Y-75091807D01*
X150039491Y-75090256D01*
X147878981Y-72929746D01*
X147845496Y-72868423D01*
X147850480Y-72798731D01*
X147892352Y-72742798D01*
X147923332Y-72725882D01*
X147942328Y-72718797D01*
X147942327Y-72718797D01*
X147942331Y-72718796D01*
X148057546Y-72632546D01*
X148143796Y-72517331D01*
X148194091Y-72382483D01*
X148200500Y-72322873D01*
X148200499Y-71156902D01*
X152799500Y-71156902D01*
X152799500Y-71393097D01*
X152836446Y-71626368D01*
X152909433Y-71850996D01*
X153016657Y-72061433D01*
X153155483Y-72252510D01*
X153322490Y-72419517D01*
X153513567Y-72558343D01*
X153612991Y-72609002D01*
X153724003Y-72665566D01*
X153724005Y-72665566D01*
X153724008Y-72665568D01*
X153844412Y-72704689D01*
X153948631Y-72738553D01*
X154181903Y-72775500D01*
X154181908Y-72775500D01*
X154418097Y-72775500D01*
X154651368Y-72738553D01*
X154690365Y-72725882D01*
X154875992Y-72665568D01*
X155086433Y-72558343D01*
X155277510Y-72419517D01*
X155444517Y-72252510D01*
X155583343Y-72061433D01*
X155690568Y-71850992D01*
X155763553Y-71626368D01*
X155766532Y-71607562D01*
X155800500Y-71393097D01*
X155800500Y-71156902D01*
X155763553Y-70923631D01*
X155690566Y-70699003D01*
X155583342Y-70488566D01*
X155444517Y-70297490D01*
X155277510Y-70130483D01*
X155263808Y-70120528D01*
X167474500Y-70120528D01*
X167474500Y-70429471D01*
X167509086Y-70736437D01*
X167509089Y-70736455D01*
X167577831Y-71037635D01*
X167577835Y-71037647D01*
X167679862Y-71329222D01*
X167679868Y-71329236D01*
X167813903Y-71607562D01*
X167813905Y-71607565D01*
X167978265Y-71869143D01*
X168121963Y-72049334D01*
X168131611Y-72061433D01*
X168170880Y-72110674D01*
X168389326Y-72329120D01*
X168630857Y-72521735D01*
X168892435Y-72686095D01*
X169170771Y-72820135D01*
X169170777Y-72820137D01*
X169462352Y-72922164D01*
X169462364Y-72922168D01*
X169763548Y-72990911D01*
X169763554Y-72990911D01*
X169763562Y-72990913D01*
X169968206Y-73013970D01*
X170070529Y-73025499D01*
X170070532Y-73025500D01*
X170070535Y-73025500D01*
X170379468Y-73025500D01*
X170379469Y-73025499D01*
X170536356Y-73007822D01*
X170686437Y-72990913D01*
X170686442Y-72990912D01*
X170686452Y-72990911D01*
X170987636Y-72922168D01*
X171279229Y-72820135D01*
X171557565Y-72686095D01*
X171819143Y-72521735D01*
X172060674Y-72329120D01*
X172279120Y-72110674D01*
X172471735Y-71869143D01*
X172636095Y-71607565D01*
X172770135Y-71329229D01*
X172872168Y-71037636D01*
X172940911Y-70736452D01*
X172945131Y-70699003D01*
X172975499Y-70429471D01*
X172975500Y-70429467D01*
X172975500Y-70120532D01*
X172975499Y-70120528D01*
X172940913Y-69813562D01*
X172940910Y-69813544D01*
X172872168Y-69512364D01*
X172872164Y-69512352D01*
X172770137Y-69220777D01*
X172770135Y-69220771D01*
X172636095Y-68942435D01*
X172471735Y-68680857D01*
X172279120Y-68439326D01*
X172060674Y-68220880D01*
X171819143Y-68028265D01*
X171557565Y-67863905D01*
X171557562Y-67863903D01*
X171279236Y-67729868D01*
X171279222Y-67729862D01*
X170987647Y-67627835D01*
X170987635Y-67627831D01*
X170686455Y-67559089D01*
X170686437Y-67559086D01*
X170379471Y-67524500D01*
X170379465Y-67524500D01*
X170070535Y-67524500D01*
X170070528Y-67524500D01*
X169763562Y-67559086D01*
X169763544Y-67559089D01*
X169462364Y-67627831D01*
X169462352Y-67627835D01*
X169170777Y-67729862D01*
X169170763Y-67729868D01*
X168892437Y-67863903D01*
X168630858Y-68028264D01*
X168389326Y-68220879D01*
X168170879Y-68439326D01*
X167978264Y-68680858D01*
X167813903Y-68942437D01*
X167679868Y-69220763D01*
X167679862Y-69220777D01*
X167577835Y-69512352D01*
X167577831Y-69512364D01*
X167509089Y-69813544D01*
X167509086Y-69813562D01*
X167474500Y-70120528D01*
X155263808Y-70120528D01*
X155086433Y-69991657D01*
X154875996Y-69884433D01*
X154651368Y-69811446D01*
X154418097Y-69774500D01*
X154418092Y-69774500D01*
X154181908Y-69774500D01*
X154181903Y-69774500D01*
X153948631Y-69811446D01*
X153724003Y-69884433D01*
X153513566Y-69991657D01*
X153457119Y-70032669D01*
X153322490Y-70130483D01*
X153322488Y-70130485D01*
X153322487Y-70130485D01*
X153155485Y-70297487D01*
X153155485Y-70297488D01*
X153155483Y-70297490D01*
X153095862Y-70379550D01*
X153016657Y-70488566D01*
X152909433Y-70699003D01*
X152836446Y-70923631D01*
X152799500Y-71156902D01*
X148200499Y-71156902D01*
X148200499Y-70227128D01*
X148194091Y-70167517D01*
X148180278Y-70130483D01*
X148143797Y-70032671D01*
X148143793Y-70032664D01*
X148057547Y-69917455D01*
X148057544Y-69917452D01*
X147942335Y-69831206D01*
X147942328Y-69831202D01*
X147807482Y-69780908D01*
X147807483Y-69780908D01*
X147747883Y-69774501D01*
X147747881Y-69774500D01*
X147747873Y-69774500D01*
X147747864Y-69774500D01*
X145652129Y-69774500D01*
X145652123Y-69774501D01*
X145592516Y-69780908D01*
X145457671Y-69831202D01*
X145457664Y-69831206D01*
X145342455Y-69917452D01*
X145342452Y-69917455D01*
X145256206Y-70032664D01*
X145256202Y-70032671D01*
X145205908Y-70167517D01*
X145199501Y-70227116D01*
X145199501Y-70227123D01*
X145199500Y-70227135D01*
X133025500Y-70227135D01*
X133025500Y-70120532D01*
X133025499Y-70120528D01*
X132990913Y-69813562D01*
X132990910Y-69813544D01*
X132922168Y-69512364D01*
X132922164Y-69512352D01*
X132820137Y-69220777D01*
X132820135Y-69220771D01*
X132686095Y-68942435D01*
X132521735Y-68680857D01*
X132329120Y-68439326D01*
X132110674Y-68220880D01*
X131869143Y-68028265D01*
X131607565Y-67863905D01*
X131607562Y-67863903D01*
X131329236Y-67729868D01*
X131329222Y-67729862D01*
X131037647Y-67627835D01*
X131037635Y-67627831D01*
X130736455Y-67559089D01*
X130736437Y-67559086D01*
X130429471Y-67524500D01*
X130429465Y-67524500D01*
X130120535Y-67524500D01*
X130120528Y-67524500D01*
X129813562Y-67559086D01*
X129813544Y-67559089D01*
X129512364Y-67627831D01*
X129512352Y-67627835D01*
X129220777Y-67729862D01*
X129220763Y-67729868D01*
X128942437Y-67863903D01*
X128680858Y-68028264D01*
X128439326Y-68220879D01*
X128220879Y-68439326D01*
X128028264Y-68680858D01*
X127863903Y-68942437D01*
X127729868Y-69220763D01*
X127729862Y-69220777D01*
X127627835Y-69512352D01*
X127627831Y-69512364D01*
X127559089Y-69813544D01*
X127559086Y-69813562D01*
X127524500Y-70120528D01*
X124900500Y-70120528D01*
X124900500Y-69202706D01*
X124900618Y-69197297D01*
X124903377Y-69134108D01*
X124917386Y-68813226D01*
X124918326Y-68802495D01*
X124968152Y-68424025D01*
X124970025Y-68413405D01*
X125052649Y-68040709D01*
X125055440Y-68030295D01*
X125170230Y-67666227D01*
X125173917Y-67656095D01*
X125320003Y-67303412D01*
X125324561Y-67293638D01*
X125500822Y-66955045D01*
X125506217Y-66945700D01*
X125711325Y-66623744D01*
X125717515Y-66614905D01*
X125949896Y-66312060D01*
X125956834Y-66303791D01*
X126214726Y-66022352D01*
X126222352Y-66014726D01*
X126503791Y-65756834D01*
X126512060Y-65749896D01*
X126814905Y-65517515D01*
X126823744Y-65511325D01*
X127145700Y-65306217D01*
X127155045Y-65300822D01*
X127493638Y-65124561D01*
X127503412Y-65120003D01*
X127856095Y-64973917D01*
X127866227Y-64970230D01*
X128230295Y-64855440D01*
X128240709Y-64852649D01*
X128613405Y-64770025D01*
X128624025Y-64768152D01*
X129002495Y-64718326D01*
X129013226Y-64717386D01*
X129397297Y-64700617D01*
X129402706Y-64700500D01*
X129465892Y-64700500D01*
X170734108Y-64700500D01*
X170797294Y-64700500D01*
X170802702Y-64700617D01*
G37*
%TD.AperFunction*%
%TD*%
M02*
