M48
; DRILL file {KiCad 9.0.6} date 2025-12-24T19:30:35-0500
; FORMAT={-:-/ absolute / metric / decimal}
; #@! TF.CreationDate,2025-12-24T19:30:35-05:00
; #@! TF.GenerationSoftware,Kicad,Pcbnew,9.0.6
; #@! TF.FileFunction,Plated,1,2,PTH
FMAT,2
METRIC
; #@! TA.AperFunction,Plated,PTH,ViaDrill
T1C0.300
; #@! TA.AperFunction,Plated,PTH,ComponentDrill
T2C0.700
; #@! TA.AperFunction,Plated,PTH,ComponentDrill
T3C0.750
; #@! TA.AperFunction,Plated,PTH,ComponentDrill
T4C0.800
; #@! TA.AperFunction,Plated,PTH,ComponentDrill
T5C0.900
; #@! TA.AperFunction,Plated,PTH,ComponentDrill
T6C1.000
; #@! TA.AperFunction,Plated,PTH,ComponentDrill
T7C1.300
%
G90
G05
T1
X134.9Y-90.4
X145.495Y-82.905
X147.8Y-81.1
X149.8Y-91.1
X149.9Y-75.9
X150.8Y-90.3
X152.1Y-106.4
X154.7Y-92.4
T2
X126.585Y-82.085
X129.125Y-79.545
X129.125Y-84.625
X135.59Y-75.8
X135.59Y-79.871
X135.59Y-83.943
X135.59Y-88.014
X135.59Y-92.086
X135.59Y-96.157
X135.59Y-100.229
X135.59Y-104.3
X143.21Y-75.8
X143.21Y-79.871
X143.21Y-83.943
X143.21Y-88.014
X143.21Y-92.086
X143.21Y-96.157
X143.21Y-100.229
X143.21Y-104.3
T3
X145.947Y-111.93
X147.218Y-111.93
X148.487Y-111.93
X156.46Y-87.9
X157.73Y-87.9
X159.0Y-87.9
T4
X147.72Y-98.1
X150.26Y-98.1
X152.8Y-98.1
T5
X126.465Y-96.8
X129.005Y-96.8
X158.88Y-82.4
X166.5Y-82.4
T6
X146.7Y-71.275
X154.3Y-71.275
X172.8Y-79.58
X172.8Y-82.12
X172.8Y-84.66
X172.8Y-87.2
T7
X170.11Y-96.265
X170.11Y-101.345
M30
